G04 #@! TF.GenerationSoftware,KiCad,Pcbnew,9.0.2*
G04 #@! TF.CreationDate,2025-08-22T12:36:55+02:00*
G04 #@! TF.ProjectId,PiZero_VT100,50695a65-726f-45f5-9654-3130302e6b69,rev?*
G04 #@! TF.SameCoordinates,PX5e9ac00PYa0ca1c0*
G04 #@! TF.FileFunction,Copper,L2,Bot*
G04 #@! TF.FilePolarity,Positive*
%FSLAX46Y46*%
G04 Gerber Fmt 4.6, Leading zero omitted, Abs format (unit mm)*
G04 Created by KiCad (PCBNEW 9.0.2) date 2025-08-22 12:36:55*
%MOMM*%
%LPD*%
G01*
G04 APERTURE LIST*
G04 Aperture macros list*
%AMRoundRect*
0 Rectangle with rounded corners*
0 $1 Rounding radius*
0 $2 $3 $4 $5 $6 $7 $8 $9 X,Y pos of 4 corners*
0 Add a 4 corners polygon primitive as box body*
4,1,4,$2,$3,$4,$5,$6,$7,$8,$9,$2,$3,0*
0 Add four circle primitives for the rounded corners*
1,1,$1+$1,$2,$3*
1,1,$1+$1,$4,$5*
1,1,$1+$1,$6,$7*
1,1,$1+$1,$8,$9*
0 Add four rect primitives between the rounded corners*
20,1,$1+$1,$2,$3,$4,$5,0*
20,1,$1+$1,$4,$5,$6,$7,0*
20,1,$1+$1,$6,$7,$8,$9,0*
20,1,$1+$1,$8,$9,$2,$3,0*%
G04 Aperture macros list end*
G04 #@! TA.AperFunction,ComponentPad*
%ADD10R,1.700000X1.700000*%
G04 #@! TD*
G04 #@! TA.AperFunction,ComponentPad*
%ADD11O,1.700000X1.700000*%
G04 #@! TD*
G04 #@! TA.AperFunction,ComponentPad*
%ADD12C,1.700000*%
G04 #@! TD*
G04 #@! TA.AperFunction,ComponentPad*
%ADD13RoundRect,0.250000X0.750000X0.750000X-0.750000X0.750000X-0.750000X-0.750000X0.750000X-0.750000X0*%
G04 #@! TD*
G04 #@! TA.AperFunction,ComponentPad*
%ADD14C,2.000000*%
G04 #@! TD*
G04 #@! TA.AperFunction,ComponentPad*
%ADD15O,0.800000X0.800000*%
G04 #@! TD*
G04 #@! TA.AperFunction,ComponentPad*
%ADD16O,1.100000X2.200000*%
G04 #@! TD*
G04 #@! TA.AperFunction,ComponentPad*
%ADD17O,2.000000X1.200000*%
G04 #@! TD*
G04 #@! TA.AperFunction,ComponentPad*
%ADD18C,3.400000*%
G04 #@! TD*
G04 #@! TA.AperFunction,ComponentPad*
%ADD19C,1.600000*%
G04 #@! TD*
G04 #@! TA.AperFunction,ComponentPad*
%ADD20R,2.200000X1.300000*%
G04 #@! TD*
G04 #@! TA.AperFunction,ComponentPad*
%ADD21O,2.200000X1.300000*%
G04 #@! TD*
G04 #@! TA.AperFunction,ComponentPad*
%ADD22R,2.500000X1.500000*%
G04 #@! TD*
G04 #@! TA.AperFunction,ComponentPad*
%ADD23O,2.500000X1.500000*%
G04 #@! TD*
G04 #@! TA.AperFunction,ComponentPad*
%ADD24R,2.000000X2.000000*%
G04 #@! TD*
G04 #@! TA.AperFunction,ComponentPad*
%ADD25O,2.000000X2.000000*%
G04 #@! TD*
G04 #@! TA.AperFunction,ComponentPad*
%ADD26RoundRect,0.250001X0.949999X0.949999X-0.949999X0.949999X-0.949999X-0.949999X0.949999X-0.949999X0*%
G04 #@! TD*
G04 #@! TA.AperFunction,ComponentPad*
%ADD27C,2.400000*%
G04 #@! TD*
G04 #@! TA.AperFunction,ComponentPad*
%ADD28RoundRect,0.250000X-0.950000X-0.550000X0.950000X-0.550000X0.950000X0.550000X-0.950000X0.550000X0*%
G04 #@! TD*
G04 #@! TA.AperFunction,ComponentPad*
%ADD29O,2.400000X1.600000*%
G04 #@! TD*
G04 #@! TA.AperFunction,ComponentPad*
%ADD30RoundRect,0.250000X0.750000X-0.750000X0.750000X0.750000X-0.750000X0.750000X-0.750000X-0.750000X0*%
G04 #@! TD*
G04 #@! TA.AperFunction,ComponentPad*
%ADD31R,1.300000X2.500000*%
G04 #@! TD*
G04 #@! TA.AperFunction,ComponentPad*
%ADD32O,1.200000X2.500000*%
G04 #@! TD*
G04 #@! TA.AperFunction,ComponentPad*
%ADD33O,1.500000X2.500000*%
G04 #@! TD*
G04 #@! TA.AperFunction,ComponentPad*
%ADD34C,3.000000*%
G04 #@! TD*
G04 #@! TA.AperFunction,ViaPad*
%ADD35C,1.500000*%
G04 #@! TD*
G04 #@! TA.AperFunction,Conductor*
%ADD36C,0.800000*%
G04 #@! TD*
G04 APERTURE END LIST*
D10*
X23230000Y70940000D03*
D11*
X23230000Y68400000D03*
X25770000Y70940000D03*
X25770000Y68400000D03*
X28310000Y70940000D03*
X28310000Y68400000D03*
X30850000Y70940000D03*
X30850000Y68400000D03*
X33390000Y70940000D03*
X33390000Y68400000D03*
X35930000Y70940000D03*
X35930000Y68400000D03*
X38470000Y70940000D03*
X38470000Y68400000D03*
X41010000Y70940000D03*
X41010000Y68400000D03*
X43550000Y70940000D03*
X43550000Y68400000D03*
X46090000Y70940000D03*
X46090000Y68400000D03*
X48630000Y70940000D03*
X48630000Y68400000D03*
X51170000Y70940000D03*
X51170000Y68400000D03*
X53710000Y70940000D03*
X53710000Y68400000D03*
X56250000Y70940000D03*
X56250000Y68400000D03*
X58790000Y70940000D03*
X58790000Y68400000D03*
X61330000Y70940000D03*
X61330000Y68400000D03*
X63870000Y70940000D03*
X63870000Y68400000D03*
X66410000Y70940000D03*
X66410000Y68400000D03*
X68950000Y70940000D03*
X68950000Y68400000D03*
X71490000Y70940000D03*
X71490000Y68400000D03*
D10*
X31760000Y27150000D03*
D12*
X34300000Y27150000D03*
X36840000Y27150000D03*
X39380000Y27150000D03*
D13*
X7900000Y69250000D03*
D14*
X2900000Y69250000D03*
X3350000Y24650000D03*
X3350000Y36050000D03*
D15*
X64150000Y8600000D03*
X61550000Y8600000D03*
D16*
X66250000Y8600000D03*
X59450000Y8600000D03*
D17*
X66250000Y11100000D03*
X59450000Y11100000D03*
D18*
X69600000Y5600000D03*
X56100000Y5600000D03*
X62850000Y4800000D03*
D19*
X7250000Y79000000D03*
X2250000Y79000000D03*
D20*
X13600000Y90430000D03*
D21*
X13600000Y92970000D03*
D10*
X7760000Y11500000D03*
D12*
X10300000Y11500000D03*
D10*
X86250000Y45025000D03*
D12*
X86250000Y47565000D03*
D22*
X16020000Y52040000D03*
D23*
X16020000Y49500000D03*
X16020000Y46960000D03*
D19*
X9950000Y57900000D03*
X4950000Y57900000D03*
D24*
X12020000Y30950000D03*
D25*
X17100000Y30950000D03*
X17100000Y36030000D03*
X12020000Y36030000D03*
D26*
X33650000Y41050000D03*
D27*
X20950000Y41050000D03*
D19*
X13250000Y86480000D03*
X13250000Y76320000D03*
D10*
X54640000Y32550000D03*
D12*
X57180000Y32550000D03*
X59720000Y32550000D03*
X62260000Y32550000D03*
D28*
X68700000Y59130000D03*
D29*
X68700000Y56590000D03*
X68700000Y54050000D03*
X68700000Y51510000D03*
X68700000Y48970000D03*
X68700000Y46430000D03*
X68700000Y43890000D03*
X68700000Y41350000D03*
X76320000Y41350000D03*
X76320000Y43890000D03*
X76320000Y46430000D03*
X76320000Y48970000D03*
X76320000Y51510000D03*
X76320000Y54050000D03*
X76320000Y56590000D03*
X76320000Y59130000D03*
D30*
X5300000Y47250000D03*
D14*
X5300000Y52250000D03*
D31*
X77750000Y12940000D03*
D32*
X80250000Y12940000D03*
X82250000Y12940000D03*
D33*
X84750000Y12940000D03*
D34*
X74680000Y10230000D03*
X87820000Y10230000D03*
D35*
X73450000Y63500000D03*
X61120000Y63630000D03*
X45150000Y51650000D03*
X64600000Y51650000D03*
X41975000Y59525000D03*
X41900000Y51550000D03*
X62250000Y20250000D03*
X54150000Y20200000D03*
X67400000Y24100000D03*
X56850000Y24100000D03*
D36*
X54150000Y20200000D02*
X54150000Y11150000D01*
X54150000Y11150000D02*
X56700000Y8600000D01*
X56700000Y8600000D02*
X59450000Y8600000D01*
X30850000Y68400000D02*
X30850000Y63350000D01*
X68700000Y56590000D02*
X68610000Y56500000D01*
X30850000Y63350000D02*
X37650000Y56550000D01*
X36840000Y29390000D02*
X36840000Y27150000D01*
X37650000Y56550000D02*
X47800000Y56550000D01*
X47850000Y40400000D02*
X36840000Y29390000D01*
X68610000Y56500000D02*
X47850000Y56500000D01*
X47850000Y56500000D02*
X47850000Y40400000D01*
X47800000Y56550000D02*
X47850000Y56500000D01*
X72310000Y51510000D02*
X73450000Y52650000D01*
X35020000Y63630000D02*
X33390000Y65260000D01*
X45150000Y41950000D02*
X45150000Y51650000D01*
X34300000Y31100000D02*
X45150000Y41950000D01*
X61120000Y63630000D02*
X35020000Y63630000D01*
X73320000Y63630000D02*
X73450000Y63500000D01*
X45150000Y51650000D02*
X45350000Y51450000D01*
X33390000Y65260000D02*
X33390000Y68400000D01*
X34300000Y27150000D02*
X34300000Y31100000D01*
X68700000Y51510000D02*
X72310000Y51510000D01*
X64400000Y51450000D02*
X64600000Y51650000D01*
X68700000Y51510000D02*
X64740000Y51510000D01*
X73450000Y52650000D02*
X73450000Y63500000D01*
X23230000Y68400000D02*
X22200000Y68400000D01*
X7250000Y88650000D02*
X11700000Y93100000D01*
X7250000Y69900000D02*
X7900000Y69250000D01*
X19370000Y42630000D02*
X20950000Y41050000D01*
X22200000Y68400000D02*
X19950000Y66150000D01*
X19900000Y66200000D02*
X16850000Y69250000D01*
X13600000Y92970000D02*
X13470000Y93100000D01*
X7250000Y79000000D02*
X7250000Y69900000D01*
X16850000Y69250000D02*
X7900000Y69250000D01*
X19900000Y57600000D02*
X19900000Y66200000D01*
X19950000Y66150000D02*
X19950000Y57650000D01*
X16020000Y46960000D02*
X16020000Y42630000D01*
X16020000Y46960000D02*
X19900000Y46960000D01*
X19900000Y46960000D02*
X19900000Y57600000D01*
X13470000Y93100000D02*
X11700000Y93100000D01*
X25770000Y68400000D02*
X23230000Y68400000D01*
X7250000Y79000000D02*
X7250000Y88650000D01*
X16020000Y42630000D02*
X19370000Y42630000D01*
X19950000Y57650000D02*
X19900000Y57600000D01*
X68570000Y59000000D02*
X68700000Y59130000D01*
X74150000Y65600000D02*
X71300000Y65600000D01*
X63000000Y59750000D02*
X63750000Y59000000D01*
X41950000Y59500000D02*
X41975000Y59525000D01*
X71300000Y59200000D02*
X71250000Y59150000D01*
X42200000Y59750000D02*
X63000000Y59750000D01*
X71250000Y59150000D02*
X68720000Y59150000D01*
X43550000Y74200000D02*
X44800000Y75450000D01*
X32000000Y27390000D02*
X31760000Y27150000D01*
X75400000Y66850000D02*
X74150000Y65600000D01*
X63750000Y59000000D02*
X68570000Y59000000D01*
X71300000Y65600000D02*
X71300000Y59200000D01*
X68720000Y59150000D02*
X68700000Y59130000D01*
X43550000Y70940000D02*
X43550000Y74200000D01*
X75400000Y75450000D02*
X75400000Y66850000D01*
X32000000Y31750000D02*
X41900000Y41650000D01*
X41900000Y41650000D02*
X41900000Y51550000D01*
X32000000Y31750000D02*
X32000000Y27390000D01*
X41975000Y59525000D02*
X42200000Y59750000D01*
X44800000Y75450000D02*
X75400000Y75450000D01*
X73650000Y46430000D02*
X73650000Y39750000D01*
X80250000Y33150000D02*
X80250000Y12940000D01*
X76320000Y46430000D02*
X73650000Y46430000D01*
X73650000Y39750000D02*
X80250000Y33150000D01*
X80800000Y41350000D02*
X82250000Y39900000D01*
X76320000Y41350000D02*
X80800000Y41350000D01*
X82250000Y39900000D02*
X82250000Y12940000D01*
X5300000Y47250000D02*
X5300000Y39596500D01*
X14650000Y39150000D02*
X14650000Y33580000D01*
X16020000Y52040000D02*
X10090000Y52040000D01*
X5300000Y39596500D02*
X14203500Y39596500D01*
X14650000Y33580000D02*
X12020000Y30950000D01*
X10090000Y52040000D02*
X5300000Y47250000D01*
X9950000Y57900000D02*
X9950000Y52180000D01*
X9950000Y52180000D02*
X10090000Y52040000D01*
X14203500Y39596500D02*
X14650000Y39150000D01*
X10300000Y11500000D02*
X17100000Y18300000D01*
X17100000Y18300000D02*
X17100000Y30950000D01*
X12020000Y36030000D02*
X3370000Y36030000D01*
X3370000Y36030000D02*
X3350000Y36050000D01*
X3350000Y24650000D02*
X7760000Y20240000D01*
X7760000Y20240000D02*
X7760000Y11500000D01*
X83188300Y43890000D02*
X84298300Y45000000D01*
X86350000Y45000000D02*
X84298300Y45000000D01*
X76320000Y43890000D02*
X83188300Y43890000D01*
X84990000Y48900000D02*
X76390000Y48900000D01*
X86350000Y47540000D02*
X84990000Y48900000D01*
X76390000Y48900000D02*
X76320000Y48970000D01*
X13250000Y86480000D02*
X13600000Y86830000D01*
X13600000Y86830000D02*
X13600000Y90430000D01*
X64270000Y48970000D02*
X68700000Y48970000D01*
X54150000Y20200000D02*
X54300000Y20050000D01*
X62260000Y32550000D02*
X62260000Y20260000D01*
X62260000Y32550000D02*
X62260000Y46960000D01*
X62200000Y20200000D02*
X62250000Y20250000D01*
X62260000Y46960000D02*
X64270000Y48970000D01*
X67550000Y17200000D02*
X67600000Y17250000D01*
X59720000Y32550000D02*
X59720000Y52620000D01*
X61150000Y54050000D02*
X68700000Y54050000D01*
X69100000Y9750000D02*
X69100000Y15750000D01*
X59720000Y32550000D02*
X59720000Y17530000D01*
X69100000Y15750000D02*
X67600000Y17250000D01*
X67950000Y8600000D02*
X69100000Y9750000D01*
X66250000Y8600000D02*
X67950000Y8600000D01*
X59720000Y52620000D02*
X61150000Y54050000D01*
X59720000Y17530000D02*
X60050000Y17200000D01*
X60050000Y17200000D02*
X67550000Y17200000D01*
X50600000Y21050000D02*
X53650000Y24100000D01*
X57248300Y11100000D02*
X57248300Y21050000D01*
X53650000Y24100000D02*
X56850000Y24100000D01*
X77750000Y17600000D02*
X77750000Y12940000D01*
X32500000Y41050000D02*
X27050000Y35600000D01*
X59450000Y11100000D02*
X57248300Y11100000D01*
X31550000Y21050000D02*
X50600000Y21050000D01*
X27050000Y25550000D02*
X31550000Y21050000D01*
X67400000Y24100000D02*
X71250000Y24100000D01*
X71250000Y24100000D02*
X77750000Y17600000D01*
X56850000Y24100000D02*
X57248300Y24100000D01*
X57180000Y32550000D02*
X57180000Y24430000D01*
X27050000Y35600000D02*
X27050000Y25550000D01*
X33650000Y41050000D02*
X32500000Y41050000D01*
X57248300Y24100000D02*
X57248300Y21050000D01*
G04 #@! TA.AperFunction,Conductor*
G36*
X99575567Y99500189D02*
G01*
X99642592Y99480472D01*
X99688320Y99427645D01*
X99699500Y99376190D01*
X99699500Y224477D01*
X99679815Y157438D01*
X99627011Y111683D01*
X99575376Y100477D01*
X273751Y199877D01*
X206731Y219629D01*
X161029Y272478D01*
X149875Y323752D01*
X147970Y2216761D01*
X146350Y3825962D01*
X2449500Y3825962D01*
X2449500Y3574038D01*
X2484865Y3350754D01*
X2488910Y3325215D01*
X2566760Y3085617D01*
X2681132Y2861152D01*
X2829201Y2657351D01*
X2829205Y2657346D01*
X3007345Y2479206D01*
X3007350Y2479202D01*
X3125387Y2393444D01*
X3211155Y2331130D01*
X3354184Y2258253D01*
X3435616Y2216761D01*
X3435618Y2216761D01*
X3435621Y2216759D01*
X3675215Y2138910D01*
X3924038Y2099500D01*
X3924039Y2099500D01*
X4175961Y2099500D01*
X4175962Y2099500D01*
X4424785Y2138910D01*
X4664379Y2216759D01*
X4888845Y2331130D01*
X5092656Y2479207D01*
X5270793Y2657344D01*
X5418870Y2861155D01*
X5533241Y3085621D01*
X5611090Y3325215D01*
X5650500Y3574038D01*
X5650500Y3825962D01*
X5611090Y4074785D01*
X5533241Y4314379D01*
X5533239Y4314382D01*
X5533239Y4314384D01*
X5491747Y4395816D01*
X5418870Y4538845D01*
X5399952Y4564883D01*
X5270798Y4742650D01*
X5270794Y4742655D01*
X5092654Y4920795D01*
X5092649Y4920799D01*
X4888848Y5068868D01*
X4888847Y5068869D01*
X4888845Y5068870D01*
X4818747Y5104587D01*
X4664383Y5183240D01*
X4424785Y5261090D01*
X4175962Y5300500D01*
X3924038Y5300500D01*
X3799626Y5280795D01*
X3675214Y5261090D01*
X3435616Y5183240D01*
X3211151Y5068868D01*
X3007350Y4920799D01*
X3007345Y4920795D01*
X2829205Y4742655D01*
X2829201Y4742650D01*
X2681132Y4538849D01*
X2566760Y4314384D01*
X2513593Y4150752D01*
X2488910Y4074785D01*
X2449500Y3825962D01*
X146350Y3825962D01*
X125271Y24768005D01*
X1549500Y24768005D01*
X1549500Y24531996D01*
X1549501Y24531980D01*
X1580306Y24297990D01*
X1641394Y24070007D01*
X1731714Y23851955D01*
X1731719Y23851944D01*
X1798125Y23736928D01*
X1849727Y23647550D01*
X1849729Y23647547D01*
X1849730Y23647546D01*
X1993406Y23460303D01*
X1993412Y23460296D01*
X2160295Y23293413D01*
X2160302Y23293407D01*
X2270306Y23208999D01*
X2347550Y23149727D01*
X2451144Y23089917D01*
X2551943Y23031720D01*
X2551948Y23031718D01*
X2551951Y23031716D01*
X2770007Y22941394D01*
X2997986Y22880307D01*
X3231989Y22849500D01*
X3401374Y22849500D01*
X3468413Y22829815D01*
X3489055Y22813181D01*
X6523181Y19779056D01*
X6556666Y19717733D01*
X6559500Y19691375D01*
X6559500Y13143708D01*
X6539815Y13076669D01*
X6501473Y13038715D01*
X6407741Y12979819D01*
X6407739Y12979818D01*
X6280184Y12852263D01*
X6184211Y12699524D01*
X6124631Y12529255D01*
X6124630Y12529250D01*
X6109500Y12394961D01*
X6109500Y10605040D01*
X6124630Y10470751D01*
X6124631Y10470746D01*
X6184211Y10300477D01*
X6255114Y10187637D01*
X6280184Y10147738D01*
X6407738Y10020184D01*
X6560478Y9924211D01*
X6699246Y9875654D01*
X6730745Y9864632D01*
X6730750Y9864631D01*
X6821246Y9854435D01*
X6865040Y9849501D01*
X6865043Y9849500D01*
X6865046Y9849500D01*
X8654957Y9849500D01*
X8654958Y9849501D01*
X8728761Y9857816D01*
X8789249Y9864631D01*
X8789252Y9864632D01*
X8789255Y9864632D01*
X8959522Y9924211D01*
X9112262Y10020184D01*
X9212655Y10120577D01*
X9273978Y10154062D01*
X9343670Y10149078D01*
X9373218Y10133217D01*
X9434949Y10088366D01*
X9544312Y10032643D01*
X9666423Y9970423D01*
X9666425Y9970423D01*
X9666428Y9970421D01*
X9913507Y9890140D01*
X10033332Y9871162D01*
X10170098Y9849500D01*
X10170103Y9849500D01*
X10429902Y9849500D01*
X10543298Y9867461D01*
X10686493Y9890140D01*
X10933572Y9970421D01*
X11165051Y10088366D01*
X11375229Y10241069D01*
X11558931Y10424771D01*
X11711634Y10634949D01*
X11829579Y10866428D01*
X11909860Y11113507D01*
X11940885Y11309393D01*
X11950500Y11370098D01*
X11950500Y11401374D01*
X11970185Y11468413D01*
X11986819Y11489055D01*
X14867019Y14369255D01*
X18015690Y17517926D01*
X18126760Y17670801D01*
X18212547Y17839168D01*
X18270940Y18018882D01*
X18286433Y18116702D01*
X18300500Y18205513D01*
X18300500Y29552847D01*
X18320185Y29619886D01*
X18336814Y29640524D01*
X18456592Y29760301D01*
X18600273Y29947550D01*
X18718284Y30151951D01*
X18808606Y30370007D01*
X18869693Y30597986D01*
X18900500Y30831989D01*
X18900500Y31068011D01*
X18869693Y31302014D01*
X18808606Y31529993D01*
X18718284Y31748049D01*
X18718282Y31748052D01*
X18718280Y31748057D01*
X18662605Y31844487D01*
X18600273Y31952450D01*
X18456592Y32139699D01*
X18456587Y32139705D01*
X18289704Y32306588D01*
X18289697Y32306594D01*
X18102454Y32450270D01*
X18102453Y32450271D01*
X18102450Y32450273D01*
X18020957Y32497323D01*
X17898056Y32568281D01*
X17898045Y32568286D01*
X17679993Y32658606D01*
X17452010Y32719694D01*
X17218020Y32750499D01*
X17218017Y32750500D01*
X17218011Y32750500D01*
X16981989Y32750500D01*
X16981983Y32750500D01*
X16981979Y32750499D01*
X16747989Y32719694D01*
X16520006Y32658606D01*
X16301954Y32568286D01*
X16301943Y32568281D01*
X16097545Y32450270D01*
X15910302Y32306594D01*
X15910295Y32306588D01*
X15743412Y32139705D01*
X15743406Y32139698D01*
X15599730Y31952455D01*
X15481719Y31748057D01*
X15481714Y31748046D01*
X15391394Y31529994D01*
X15330306Y31302011D01*
X15299501Y31068021D01*
X15299500Y31068005D01*
X15299500Y30831996D01*
X15299501Y30831980D01*
X15330306Y30597990D01*
X15391394Y30370007D01*
X15473380Y30172074D01*
X15481716Y30151951D01*
X15599727Y29947550D01*
X15599729Y29947547D01*
X15599730Y29947546D01*
X15743405Y29760304D01*
X15743407Y29760302D01*
X15743408Y29760301D01*
X15863182Y29640527D01*
X15896666Y29579206D01*
X15899500Y29552847D01*
X15899500Y18848626D01*
X15879815Y18781587D01*
X15863181Y18760945D01*
X10289055Y13186819D01*
X10227732Y13153334D01*
X10201374Y13150500D01*
X10170098Y13150500D01*
X9913506Y13109860D01*
X9666423Y13029578D01*
X9434946Y12911633D01*
X9373219Y12866786D01*
X9307413Y12843307D01*
X9239359Y12859133D01*
X9212654Y12879424D01*
X9112260Y12979818D01*
X9112258Y12979819D01*
X9018527Y13038715D01*
X8972237Y13091049D01*
X8960500Y13143708D01*
X8960500Y20334487D01*
X8930940Y20521119D01*
X8872545Y20700837D01*
X8824470Y20795188D01*
X8786760Y20869199D01*
X8675690Y21022073D01*
X8542073Y21155690D01*
X6867948Y22829815D01*
X5186819Y24510945D01*
X5153334Y24572268D01*
X5150500Y24598626D01*
X5150500Y24768005D01*
X5150500Y24768011D01*
X5119693Y25002014D01*
X5058606Y25229993D01*
X4968284Y25448049D01*
X4968282Y25448052D01*
X4968280Y25448057D01*
X4916984Y25536903D01*
X4850273Y25652450D01*
X4759631Y25770577D01*
X4706593Y25839698D01*
X4706587Y25839705D01*
X4539704Y26006588D01*
X4539697Y26006594D01*
X4352454Y26150270D01*
X4352453Y26150271D01*
X4352450Y26150273D01*
X4270957Y26197323D01*
X4148056Y26268281D01*
X4148045Y26268286D01*
X3929993Y26358606D01*
X3702010Y26419694D01*
X3468020Y26450499D01*
X3468017Y26450500D01*
X3468011Y26450500D01*
X3231989Y26450500D01*
X3231983Y26450500D01*
X3231979Y26450499D01*
X2997989Y26419694D01*
X2770006Y26358606D01*
X2551954Y26268286D01*
X2551943Y26268281D01*
X2347545Y26150270D01*
X2160302Y26006594D01*
X2160295Y26006588D01*
X1993412Y25839705D01*
X1993406Y25839698D01*
X1849730Y25652455D01*
X1731719Y25448057D01*
X1731714Y25448046D01*
X1641394Y25229994D01*
X1580306Y25002011D01*
X1549501Y24768021D01*
X1549500Y24768005D01*
X125271Y24768005D01*
X113796Y36168005D01*
X1549500Y36168005D01*
X1549500Y35931996D01*
X1549501Y35931980D01*
X1580306Y35697990D01*
X1641394Y35470007D01*
X1731714Y35251955D01*
X1731719Y35251944D01*
X1796895Y35139057D01*
X1849727Y35047550D01*
X1849729Y35047547D01*
X1849730Y35047546D01*
X1993406Y34860303D01*
X1993412Y34860296D01*
X2160295Y34693413D01*
X2160302Y34693407D01*
X2186367Y34673407D01*
X2347550Y34549727D01*
X2478918Y34473882D01*
X2551943Y34431720D01*
X2551948Y34431718D01*
X2551951Y34431716D01*
X2770007Y34341394D01*
X2997986Y34280307D01*
X3231989Y34249500D01*
X3231996Y34249500D01*
X3468004Y34249500D01*
X3468011Y34249500D01*
X3702014Y34280307D01*
X3929993Y34341394D01*
X4148049Y34431716D01*
X4352450Y34549727D01*
X4539699Y34693408D01*
X4639473Y34793183D01*
X4700794Y34826666D01*
X4727153Y34829500D01*
X10622847Y34829500D01*
X10689886Y34809815D01*
X10710523Y34793186D01*
X10773681Y34730028D01*
X10830303Y34673406D01*
X10896395Y34622692D01*
X11017550Y34529727D01*
X11148918Y34453882D01*
X11221943Y34411720D01*
X11221948Y34411718D01*
X11221951Y34411716D01*
X11440007Y34321394D01*
X11667986Y34260307D01*
X11901989Y34229500D01*
X11901996Y34229500D01*
X12138004Y34229500D01*
X12138011Y34229500D01*
X12372014Y34260307D01*
X12599993Y34321394D01*
X12818049Y34411716D01*
X13022450Y34529727D01*
X13209699Y34673408D01*
X13209704Y34673413D01*
X13237819Y34701527D01*
X13299142Y34735012D01*
X13368834Y34730028D01*
X13424767Y34688156D01*
X13449184Y34622692D01*
X13449500Y34613846D01*
X13449500Y34128626D01*
X13429815Y34061587D01*
X13413181Y34040945D01*
X12159055Y32786819D01*
X12097732Y32753334D01*
X12071374Y32750500D01*
X10975039Y32750500D01*
X10840750Y32735370D01*
X10840745Y32735369D01*
X10670476Y32675789D01*
X10517737Y32579816D01*
X10390184Y32452263D01*
X10294211Y32299524D01*
X10234631Y32129255D01*
X10234630Y32129250D01*
X10219500Y31994961D01*
X10219500Y29905040D01*
X10234630Y29770751D01*
X10234631Y29770746D01*
X10294211Y29600477D01*
X10367097Y29484481D01*
X10390184Y29447738D01*
X10517738Y29320184D01*
X10670478Y29224211D01*
X10840745Y29164632D01*
X10840750Y29164631D01*
X10931246Y29154435D01*
X10975040Y29149501D01*
X10975043Y29149500D01*
X10975046Y29149500D01*
X13064957Y29149500D01*
X13064958Y29149501D01*
X13132104Y29157066D01*
X13199249Y29164631D01*
X13199252Y29164632D01*
X13199255Y29164632D01*
X13369522Y29224211D01*
X13522262Y29320184D01*
X13649816Y29447738D01*
X13745789Y29600478D01*
X13805368Y29770745D01*
X13820500Y29905046D01*
X13820500Y31001375D01*
X13840185Y31068414D01*
X13856819Y31089056D01*
X14684191Y31916428D01*
X15565690Y32797927D01*
X15676760Y32950801D01*
X15762547Y33119168D01*
X15820940Y33298882D01*
X15850500Y33485514D01*
X15850500Y39244487D01*
X15820940Y39431119D01*
X15762545Y39610837D01*
X15676759Y39779200D01*
X15625683Y39849500D01*
X15625683Y39849501D01*
X15625681Y39849502D01*
X15601685Y39882530D01*
X15565693Y39932071D01*
X14985576Y40512188D01*
X14985574Y40512190D01*
X14832699Y40623260D01*
X14664336Y40709046D01*
X14484618Y40767441D01*
X14297986Y40797000D01*
X14297981Y40797000D01*
X6624500Y40797000D01*
X6557461Y40816685D01*
X6511706Y40869489D01*
X6500500Y40921000D01*
X6500500Y45475326D01*
X6520185Y45542365D01*
X6566046Y45584684D01*
X6636450Y45622315D01*
X6796410Y45753590D01*
X6927685Y45913550D01*
X7025232Y46096046D01*
X7085300Y46294066D01*
X7100500Y46448392D01*
X7100500Y47301374D01*
X7120185Y47368413D01*
X7136819Y47389055D01*
X10550945Y50803181D01*
X10612268Y50836666D01*
X10638626Y50839500D01*
X14039190Y50839500D01*
X14106229Y50819815D01*
X14136135Y50792815D01*
X14140183Y50787739D01*
X14140184Y50787738D01*
X14267738Y50660184D01*
X14420478Y50564211D01*
X14590745Y50504632D01*
X14590750Y50504631D01*
X14681246Y50494435D01*
X14725040Y50489501D01*
X14725043Y50489500D01*
X14725046Y50489500D01*
X17314957Y50489500D01*
X17314958Y50489501D01*
X17382104Y50497066D01*
X17449249Y50504631D01*
X17449252Y50504632D01*
X17449255Y50504632D01*
X17619522Y50564211D01*
X17772262Y50660184D01*
X17899816Y50787738D01*
X17995789Y50940478D01*
X18055368Y51110745D01*
X18070500Y51245046D01*
X18070500Y52834954D01*
X18055368Y52969255D01*
X17995789Y53139522D01*
X17990924Y53147264D01*
X17926874Y53249199D01*
X17899816Y53292262D01*
X17772262Y53419816D01*
X17747109Y53435621D01*
X17619523Y53515789D01*
X17449254Y53575369D01*
X17449249Y53575370D01*
X17314960Y53590500D01*
X17314954Y53590500D01*
X14725046Y53590500D01*
X14725039Y53590500D01*
X14590750Y53575370D01*
X14590745Y53575369D01*
X14420476Y53515789D01*
X14267737Y53419816D01*
X14140183Y53292262D01*
X14136135Y53287185D01*
X14078946Y53247046D01*
X14039190Y53240500D01*
X11274500Y53240500D01*
X11207461Y53260185D01*
X11161706Y53312989D01*
X11150500Y53364500D01*
X11150500Y56789123D01*
X11170185Y56856162D01*
X11174182Y56862008D01*
X11248854Y56964786D01*
X11318870Y57061155D01*
X11433241Y57285621D01*
X11511090Y57525215D01*
X11550500Y57774038D01*
X11550500Y58025962D01*
X11511090Y58274785D01*
X11433241Y58514379D01*
X11433239Y58514382D01*
X11433239Y58514384D01*
X11391747Y58595816D01*
X11318870Y58738845D01*
X11299952Y58764883D01*
X11170798Y58942650D01*
X11170794Y58942655D01*
X10992654Y59120795D01*
X10992649Y59120799D01*
X10788848Y59268868D01*
X10788847Y59268869D01*
X10788845Y59268870D01*
X10718747Y59304587D01*
X10564383Y59383240D01*
X10324785Y59461090D01*
X10075962Y59500500D01*
X9824038Y59500500D01*
X9699626Y59480795D01*
X9575214Y59461090D01*
X9335616Y59383240D01*
X9111151Y59268868D01*
X8907350Y59120799D01*
X8907345Y59120795D01*
X8729205Y58942655D01*
X8729201Y58942650D01*
X8581132Y58738849D01*
X8466760Y58514384D01*
X8410861Y58342344D01*
X8388910Y58274785D01*
X8349500Y58025962D01*
X8349500Y57774038D01*
X8382511Y57565617D01*
X8388910Y57525215D01*
X8466760Y57285617D01*
X8581132Y57061152D01*
X8725818Y56862008D01*
X8749298Y56796202D01*
X8749500Y56789123D01*
X8749500Y52448626D01*
X8729815Y52381587D01*
X8713181Y52360945D01*
X5439055Y49086819D01*
X5377732Y49053334D01*
X5351374Y49050500D01*
X4498392Y49050500D01*
X4460298Y49046749D01*
X4344067Y49035301D01*
X4146043Y48975231D01*
X4072860Y48936113D01*
X3963550Y48877685D01*
X3963548Y48877684D01*
X3963547Y48877683D01*
X3803589Y48746411D01*
X3672317Y48586453D01*
X3574769Y48403957D01*
X3514699Y48205933D01*
X3499500Y48051605D01*
X3499500Y46448396D01*
X3514699Y46294068D01*
X3514700Y46294066D01*
X3574768Y46096046D01*
X3672315Y45913550D01*
X3672317Y45913548D01*
X3803589Y45753590D01*
X3963549Y45622316D01*
X3963551Y45622314D01*
X3984242Y45611255D01*
X4033953Y45584684D01*
X4083797Y45535723D01*
X4099500Y45475326D01*
X4099500Y39502014D01*
X4129059Y39315382D01*
X4187454Y39135664D01*
X4272922Y38967926D01*
X4273240Y38967301D01*
X4384310Y38814427D01*
X4517927Y38680810D01*
X4670801Y38569740D01*
X4750347Y38529210D01*
X4839163Y38483955D01*
X4839165Y38483955D01*
X4839168Y38483953D01*
X4935497Y38452654D01*
X5018881Y38425560D01*
X5205514Y38396000D01*
X5205519Y38396000D01*
X13325500Y38396000D01*
X13392539Y38376315D01*
X13438294Y38323511D01*
X13449500Y38272000D01*
X13449500Y37446154D01*
X13429815Y37379115D01*
X13377011Y37333360D01*
X13307853Y37323416D01*
X13244297Y37352441D01*
X13237819Y37358473D01*
X13209704Y37386588D01*
X13209697Y37386594D01*
X13022454Y37530270D01*
X13022453Y37530271D01*
X13022450Y37530273D01*
X12940957Y37577323D01*
X12818056Y37648281D01*
X12818045Y37648286D01*
X12599993Y37738606D01*
X12372010Y37799694D01*
X12138020Y37830499D01*
X12138017Y37830500D01*
X12138011Y37830500D01*
X11901989Y37830500D01*
X11901983Y37830500D01*
X11901979Y37830499D01*
X11667989Y37799694D01*
X11440006Y37738606D01*
X11221954Y37648286D01*
X11221943Y37648281D01*
X11017545Y37530270D01*
X10830303Y37386595D01*
X10796150Y37352441D01*
X10710526Y37266818D01*
X10649206Y37233334D01*
X10622847Y37230500D01*
X4767153Y37230500D01*
X4700114Y37250185D01*
X4679476Y37266815D01*
X4539699Y37406592D01*
X4539698Y37406593D01*
X4539696Y37406595D01*
X4352454Y37550270D01*
X4352453Y37550271D01*
X4352450Y37550273D01*
X4270957Y37597323D01*
X4148056Y37668281D01*
X4148045Y37668286D01*
X3929993Y37758606D01*
X3702010Y37819694D01*
X3468020Y37850499D01*
X3468017Y37850500D01*
X3468011Y37850500D01*
X3231989Y37850500D01*
X3231983Y37850500D01*
X3231979Y37850499D01*
X2997989Y37819694D01*
X2770006Y37758606D01*
X2551954Y37668286D01*
X2551943Y37668281D01*
X2347545Y37550270D01*
X2160302Y37406594D01*
X2160295Y37406588D01*
X1993412Y37239705D01*
X1993406Y37239698D01*
X1849730Y37052455D01*
X1731719Y36848057D01*
X1731714Y36848046D01*
X1641394Y36629994D01*
X1580306Y36402011D01*
X1549501Y36168021D01*
X1549500Y36168005D01*
X113796Y36168005D01*
X73624Y76079200D01*
X70558Y79125962D01*
X5649500Y79125962D01*
X5649500Y78874039D01*
X5688910Y78625215D01*
X5766760Y78385617D01*
X5881132Y78161152D01*
X6025818Y77962008D01*
X6049298Y77896202D01*
X6049500Y77889123D01*
X6049500Y69805514D01*
X6079059Y69618886D01*
X6079059Y69618885D01*
X6093431Y69574653D01*
X6099500Y69536335D01*
X6099500Y68448396D01*
X6114699Y68294068D01*
X6144734Y68195056D01*
X6174768Y68096046D01*
X6272315Y67913550D01*
X6281827Y67901960D01*
X6403589Y67753590D01*
X6500209Y67674298D01*
X6563550Y67622315D01*
X6746046Y67524768D01*
X6944066Y67464700D01*
X6944065Y67464700D01*
X6982647Y67460900D01*
X7098392Y67449500D01*
X7098395Y67449500D01*
X8701605Y67449500D01*
X8701608Y67449500D01*
X8855934Y67464700D01*
X9053954Y67524768D01*
X9236450Y67622315D01*
X9396410Y67753590D01*
X9527685Y67913550D01*
X9539388Y67935445D01*
X9565317Y67983953D01*
X9614279Y68033797D01*
X9674675Y68049500D01*
X16301374Y68049500D01*
X16368413Y68029815D01*
X16389055Y68013181D01*
X18663181Y65739055D01*
X18696666Y65677732D01*
X18699500Y65651374D01*
X18699500Y48284500D01*
X18679815Y48217461D01*
X18627011Y48171706D01*
X18575500Y48160500D01*
X17545811Y48160500D01*
X17478772Y48180185D01*
X17472926Y48184182D01*
X17332642Y48286104D01*
X17332641Y48286105D01*
X17332639Y48286106D01*
X17115185Y48396904D01*
X16883076Y48472321D01*
X16883074Y48472322D01*
X16883072Y48472322D01*
X16714769Y48498979D01*
X16642027Y48510500D01*
X15397973Y48510500D01*
X15342093Y48501650D01*
X15156927Y48472322D01*
X14924812Y48396903D01*
X14707357Y48286104D01*
X14509923Y48142661D01*
X14509918Y48142657D01*
X14337343Y47970082D01*
X14337339Y47970077D01*
X14193896Y47772643D01*
X14083097Y47555188D01*
X14007678Y47323073D01*
X13969500Y47082027D01*
X13969500Y46837974D01*
X14005818Y46608670D01*
X14007679Y46596924D01*
X14083096Y46364815D01*
X14181879Y46170941D01*
X14193896Y46147358D01*
X14337339Y45949924D01*
X14337343Y45949919D01*
X14509918Y45777344D01*
X14509923Y45777340D01*
X14704898Y45635684D01*
X14707361Y45633894D01*
X14751795Y45611254D01*
X14802590Y45563281D01*
X14819500Y45500770D01*
X14819500Y42535514D01*
X14849059Y42348882D01*
X14907454Y42169164D01*
X14967355Y42051603D01*
X14993240Y42000801D01*
X15104310Y41847927D01*
X15237927Y41714310D01*
X15390801Y41603240D01*
X15470347Y41562710D01*
X15559163Y41517455D01*
X15559165Y41517455D01*
X15559168Y41517453D01*
X15646220Y41489168D01*
X15738881Y41459060D01*
X15925514Y41429500D01*
X15925519Y41429500D01*
X18821374Y41429500D01*
X18850814Y41420856D01*
X18880801Y41414332D01*
X18885816Y41410578D01*
X18888413Y41409815D01*
X18909055Y41393181D01*
X18926225Y41376011D01*
X18959710Y41314688D01*
X18961483Y41272145D01*
X18949500Y41181121D01*
X18949500Y40918873D01*
X18965546Y40797000D01*
X18983730Y40658884D01*
X19051602Y40405582D01*
X19051605Y40405572D01*
X19151953Y40163310D01*
X19151958Y40163300D01*
X19283075Y39936197D01*
X19442718Y39728149D01*
X19442726Y39728140D01*
X19628140Y39542726D01*
X19628148Y39542719D01*
X19836196Y39383076D01*
X20063299Y39251959D01*
X20063309Y39251954D01*
X20305571Y39151606D01*
X20305581Y39151602D01*
X20558884Y39083730D01*
X20818880Y39049500D01*
X20818887Y39049500D01*
X21081113Y39049500D01*
X21081120Y39049500D01*
X21341116Y39083730D01*
X21594419Y39151602D01*
X21771340Y39224886D01*
X21836690Y39251954D01*
X21836691Y39251955D01*
X21836697Y39251957D01*
X22063803Y39383076D01*
X22271851Y39542718D01*
X22271855Y39542723D01*
X22271860Y39542726D01*
X22457274Y39728140D01*
X22457277Y39728145D01*
X22457282Y39728149D01*
X22616924Y39936197D01*
X22748043Y40163303D01*
X22848398Y40405581D01*
X22916270Y40658884D01*
X22950500Y40918880D01*
X22950500Y41181120D01*
X22916270Y41441116D01*
X22848398Y41694419D01*
X22827662Y41744481D01*
X22748046Y41936691D01*
X22748041Y41936701D01*
X22616924Y42163804D01*
X22457281Y42371852D01*
X22457274Y42371860D01*
X22271860Y42557274D01*
X22271851Y42557282D01*
X22063803Y42716925D01*
X21836700Y42848042D01*
X21836690Y42848047D01*
X21594428Y42948395D01*
X21594421Y42948397D01*
X21594419Y42948398D01*
X21341116Y43016270D01*
X21283339Y43023877D01*
X21081127Y43050500D01*
X21081120Y43050500D01*
X20818880Y43050500D01*
X20818879Y43050500D01*
X20727855Y43038517D01*
X20658819Y43049283D01*
X20623989Y43073775D01*
X20152076Y43545688D01*
X20152074Y43545690D01*
X19999199Y43656760D01*
X19984499Y43664250D01*
X19830836Y43742546D01*
X19651118Y43800941D01*
X19464486Y43830500D01*
X19464481Y43830500D01*
X17344500Y43830500D01*
X17277461Y43850185D01*
X17231706Y43902989D01*
X17220500Y43954500D01*
X17220500Y45500770D01*
X17222723Y45508342D01*
X17221455Y45516131D01*
X17232427Y45541392D01*
X17240185Y45567809D01*
X17246855Y45574606D01*
X17249293Y45580216D01*
X17263434Y45591497D01*
X17275532Y45603821D01*
X17281641Y45607910D01*
X17332639Y45633894D01*
X17474866Y45737228D01*
X17476843Y45738551D01*
X17507996Y45748332D01*
X17538732Y45759298D01*
X17543348Y45759430D01*
X17543505Y45759479D01*
X17543653Y45759439D01*
X17545811Y45759500D01*
X19994486Y45759500D01*
X20181118Y45789060D01*
X20360832Y45847453D01*
X20529199Y45933240D01*
X20682073Y46044310D01*
X20815690Y46177927D01*
X20926760Y46330801D01*
X21012547Y46499168D01*
X21070940Y46678882D01*
X21090881Y46804785D01*
X21100500Y46865514D01*
X21100500Y49614742D01*
X30929500Y49614742D01*
X30929500Y49385259D01*
X30952491Y49210635D01*
X30959452Y49157762D01*
X31018842Y48936113D01*
X31106650Y48724124D01*
X31106656Y48724112D01*
X31181074Y48595215D01*
X31221392Y48525383D01*
X31361081Y48343339D01*
X31361089Y48343330D01*
X31523330Y48181089D01*
X31523338Y48181082D01*
X31705382Y48041393D01*
X31705385Y48041392D01*
X31705388Y48041389D01*
X31904112Y47926656D01*
X31904117Y47926654D01*
X31904123Y47926651D01*
X31995480Y47888810D01*
X32116113Y47838842D01*
X32337762Y47779452D01*
X32565266Y47749500D01*
X32565273Y47749500D01*
X32794727Y47749500D01*
X32794734Y47749500D01*
X33022238Y47779452D01*
X33243887Y47838842D01*
X33455888Y47926656D01*
X33654612Y48041389D01*
X33836661Y48181081D01*
X33836665Y48181086D01*
X33836670Y48181089D01*
X33998911Y48343330D01*
X33998914Y48343335D01*
X33998919Y48343339D01*
X34138611Y48525388D01*
X34253344Y48724112D01*
X34341158Y48936113D01*
X34400548Y49157762D01*
X34430500Y49385266D01*
X34430500Y49614734D01*
X34400548Y49842238D01*
X34341158Y50063887D01*
X34286159Y50196666D01*
X34253349Y50275877D01*
X34253346Y50275883D01*
X34253344Y50275888D01*
X34138611Y50474612D01*
X34138608Y50474615D01*
X34138607Y50474618D01*
X33998918Y50656662D01*
X33998911Y50656670D01*
X33836670Y50818911D01*
X33836661Y50818919D01*
X33654617Y50958608D01*
X33455890Y51073343D01*
X33455876Y51073350D01*
X33243887Y51161158D01*
X33022238Y51220548D01*
X32984215Y51225554D01*
X32794741Y51250500D01*
X32794734Y51250500D01*
X32565266Y51250500D01*
X32565258Y51250500D01*
X32348715Y51221991D01*
X32337762Y51220548D01*
X32299512Y51210299D01*
X32116112Y51161158D01*
X31904123Y51073350D01*
X31904109Y51073343D01*
X31705382Y50958608D01*
X31523338Y50818919D01*
X31361081Y50656662D01*
X31221392Y50474618D01*
X31106657Y50275891D01*
X31106650Y50275877D01*
X31018842Y50063888D01*
X30959453Y49842241D01*
X30959451Y49842230D01*
X30929500Y49614742D01*
X21100500Y49614742D01*
X21100500Y57286335D01*
X21106569Y57324653D01*
X21107503Y57327529D01*
X21120940Y57368882D01*
X21134077Y57451832D01*
X21150500Y57555514D01*
X21150500Y65601376D01*
X21170185Y65668415D01*
X21186814Y65689052D01*
X22381522Y66883761D01*
X22442843Y66917244D01*
X22512535Y66912260D01*
X22525492Y66906565D01*
X22546855Y66895680D01*
X22596423Y66870423D01*
X22596425Y66870423D01*
X22596428Y66870421D01*
X22843507Y66790140D01*
X22975706Y66769203D01*
X23100098Y66749500D01*
X23100103Y66749500D01*
X23359902Y66749500D01*
X23473298Y66767461D01*
X23616493Y66790140D01*
X23863572Y66870421D01*
X24095051Y66988366D01*
X24305229Y67141069D01*
X24327341Y67163181D01*
X24354268Y67177885D01*
X24380087Y67194477D01*
X24386287Y67195369D01*
X24388664Y67196666D01*
X24415022Y67199500D01*
X24584978Y67199500D01*
X24652017Y67179815D01*
X24672659Y67163181D01*
X24694771Y67141069D01*
X24904949Y66988366D01*
X25044533Y66917244D01*
X25136423Y66870423D01*
X25136425Y66870423D01*
X25136428Y66870421D01*
X25383507Y66790140D01*
X25515706Y66769203D01*
X25640098Y66749500D01*
X25640103Y66749500D01*
X25899902Y66749500D01*
X26013298Y66767461D01*
X26156493Y66790140D01*
X26403572Y66870421D01*
X26635051Y66988366D01*
X26845229Y67141069D01*
X27028931Y67324771D01*
X27181634Y67534949D01*
X27299579Y67766428D01*
X27379860Y68013507D01*
X27402539Y68156702D01*
X27420500Y68270098D01*
X27420500Y68529903D01*
X27398947Y68665979D01*
X27379860Y68786493D01*
X27299579Y69033572D01*
X27299577Y69033575D01*
X27299577Y69033577D01*
X27256787Y69117555D01*
X27181634Y69265051D01*
X27028931Y69475229D01*
X26921841Y69582319D01*
X26917502Y69590265D01*
X26910255Y69595690D01*
X26901020Y69620450D01*
X26888356Y69643642D01*
X26889001Y69652672D01*
X26885838Y69661154D01*
X26891454Y69686975D01*
X26893340Y69713334D01*
X26899158Y69722388D01*
X26900690Y69729427D01*
X26921841Y69757681D01*
X26952319Y69788159D01*
X27013642Y69821644D01*
X27083334Y69816660D01*
X27127681Y69788159D01*
X27234771Y69681069D01*
X27444949Y69528366D01*
X27579136Y69459994D01*
X27676423Y69410423D01*
X27676425Y69410423D01*
X27676428Y69410421D01*
X27923507Y69330140D01*
X28055706Y69309203D01*
X28180098Y69289500D01*
X28180103Y69289500D01*
X28439902Y69289500D01*
X28553298Y69307461D01*
X28696493Y69330140D01*
X28943572Y69410421D01*
X29175051Y69528366D01*
X29385229Y69681069D01*
X29492319Y69788159D01*
X29500264Y69792498D01*
X29505691Y69799746D01*
X29530450Y69808981D01*
X29553642Y69821644D01*
X29562672Y69820999D01*
X29571156Y69824162D01*
X29596974Y69818546D01*
X29623334Y69816660D01*
X29632389Y69810841D01*
X29639429Y69809309D01*
X29667679Y69788161D01*
X29698159Y69757681D01*
X29698160Y69757680D01*
X29731644Y69696356D01*
X29726658Y69626665D01*
X29698159Y69582319D01*
X29591066Y69475226D01*
X29438368Y69265055D01*
X29320422Y69033577D01*
X29240140Y68786494D01*
X29199500Y68529903D01*
X29199500Y68270098D01*
X29240140Y68013507D01*
X29320422Y67766424D01*
X29438368Y67534946D01*
X29591066Y67324775D01*
X29591071Y67324769D01*
X29613181Y67302659D01*
X29646666Y67241336D01*
X29649500Y67214978D01*
X29649500Y63255514D01*
X29679059Y63068882D01*
X29737454Y62889164D01*
X29823240Y62720801D01*
X29934310Y62567926D01*
X36867926Y55634310D01*
X37020801Y55523240D01*
X37189168Y55437453D01*
X37368882Y55379060D01*
X37431092Y55369207D01*
X37555513Y55349500D01*
X37555518Y55349500D01*
X37555519Y55349500D01*
X46525500Y55349500D01*
X46592539Y55329815D01*
X46638294Y55277011D01*
X46649500Y55225500D01*
X46649500Y52605617D01*
X46629815Y52538578D01*
X46577011Y52492823D01*
X46507853Y52482879D01*
X46444297Y52511904D01*
X46425182Y52532732D01*
X46332660Y52660077D01*
X46332656Y52660082D01*
X46160081Y52832657D01*
X46160076Y52832661D01*
X45962642Y52976104D01*
X45962641Y52976105D01*
X45962639Y52976106D01*
X45745185Y53086904D01*
X45513076Y53162321D01*
X45513074Y53162322D01*
X45513072Y53162322D01*
X45344769Y53188979D01*
X45272027Y53200500D01*
X45027973Y53200500D01*
X44972093Y53191650D01*
X44786927Y53162322D01*
X44554812Y53086903D01*
X44337357Y52976104D01*
X44139923Y52832661D01*
X44139918Y52832657D01*
X43967343Y52660082D01*
X43967339Y52660077D01*
X43823896Y52462643D01*
X43713097Y52245188D01*
X43637678Y52013073D01*
X43633976Y51989698D01*
X43604046Y51926563D01*
X43544735Y51889632D01*
X43474872Y51890630D01*
X43416640Y51929240D01*
X43393572Y51970778D01*
X43336904Y52145185D01*
X43226106Y52362639D01*
X43102527Y52532732D01*
X43082660Y52560077D01*
X43082656Y52560082D01*
X42910081Y52732657D01*
X42910076Y52732661D01*
X42712642Y52876104D01*
X42712641Y52876105D01*
X42712639Y52876106D01*
X42495185Y52986904D01*
X42263076Y53062321D01*
X42263074Y53062322D01*
X42263072Y53062322D01*
X42094769Y53088979D01*
X42022027Y53100500D01*
X41777973Y53100500D01*
X41722093Y53091650D01*
X41536927Y53062322D01*
X41304812Y52986903D01*
X41087357Y52876104D01*
X40889923Y52732661D01*
X40889918Y52732657D01*
X40717343Y52560082D01*
X40717339Y52560077D01*
X40573896Y52362643D01*
X40463097Y52145188D01*
X40387678Y51913073D01*
X40349500Y51672027D01*
X40349500Y51427974D01*
X40383976Y51210299D01*
X40387679Y51186924D01*
X40463096Y50954815D01*
X40573894Y50737361D01*
X40675819Y50597074D01*
X40699298Y50531270D01*
X40699500Y50524190D01*
X40699500Y42198626D01*
X40679815Y42131587D01*
X40663181Y42110945D01*
X31084312Y32532077D01*
X31084307Y32532071D01*
X30994935Y32409061D01*
X30994935Y32409060D01*
X30973240Y32379199D01*
X30973238Y32379196D01*
X30887454Y32210837D01*
X30829059Y32031119D01*
X30799500Y31844487D01*
X30799500Y28897409D01*
X30779815Y28830370D01*
X30727011Y28784615D01*
X30716460Y28780370D01*
X30674928Y28765837D01*
X30560478Y28725790D01*
X30407737Y28629816D01*
X30280184Y28502263D01*
X30184211Y28349524D01*
X30124631Y28179255D01*
X30124630Y28179250D01*
X30109500Y28044961D01*
X30109500Y26255040D01*
X30124630Y26120751D01*
X30124631Y26120746D01*
X30184211Y25950477D01*
X30221538Y25891072D01*
X30280184Y25797738D01*
X30407738Y25670184D01*
X30560478Y25574211D01*
X30667098Y25536903D01*
X30730745Y25514632D01*
X30730750Y25514631D01*
X30821246Y25504435D01*
X30865040Y25499501D01*
X30865043Y25499500D01*
X30865046Y25499500D01*
X32654957Y25499500D01*
X32654958Y25499501D01*
X32722104Y25507066D01*
X32789249Y25514631D01*
X32789252Y25514632D01*
X32789255Y25514632D01*
X32959522Y25574211D01*
X33112262Y25670184D01*
X33212655Y25770577D01*
X33273978Y25804062D01*
X33343670Y25799078D01*
X33373218Y25783217D01*
X33434949Y25738366D01*
X33544312Y25682643D01*
X33666423Y25620423D01*
X33666425Y25620423D01*
X33666428Y25620421D01*
X33913507Y25540140D01*
X34045706Y25519203D01*
X34170098Y25499500D01*
X34170103Y25499500D01*
X34429902Y25499500D01*
X34543298Y25517461D01*
X34686493Y25540140D01*
X34933572Y25620421D01*
X35165051Y25738366D01*
X35375229Y25891069D01*
X35482319Y25998159D01*
X35543642Y26031644D01*
X35613334Y26026660D01*
X35657681Y25998159D01*
X35764771Y25891069D01*
X35974949Y25738366D01*
X36108761Y25670185D01*
X36206423Y25620423D01*
X36206425Y25620423D01*
X36206428Y25620421D01*
X36453507Y25540140D01*
X36585706Y25519203D01*
X36710098Y25499500D01*
X36710103Y25499500D01*
X36969902Y25499500D01*
X37083298Y25517461D01*
X37226493Y25540140D01*
X37473572Y25620421D01*
X37705051Y25738366D01*
X37915229Y25891069D01*
X38098931Y26074771D01*
X38251634Y26284949D01*
X38369579Y26516428D01*
X38449860Y26763507D01*
X38472539Y26906702D01*
X38490500Y27020098D01*
X38490500Y27279903D01*
X38468947Y27415979D01*
X38449860Y27536493D01*
X38369579Y27783572D01*
X38369577Y27783575D01*
X38369577Y27783577D01*
X38326787Y27867555D01*
X38251634Y28015051D01*
X38098931Y28225229D01*
X38076819Y28247341D01*
X38043334Y28308664D01*
X38040500Y28335022D01*
X38040500Y28841374D01*
X38060185Y28908413D01*
X38076819Y28929055D01*
X43408071Y34260307D01*
X48765690Y39617926D01*
X48876760Y39770801D01*
X48962547Y39939168D01*
X49020940Y40118882D01*
X49034077Y40201832D01*
X49050500Y40305513D01*
X49050500Y55175500D01*
X49070185Y55242539D01*
X49122989Y55288294D01*
X49174500Y55299500D01*
X60445743Y55299500D01*
X60512782Y55279815D01*
X60558537Y55227011D01*
X60568481Y55157853D01*
X60539456Y55094297D01*
X60518628Y55075182D01*
X60367926Y54965690D01*
X60367924Y54965688D01*
X60367923Y54965688D01*
X58804312Y53402077D01*
X58804307Y53402071D01*
X58739586Y53312989D01*
X58724734Y53292547D01*
X58708987Y53270873D01*
X58693240Y53249200D01*
X58607454Y53080837D01*
X58549059Y52901119D01*
X58519500Y52714487D01*
X58519500Y33844022D01*
X58499815Y33776983D01*
X58447011Y33731228D01*
X58377853Y33721284D01*
X58314297Y33750309D01*
X58307819Y33756341D01*
X58255231Y33808929D01*
X58255225Y33808934D01*
X58045054Y33961632D01*
X58045053Y33961633D01*
X58045051Y33961634D01*
X57972764Y33998466D01*
X57813576Y34079578D01*
X57566493Y34159860D01*
X57309902Y34200500D01*
X57309897Y34200500D01*
X57050103Y34200500D01*
X57050098Y34200500D01*
X56793506Y34159860D01*
X56546423Y34079578D01*
X56314945Y33961632D01*
X56104774Y33808934D01*
X56104768Y33808929D01*
X55921071Y33625232D01*
X55921066Y33625226D01*
X55768368Y33415055D01*
X55650422Y33183577D01*
X55570140Y32936494D01*
X55529500Y32679903D01*
X55529500Y32420098D01*
X55570140Y32163507D01*
X55650422Y31916424D01*
X55768368Y31684946D01*
X55921066Y31474775D01*
X55921071Y31474769D01*
X55943181Y31452659D01*
X55976666Y31391336D01*
X55979500Y31364978D01*
X55979500Y25447250D01*
X55977958Y25442001D01*
X55979045Y25436640D01*
X55968219Y25408835D01*
X55959815Y25380211D01*
X55955155Y25375278D01*
X55953697Y25371531D01*
X55928386Y25346933D01*
X55897074Y25324183D01*
X55831268Y25300702D01*
X55824188Y25300500D01*
X53555514Y25300500D01*
X53368881Y25270941D01*
X53189163Y25212546D01*
X53020800Y25126760D01*
X52867923Y25015688D01*
X50139055Y22286819D01*
X50077732Y22253334D01*
X50051374Y22250500D01*
X32098626Y22250500D01*
X32031587Y22270185D01*
X32010945Y22286819D01*
X28286819Y26010945D01*
X28253334Y26072268D01*
X28250500Y26098626D01*
X28250500Y35051376D01*
X28270185Y35118415D01*
X28286814Y35139052D01*
X32225451Y39077690D01*
X32286772Y39111173D01*
X32349123Y39108669D01*
X32494067Y39064700D01*
X32494066Y39064700D01*
X32504970Y39063627D01*
X32648393Y39049500D01*
X34651606Y39049501D01*
X34805933Y39064700D01*
X35003954Y39124769D01*
X35019279Y39132960D01*
X35186448Y39222314D01*
X35186447Y39222314D01*
X35186450Y39222315D01*
X35346410Y39353590D01*
X35477685Y39513550D01*
X35572524Y39690981D01*
X35575229Y39696042D01*
X35575229Y39696043D01*
X35575231Y39696046D01*
X35635300Y39894067D01*
X35650500Y40048393D01*
X35650499Y42051606D01*
X35635300Y42205933D01*
X35575231Y42403954D01*
X35575229Y42403957D01*
X35575229Y42403959D01*
X35477686Y42586449D01*
X35477684Y42586451D01*
X35346410Y42746411D01*
X35186450Y42877685D01*
X35186448Y42877687D01*
X35003958Y42975230D01*
X34904943Y43005266D01*
X34805933Y43035300D01*
X34805931Y43035301D01*
X34805933Y43035301D01*
X34695220Y43046205D01*
X34651607Y43050500D01*
X34651603Y43050500D01*
X32648397Y43050500D01*
X32494068Y43035301D01*
X32296041Y42975230D01*
X32113551Y42877687D01*
X32113549Y42877685D01*
X31953589Y42746411D01*
X31822315Y42586451D01*
X31822313Y42586449D01*
X31724770Y42403959D01*
X31664699Y42205932D01*
X31649500Y42051604D01*
X31649500Y41948626D01*
X31629815Y41881587D01*
X31613181Y41860945D01*
X26134310Y36382075D01*
X26082759Y36311119D01*
X26082758Y36311118D01*
X26023240Y36229200D01*
X25937454Y36060837D01*
X25879059Y35881119D01*
X25849500Y35694487D01*
X25849500Y25455514D01*
X25879059Y25268882D01*
X25937454Y25089164D01*
X26023240Y24920801D01*
X26134310Y24767926D01*
X30767926Y20134310D01*
X30920801Y20023240D01*
X31089168Y19937453D01*
X31268882Y19879060D01*
X31338870Y19867975D01*
X31455513Y19849500D01*
X31455518Y19849500D01*
X50694486Y19849500D01*
X50881118Y19879060D01*
X51060832Y19937453D01*
X51229199Y20023240D01*
X51382074Y20134310D01*
X54110945Y22863181D01*
X54172268Y22896666D01*
X54198626Y22899500D01*
X55824189Y22899500D01*
X55844609Y22893504D01*
X55865859Y22892289D01*
X55887329Y22880960D01*
X55891228Y22879815D01*
X55897074Y22875818D01*
X55996685Y22803447D01*
X56039351Y22748118D01*
X56047800Y22703129D01*
X56047800Y11249326D01*
X56028115Y11182287D01*
X55975311Y11136532D01*
X55906153Y11126588D01*
X55842597Y11155613D01*
X55836119Y11161645D01*
X55386819Y11610945D01*
X55353334Y11672268D01*
X55350500Y11698626D01*
X55350500Y19174190D01*
X55370185Y19241229D01*
X55374164Y19247051D01*
X55476106Y19387361D01*
X55586904Y19604815D01*
X55662321Y19836924D01*
X55700500Y20077973D01*
X55700500Y20322027D01*
X55662321Y20563076D01*
X55586904Y20795185D01*
X55476106Y21012639D01*
X55457779Y21037864D01*
X55332660Y21210077D01*
X55332656Y21210082D01*
X55160081Y21382657D01*
X55160076Y21382661D01*
X54962642Y21526104D01*
X54962641Y21526105D01*
X54962639Y21526106D01*
X54745185Y21636904D01*
X54513076Y21712321D01*
X54513074Y21712322D01*
X54513072Y21712322D01*
X54344769Y21738979D01*
X54272027Y21750500D01*
X54027973Y21750500D01*
X53972093Y21741650D01*
X53786927Y21712322D01*
X53554812Y21636903D01*
X53337357Y21526104D01*
X53139923Y21382661D01*
X53139918Y21382657D01*
X52967343Y21210082D01*
X52967339Y21210077D01*
X52823896Y21012643D01*
X52713097Y20795188D01*
X52637678Y20563073D01*
X52599500Y20322027D01*
X52599500Y20077974D01*
X52629759Y19886924D01*
X52637679Y19836924D01*
X52713096Y19604815D01*
X52823894Y19387361D01*
X52925819Y19247074D01*
X52949298Y19181270D01*
X52949500Y19174190D01*
X52949500Y11055514D01*
X52979059Y10868882D01*
X53037454Y10689164D01*
X53065080Y10634946D01*
X53123240Y10520801D01*
X53234310Y10367926D01*
X54345949Y9256287D01*
X55407143Y8195094D01*
X55440628Y8133771D01*
X55435644Y8064079D01*
X55393772Y8008146D01*
X55360417Y7990372D01*
X55141588Y7913800D01*
X54888557Y7791947D01*
X54650753Y7642524D01*
X54431175Y7467417D01*
X54232583Y7268825D01*
X54057476Y7049247D01*
X53908053Y6811443D01*
X53786200Y6558412D01*
X53693443Y6293330D01*
X53693439Y6293318D01*
X53630945Y6019513D01*
X53630942Y6019495D01*
X53599500Y5740432D01*
X53599500Y5459569D01*
X53630942Y5180506D01*
X53630945Y5180488D01*
X53693439Y4906683D01*
X53693443Y4906671D01*
X53786200Y4641589D01*
X53908053Y4388558D01*
X53913122Y4380491D01*
X54057477Y4150752D01*
X54232584Y3931175D01*
X54431175Y3732584D01*
X54650752Y3557477D01*
X54888555Y3408055D01*
X55141592Y3286199D01*
X55340680Y3216535D01*
X55406670Y3193444D01*
X55406682Y3193440D01*
X55680491Y3130945D01*
X55680497Y3130945D01*
X55680505Y3130943D01*
X55866547Y3109982D01*
X55959569Y3099501D01*
X55959572Y3099500D01*
X55959575Y3099500D01*
X56240428Y3099500D01*
X56240429Y3099501D01*
X56383055Y3115571D01*
X56519494Y3130943D01*
X56519499Y3130944D01*
X56519509Y3130945D01*
X56793318Y3193440D01*
X57058408Y3286199D01*
X57311445Y3408055D01*
X57549248Y3557477D01*
X57768825Y3732584D01*
X57967416Y3931175D01*
X58142523Y4150752D01*
X58291945Y4388555D01*
X58413801Y4641592D01*
X58506560Y4906682D01*
X58514263Y4940432D01*
X60349500Y4940432D01*
X60349500Y4659569D01*
X60380942Y4380506D01*
X60380945Y4380488D01*
X60443439Y4106683D01*
X60443443Y4106671D01*
X60536200Y3841589D01*
X60658053Y3588558D01*
X60658055Y3588555D01*
X60807477Y3350752D01*
X60982584Y3131175D01*
X61181175Y2932584D01*
X61400752Y2757477D01*
X61638555Y2608055D01*
X61891592Y2486199D01*
X62090680Y2416535D01*
X62156670Y2393444D01*
X62156682Y2393440D01*
X62430491Y2330945D01*
X62430497Y2330945D01*
X62430505Y2330943D01*
X62616547Y2309982D01*
X62709569Y2299501D01*
X62709572Y2299500D01*
X62709575Y2299500D01*
X62990428Y2299500D01*
X62990429Y2299501D01*
X63133055Y2315571D01*
X63269494Y2330943D01*
X63269499Y2330944D01*
X63269509Y2330945D01*
X63543318Y2393440D01*
X63808408Y2486199D01*
X64061445Y2608055D01*
X64299248Y2757477D01*
X64518825Y2932584D01*
X64717416Y3131175D01*
X64892523Y3350752D01*
X65041945Y3588555D01*
X65163801Y3841592D01*
X65256560Y4106682D01*
X65319055Y4380491D01*
X65350500Y4659575D01*
X65350500Y4940425D01*
X65323452Y5180488D01*
X65319057Y5219495D01*
X65319054Y5219513D01*
X65256560Y5493318D01*
X65256556Y5493330D01*
X65233465Y5559320D01*
X65163801Y5758408D01*
X65041945Y6011445D01*
X64892523Y6249248D01*
X64717416Y6468825D01*
X64518825Y6667416D01*
X64299248Y6842523D01*
X64061445Y6991945D01*
X64061442Y6991947D01*
X63808411Y7113800D01*
X63543329Y7206557D01*
X63543317Y7206561D01*
X63269512Y7269055D01*
X63269494Y7269058D01*
X62990431Y7300500D01*
X62990425Y7300500D01*
X62709575Y7300500D01*
X62709568Y7300500D01*
X62430505Y7269058D01*
X62430487Y7269055D01*
X62156682Y7206561D01*
X62156670Y7206557D01*
X61891588Y7113800D01*
X61638557Y6991947D01*
X61400753Y6842524D01*
X61181175Y6667417D01*
X60982583Y6468825D01*
X60807476Y6249247D01*
X60658053Y6011443D01*
X60536200Y5758412D01*
X60443443Y5493330D01*
X60443439Y5493318D01*
X60380945Y5219513D01*
X60380942Y5219495D01*
X60349500Y4940432D01*
X58514263Y4940432D01*
X58569055Y5180491D01*
X58600500Y5459575D01*
X58600500Y5740425D01*
X58569055Y6019509D01*
X58506560Y6293318D01*
X58413801Y6558408D01*
X58291945Y6811445D01*
X58142523Y7049248D01*
X58023748Y7198187D01*
X58017947Y7212395D01*
X58007901Y7223989D01*
X58005012Y7244079D01*
X57997339Y7262874D01*
X58000140Y7277961D01*
X57997957Y7293147D01*
X58006390Y7311613D01*
X58010096Y7331569D01*
X58020607Y7342745D01*
X58026982Y7356703D01*
X58044059Y7367678D01*
X58057966Y7382463D01*
X58073726Y7386744D01*
X58085760Y7394477D01*
X58120695Y7399500D01*
X58190382Y7399500D01*
X58257421Y7379815D01*
X58291099Y7345409D01*
X58292085Y7346125D01*
X58419890Y7170214D01*
X58570213Y7019891D01*
X58742179Y6894952D01*
X58742181Y6894951D01*
X58742184Y6894949D01*
X58931588Y6798443D01*
X59133757Y6732754D01*
X59343713Y6699500D01*
X59343714Y6699500D01*
X59556286Y6699500D01*
X59556287Y6699500D01*
X59766243Y6732754D01*
X59968412Y6798443D01*
X60157816Y6894949D01*
X60179789Y6910914D01*
X60329786Y7019891D01*
X60329788Y7019894D01*
X60329792Y7019896D01*
X60480104Y7170208D01*
X60480106Y7170212D01*
X60480109Y7170214D01*
X60605048Y7342180D01*
X60605047Y7342180D01*
X60605051Y7342184D01*
X60701557Y7531588D01*
X60767246Y7733757D01*
X60800500Y7943713D01*
X60800500Y9256287D01*
X60767246Y9466243D01*
X60701557Y9668412D01*
X60630949Y9806988D01*
X60618054Y9875654D01*
X60644330Y9940394D01*
X60668549Y9963598D01*
X60762365Y10031758D01*
X60918242Y10187635D01*
X61047815Y10365978D01*
X61147895Y10562394D01*
X61216015Y10772049D01*
X61250500Y10989778D01*
X61250500Y11210222D01*
X61216015Y11427951D01*
X61147895Y11637606D01*
X61147895Y11637607D01*
X61089405Y11752397D01*
X61047815Y11834022D01*
X61031260Y11856808D01*
X60918247Y12012359D01*
X60918243Y12012364D01*
X60762363Y12168244D01*
X60762358Y12168248D01*
X60584025Y12297813D01*
X60584024Y12297814D01*
X60584022Y12297815D01*
X60521096Y12329878D01*
X60387606Y12397896D01*
X60387603Y12397897D01*
X60177952Y12466015D01*
X60069086Y12483258D01*
X59960222Y12500500D01*
X58939778Y12500500D01*
X58896232Y12493603D01*
X58722045Y12466015D01*
X58611117Y12429973D01*
X58541276Y12427978D01*
X58481443Y12464059D01*
X58450616Y12526761D01*
X58448800Y12547904D01*
X58448800Y16864045D01*
X58468485Y16931084D01*
X58521289Y16976839D01*
X58590447Y16986783D01*
X58654003Y16957758D01*
X58683284Y16920341D01*
X58693240Y16900801D01*
X58804310Y16747926D01*
X59267926Y16284310D01*
X59420800Y16173240D01*
X59500348Y16132709D01*
X59589163Y16087455D01*
X59589165Y16087455D01*
X59589168Y16087453D01*
X59685497Y16056154D01*
X59768881Y16029060D01*
X59955514Y15999500D01*
X59955519Y15999500D01*
X67101374Y15999500D01*
X67168413Y15979815D01*
X67189055Y15963181D01*
X67863181Y15289055D01*
X67896666Y15227732D01*
X67899500Y15201374D01*
X67899500Y10298626D01*
X67879815Y10231587D01*
X67863181Y10210945D01*
X67551898Y9899663D01*
X67490575Y9866178D01*
X67420883Y9871162D01*
X67364950Y9913034D01*
X67363899Y9914459D01*
X67280109Y10029786D01*
X67280105Y10029791D01*
X67129786Y10180110D01*
X66957820Y10305049D01*
X66768414Y10401556D01*
X66768413Y10401557D01*
X66768412Y10401557D01*
X66566243Y10467246D01*
X66566241Y10467247D01*
X66566240Y10467247D01*
X66404957Y10492792D01*
X66356287Y10500500D01*
X66143713Y10500500D01*
X66095042Y10492792D01*
X65933760Y10467247D01*
X65731585Y10401556D01*
X65542179Y10305049D01*
X65370213Y10180110D01*
X65219890Y10029787D01*
X65094951Y9857821D01*
X64998444Y9668415D01*
X64932753Y9466240D01*
X64899500Y9256287D01*
X64899500Y7943714D01*
X64932753Y7733761D01*
X64998444Y7531586D01*
X65094951Y7342180D01*
X65219890Y7170214D01*
X65370213Y7019891D01*
X65542179Y6894952D01*
X65542181Y6894951D01*
X65542184Y6894949D01*
X65731588Y6798443D01*
X65933757Y6732754D01*
X66143713Y6699500D01*
X66143714Y6699500D01*
X66356286Y6699500D01*
X66356287Y6699500D01*
X66566243Y6732754D01*
X66768412Y6798443D01*
X66957816Y6894949D01*
X66979789Y6910914D01*
X67129786Y7019891D01*
X67129788Y7019894D01*
X67129792Y7019896D01*
X67280104Y7170208D01*
X67280106Y7170212D01*
X67280109Y7170214D01*
X67407915Y7346125D01*
X67409259Y7345149D01*
X67411591Y7347258D01*
X67415905Y7356703D01*
X67437060Y7370299D01*
X67455705Y7387166D01*
X67467508Y7389867D01*
X67474683Y7394477D01*
X67509618Y7399500D01*
X67579305Y7399500D01*
X67646344Y7379815D01*
X67692099Y7327011D01*
X67702043Y7257853D01*
X67676252Y7198187D01*
X67557476Y7049247D01*
X67408053Y6811443D01*
X67286200Y6558412D01*
X67193443Y6293330D01*
X67193439Y6293318D01*
X67130945Y6019513D01*
X67130942Y6019495D01*
X67099500Y5740432D01*
X67099500Y5459569D01*
X67130942Y5180506D01*
X67130945Y5180488D01*
X67193439Y4906683D01*
X67193443Y4906671D01*
X67286200Y4641589D01*
X67408053Y4388558D01*
X67413122Y4380491D01*
X67557477Y4150752D01*
X67732584Y3931175D01*
X67931175Y3732584D01*
X68150752Y3557477D01*
X68388555Y3408055D01*
X68641592Y3286199D01*
X68840680Y3216535D01*
X68906670Y3193444D01*
X68906682Y3193440D01*
X69180491Y3130945D01*
X69180497Y3130945D01*
X69180505Y3130943D01*
X69366547Y3109982D01*
X69459569Y3099501D01*
X69459572Y3099500D01*
X69459575Y3099500D01*
X69740428Y3099500D01*
X69740429Y3099501D01*
X69883055Y3115571D01*
X70019494Y3130943D01*
X70019499Y3130944D01*
X70019509Y3130945D01*
X70293318Y3193440D01*
X70558408Y3286199D01*
X70811445Y3408055D01*
X71049248Y3557477D01*
X71268825Y3732584D01*
X71362203Y3825962D01*
X94449500Y3825962D01*
X94449500Y3574038D01*
X94484865Y3350754D01*
X94488910Y3325215D01*
X94566760Y3085617D01*
X94681132Y2861152D01*
X94829201Y2657351D01*
X94829205Y2657346D01*
X95007345Y2479206D01*
X95007350Y2479202D01*
X95125387Y2393444D01*
X95211155Y2331130D01*
X95354184Y2258253D01*
X95435616Y2216761D01*
X95435618Y2216761D01*
X95435621Y2216759D01*
X95675215Y2138910D01*
X95924038Y2099500D01*
X95924039Y2099500D01*
X96175961Y2099500D01*
X96175962Y2099500D01*
X96424785Y2138910D01*
X96664379Y2216759D01*
X96888845Y2331130D01*
X97092656Y2479207D01*
X97270793Y2657344D01*
X97418870Y2861155D01*
X97533241Y3085621D01*
X97611090Y3325215D01*
X97650500Y3574038D01*
X97650500Y3825962D01*
X97611090Y4074785D01*
X97533241Y4314379D01*
X97533239Y4314382D01*
X97533239Y4314384D01*
X97491747Y4395816D01*
X97418870Y4538845D01*
X97399952Y4564883D01*
X97270798Y4742650D01*
X97270794Y4742655D01*
X97092654Y4920795D01*
X97092649Y4920799D01*
X96888848Y5068868D01*
X96888847Y5068869D01*
X96888845Y5068870D01*
X96818747Y5104587D01*
X96664383Y5183240D01*
X96424785Y5261090D01*
X96175962Y5300500D01*
X95924038Y5300500D01*
X95799626Y5280795D01*
X95675214Y5261090D01*
X95435616Y5183240D01*
X95211151Y5068868D01*
X95007350Y4920799D01*
X95007345Y4920795D01*
X94829205Y4742655D01*
X94829201Y4742650D01*
X94681132Y4538849D01*
X94566760Y4314384D01*
X94513593Y4150752D01*
X94488910Y4074785D01*
X94449500Y3825962D01*
X71362203Y3825962D01*
X71467416Y3931175D01*
X71642523Y4150752D01*
X71791945Y4388555D01*
X71913801Y4641592D01*
X72006560Y4906682D01*
X72069055Y5180491D01*
X72100500Y5459575D01*
X72100500Y5740425D01*
X72069055Y6019509D01*
X72006560Y6293318D01*
X71913801Y6558408D01*
X71791945Y6811445D01*
X71642523Y7049248D01*
X71467416Y7268825D01*
X71268825Y7467416D01*
X71049248Y7642523D01*
X70811445Y7791945D01*
X70811442Y7791947D01*
X70558411Y7913800D01*
X70293329Y8006557D01*
X70293317Y8006561D01*
X70019512Y8069055D01*
X70019494Y8069058D01*
X69740431Y8100500D01*
X69740425Y8100500D01*
X69459575Y8100500D01*
X69459573Y8100500D01*
X69456099Y8100305D01*
X69456032Y8101493D01*
X69392045Y8112705D01*
X69340669Y8160058D01*
X69323049Y8227669D01*
X69344780Y8294074D01*
X69359310Y8311548D01*
X70015690Y8967927D01*
X70126760Y9120801D01*
X70212547Y9289168D01*
X70270940Y9468882D01*
X70300500Y9655514D01*
X70300500Y15844487D01*
X70270940Y16031119D01*
X70212545Y16210837D01*
X70126759Y16379200D01*
X70098623Y16417926D01*
X70098623Y16417927D01*
X70098621Y16417928D01*
X70065449Y16463586D01*
X70015693Y16532071D01*
X68382076Y18165688D01*
X68382074Y18165690D01*
X68229199Y18276760D01*
X68060832Y18362547D01*
X67881118Y18420940D01*
X67881116Y18420941D01*
X67881115Y18420941D01*
X67724851Y18445690D01*
X67724851Y18445691D01*
X67694482Y18450500D01*
X67694481Y18450500D01*
X67505519Y18450500D01*
X67505514Y18450500D01*
X67318885Y18420941D01*
X67318884Y18420941D01*
X67274653Y18406569D01*
X67236335Y18400500D01*
X61044500Y18400500D01*
X60977461Y18420185D01*
X60931706Y18472989D01*
X60920500Y18524500D01*
X60920500Y19087400D01*
X60940185Y19154439D01*
X60992989Y19200194D01*
X61062147Y19210138D01*
X61125703Y19181113D01*
X61132181Y19175081D01*
X61239918Y19067344D01*
X61239923Y19067340D01*
X61412136Y18942221D01*
X61437361Y18923894D01*
X61654815Y18813096D01*
X61886924Y18737679D01*
X62127973Y18699500D01*
X62127974Y18699500D01*
X62372026Y18699500D01*
X62372027Y18699500D01*
X62613076Y18737679D01*
X62845185Y18813096D01*
X63062639Y18923894D01*
X63260083Y19067345D01*
X63432655Y19239917D01*
X63576106Y19437361D01*
X63686904Y19654815D01*
X63762321Y19886924D01*
X63800500Y20127973D01*
X63800500Y20372027D01*
X63762321Y20613076D01*
X63686904Y20845185D01*
X63576106Y21062639D01*
X63484182Y21189163D01*
X63460702Y21254969D01*
X63460500Y21262048D01*
X63460500Y31364978D01*
X63480185Y31432017D01*
X63496819Y31452659D01*
X63518931Y31474771D01*
X63671634Y31684949D01*
X63789579Y31916428D01*
X63869860Y32163507D01*
X63892539Y32306702D01*
X63910500Y32420098D01*
X63910500Y32679903D01*
X63888947Y32815979D01*
X63869860Y32936493D01*
X63789579Y33183572D01*
X63789577Y33183575D01*
X63789577Y33183577D01*
X63730825Y33298882D01*
X63671634Y33415051D01*
X63518931Y33625229D01*
X63496819Y33647341D01*
X63463334Y33708664D01*
X63460500Y33735022D01*
X63460500Y46411374D01*
X63480185Y46478413D01*
X63496819Y46499055D01*
X64730945Y47733181D01*
X64792268Y47766666D01*
X64818626Y47769500D01*
X67076689Y47769500D01*
X67143728Y47749815D01*
X67189483Y47697011D01*
X67199427Y47627853D01*
X67170402Y47564297D01*
X67164370Y47557819D01*
X67079205Y47472655D01*
X67079201Y47472650D01*
X66931132Y47268849D01*
X66816760Y47044384D01*
X66749693Y46837973D01*
X66738910Y46804785D01*
X66699500Y46555962D01*
X66699500Y46304038D01*
X66720581Y46170941D01*
X66738910Y46055215D01*
X66816760Y45815617D01*
X66848365Y45753590D01*
X66924676Y45603821D01*
X66931132Y45591152D01*
X67079201Y45387351D01*
X67079205Y45387346D01*
X67218870Y45247681D01*
X67252355Y45186358D01*
X67247371Y45116666D01*
X67218870Y45072319D01*
X67079205Y44932655D01*
X67079201Y44932650D01*
X66931132Y44728849D01*
X66816760Y44504384D01*
X66738910Y44264786D01*
X66738910Y44264785D01*
X66699500Y44015962D01*
X66699500Y43764038D01*
X66713961Y43672738D01*
X66738910Y43515215D01*
X66816760Y43275617D01*
X66931132Y43051152D01*
X67079201Y42847351D01*
X67079205Y42847346D01*
X67257345Y42669206D01*
X67257350Y42669202D01*
X67429747Y42543949D01*
X67461155Y42521130D01*
X67576131Y42462547D01*
X67685616Y42406761D01*
X67685618Y42406761D01*
X67685621Y42406759D01*
X67925215Y42328910D01*
X68174038Y42289500D01*
X68174039Y42289500D01*
X69225961Y42289500D01*
X69225962Y42289500D01*
X69474785Y42328910D01*
X69714379Y42406759D01*
X69938845Y42521130D01*
X70142656Y42669207D01*
X70320793Y42847344D01*
X70468870Y43051155D01*
X70583241Y43275621D01*
X70661090Y43515215D01*
X70700500Y43764038D01*
X70700500Y44015962D01*
X70661090Y44264785D01*
X70583241Y44504379D01*
X70583239Y44504382D01*
X70583239Y44504384D01*
X70541747Y44585816D01*
X70468870Y44728845D01*
X70449952Y44754883D01*
X70320798Y44932650D01*
X70320794Y44932655D01*
X70181130Y45072319D01*
X70147645Y45133642D01*
X70152629Y45203334D01*
X70181130Y45247681D01*
X70235630Y45302181D01*
X70320793Y45387344D01*
X70468870Y45591155D01*
X70583241Y45815621D01*
X70661090Y46055215D01*
X70700500Y46304038D01*
X70700500Y46555962D01*
X70661090Y46804785D01*
X70583241Y47044379D01*
X70583239Y47044382D01*
X70583239Y47044384D01*
X70514899Y47178507D01*
X70468870Y47268845D01*
X70429469Y47323076D01*
X70320798Y47472650D01*
X70320794Y47472655D01*
X70181130Y47612319D01*
X70147645Y47673642D01*
X70152629Y47743334D01*
X70181130Y47787681D01*
X70235630Y47842181D01*
X70320793Y47927344D01*
X70468870Y48131155D01*
X70583241Y48355621D01*
X70661090Y48595215D01*
X70700500Y48844038D01*
X70700500Y49095962D01*
X70661090Y49344785D01*
X70583241Y49584379D01*
X70583239Y49584382D01*
X70583239Y49584384D01*
X70541747Y49665816D01*
X70468870Y49808845D01*
X70444606Y49842241D01*
X70320798Y50012650D01*
X70320794Y50012655D01*
X70235630Y50097819D01*
X70202145Y50159142D01*
X70207129Y50228834D01*
X70249001Y50284767D01*
X70314465Y50309184D01*
X70323311Y50309500D01*
X72404486Y50309500D01*
X72591118Y50339060D01*
X72770832Y50397453D01*
X72939199Y50483240D01*
X73092074Y50594310D01*
X74107819Y51610057D01*
X74169142Y51643541D01*
X74238834Y51638557D01*
X74294767Y51596685D01*
X74319184Y51531221D01*
X74319500Y51522375D01*
X74319500Y51384038D01*
X74345395Y51220547D01*
X74358910Y51135215D01*
X74436760Y50895617D01*
X74515413Y50741253D01*
X74542886Y50687334D01*
X74551132Y50671152D01*
X74699201Y50467351D01*
X74699205Y50467346D01*
X74838870Y50327681D01*
X74872355Y50266358D01*
X74867371Y50196666D01*
X74838870Y50152319D01*
X74699205Y50012655D01*
X74699201Y50012650D01*
X74551132Y49808849D01*
X74436760Y49584384D01*
X74358910Y49344786D01*
X74319500Y49095962D01*
X74319500Y48844039D01*
X74358910Y48595215D01*
X74436760Y48355617D01*
X74507155Y48217461D01*
X74545270Y48142655D01*
X74551132Y48131152D01*
X74699201Y47927351D01*
X74699205Y47927346D01*
X74784370Y47842181D01*
X74817855Y47780858D01*
X74812871Y47711166D01*
X74770999Y47655233D01*
X74705535Y47630816D01*
X74696689Y47630500D01*
X73555514Y47630500D01*
X73368881Y47600941D01*
X73189163Y47542546D01*
X73020800Y47456760D01*
X72933579Y47393390D01*
X72867927Y47345690D01*
X72867925Y47345688D01*
X72867924Y47345688D01*
X72734312Y47212076D01*
X72734312Y47212075D01*
X72734310Y47212073D01*
X72709923Y47178507D01*
X72623240Y47059200D01*
X72537454Y46890837D01*
X72479059Y46711119D01*
X72449500Y46524487D01*
X72449500Y39655514D01*
X72479059Y39468882D01*
X72537454Y39289164D01*
X72607546Y39151602D01*
X72623240Y39120801D01*
X72734310Y38967926D01*
X72734311Y38967925D01*
X72734312Y38967924D01*
X79013181Y32689056D01*
X79046666Y32627733D01*
X79049500Y32601375D01*
X79049500Y18210415D01*
X79048888Y18208333D01*
X79049429Y18206231D01*
X79039091Y18174967D01*
X79029815Y18143376D01*
X79028175Y18141956D01*
X79027494Y18139894D01*
X79001886Y18119176D01*
X78977011Y18097621D01*
X78974863Y18097313D01*
X78973176Y18095947D01*
X78940438Y18092363D01*
X78907853Y18087677D01*
X78905879Y18088579D01*
X78903722Y18088342D01*
X78874247Y18103024D01*
X78844297Y18116702D01*
X78842513Y18118832D01*
X78841182Y18119495D01*
X78833998Y18129001D01*
X78818982Y18146933D01*
X78816875Y18150468D01*
X78776760Y18229199D01*
X78742205Y18276760D01*
X78665690Y18382074D01*
X72032074Y25015690D01*
X71879199Y25126760D01*
X71710836Y25212546D01*
X71531118Y25270941D01*
X71344486Y25300500D01*
X71344481Y25300500D01*
X68425811Y25300500D01*
X68358772Y25320185D01*
X68352926Y25324182D01*
X68212642Y25426104D01*
X68212641Y25426105D01*
X68212639Y25426106D01*
X67995185Y25536904D01*
X67763076Y25612321D01*
X67763074Y25612322D01*
X67763072Y25612322D01*
X67594769Y25638979D01*
X67522027Y25650500D01*
X67277973Y25650500D01*
X67239971Y25644481D01*
X67036927Y25612322D01*
X67036924Y25612321D01*
X66814778Y25540141D01*
X66804812Y25536903D01*
X66587357Y25426104D01*
X66389923Y25282661D01*
X66389918Y25282657D01*
X66217343Y25110082D01*
X66217339Y25110077D01*
X66073896Y24912643D01*
X65963097Y24695188D01*
X65887678Y24463073D01*
X65849500Y24222027D01*
X65849500Y23977974D01*
X65869459Y23851955D01*
X65887679Y23736924D01*
X65963096Y23504815D01*
X66070813Y23293407D01*
X66073896Y23287358D01*
X66217339Y23089924D01*
X66217343Y23089919D01*
X66389918Y22917344D01*
X66389923Y22917340D01*
X66483295Y22849502D01*
X66587361Y22773894D01*
X66804815Y22663096D01*
X67036924Y22587679D01*
X67277973Y22549500D01*
X67277974Y22549500D01*
X67522026Y22549500D01*
X67522027Y22549500D01*
X67763076Y22587679D01*
X67995185Y22663096D01*
X68212639Y22773894D01*
X68335532Y22863181D01*
X68352926Y22875818D01*
X68418732Y22899298D01*
X68425811Y22899500D01*
X70701374Y22899500D01*
X70768413Y22879815D01*
X70789055Y22863181D01*
X76513181Y17139055D01*
X76546666Y17077732D01*
X76549500Y17051374D01*
X76549500Y14822940D01*
X76529815Y14755901D01*
X76513181Y14735259D01*
X76470184Y14692263D01*
X76374211Y14539524D01*
X76314631Y14369255D01*
X76314630Y14369250D01*
X76299500Y14234961D01*
X76299500Y11645040D01*
X76314630Y11510751D01*
X76314631Y11510746D01*
X76374211Y11340477D01*
X76448808Y11221758D01*
X76470184Y11187738D01*
X76597738Y11060184D01*
X76684737Y11005519D01*
X76706086Y10992104D01*
X76750478Y10964211D01*
X76920745Y10904632D01*
X76920750Y10904631D01*
X77011246Y10894435D01*
X77055040Y10889501D01*
X77055043Y10889500D01*
X77055046Y10889500D01*
X78444957Y10889500D01*
X78444958Y10889501D01*
X78512104Y10897066D01*
X78579249Y10904631D01*
X78579252Y10904632D01*
X78579255Y10904632D01*
X78749522Y10964211D01*
X78902262Y11060184D01*
X79029816Y11187738D01*
X79079001Y11266016D01*
X79131330Y11312302D01*
X79200384Y11322952D01*
X79264232Y11294577D01*
X79271672Y11287721D01*
X79337636Y11221757D01*
X79337641Y11221753D01*
X79391962Y11182287D01*
X79515978Y11092185D01*
X79644375Y11026763D01*
X79712393Y10992105D01*
X79712396Y10992104D01*
X79798241Y10964212D01*
X79922049Y10923985D01*
X80139778Y10889500D01*
X80139779Y10889500D01*
X80360221Y10889500D01*
X80360222Y10889500D01*
X80577951Y10923985D01*
X80787606Y10992105D01*
X80984022Y11092185D01*
X81162365Y11221758D01*
X81162371Y11221765D01*
X81166061Y11224915D01*
X81166736Y11224125D01*
X81223642Y11255197D01*
X81293334Y11250213D01*
X81333498Y11224400D01*
X81333939Y11224915D01*
X81337641Y11221753D01*
X81391962Y11182287D01*
X81515978Y11092185D01*
X81644375Y11026763D01*
X81712393Y10992105D01*
X81712396Y10992104D01*
X81798241Y10964212D01*
X81922049Y10923985D01*
X82139778Y10889500D01*
X82139779Y10889500D01*
X82360221Y10889500D01*
X82360222Y10889500D01*
X82577951Y10923985D01*
X82787606Y10992105D01*
X82984022Y11092185D01*
X83162365Y11221758D01*
X83318242Y11377635D01*
X83447815Y11555978D01*
X83547895Y11752394D01*
X83616015Y11962049D01*
X83650500Y12179778D01*
X83650500Y13700222D01*
X83616015Y13917951D01*
X83547895Y14127606D01*
X83547895Y14127607D01*
X83464015Y14292229D01*
X83450500Y14348524D01*
X83450500Y39994487D01*
X83420940Y40181119D01*
X83362545Y40360837D01*
X83317290Y40449653D01*
X83276760Y40529199D01*
X83165690Y40682073D01*
X83032073Y40815690D01*
X81582074Y42265690D01*
X81429199Y42376760D01*
X81375818Y42403959D01*
X81275615Y42455015D01*
X81224819Y42502990D01*
X81208024Y42570811D01*
X81230561Y42636946D01*
X81285277Y42680397D01*
X81331910Y42689500D01*
X83282786Y42689500D01*
X83469418Y42719060D01*
X83486102Y42724481D01*
X83649132Y42777453D01*
X83817499Y42863240D01*
X83970374Y42974310D01*
X84631813Y43635751D01*
X84693134Y43669234D01*
X84762825Y43664250D01*
X84807173Y43635749D01*
X84897738Y43545184D01*
X85050478Y43449211D01*
X85220745Y43389632D01*
X85220750Y43389631D01*
X85311246Y43379435D01*
X85355040Y43374501D01*
X85355043Y43374500D01*
X85355046Y43374500D01*
X87144957Y43374500D01*
X87144958Y43374501D01*
X87212104Y43382066D01*
X87279249Y43389631D01*
X87279252Y43389632D01*
X87279255Y43389632D01*
X87449522Y43449211D01*
X87602262Y43545184D01*
X87729816Y43672738D01*
X87825789Y43825478D01*
X87885368Y43995745D01*
X87900500Y44130046D01*
X87900500Y45919954D01*
X87886489Y46044310D01*
X87885369Y46054250D01*
X87885368Y46054255D01*
X87842094Y46177925D01*
X87825789Y46224522D01*
X87729816Y46377262D01*
X87629423Y46477655D01*
X87595938Y46538978D01*
X87600922Y46608670D01*
X87616784Y46638220D01*
X87661634Y46699949D01*
X87779579Y46931428D01*
X87859860Y47178507D01*
X87882757Y47323076D01*
X87900500Y47435098D01*
X87900500Y47694903D01*
X87877173Y47842181D01*
X87859860Y47951493D01*
X87779579Y48198572D01*
X87779577Y48198575D01*
X87779577Y48198577D01*
X87734978Y48286106D01*
X87661634Y48430051D01*
X87508931Y48640229D01*
X87325229Y48823931D01*
X87251243Y48877685D01*
X87115054Y48976632D01*
X87115053Y48976633D01*
X87115051Y48976634D01*
X87042764Y49013466D01*
X86883576Y49094578D01*
X86636493Y49174861D01*
X86410620Y49210635D01*
X86347485Y49240564D01*
X86342337Y49245427D01*
X85772076Y49815688D01*
X85772074Y49815690D01*
X85619199Y49926760D01*
X85450836Y50012546D01*
X85271118Y50070941D01*
X85084486Y50100500D01*
X85084481Y50100500D01*
X77904311Y50100500D01*
X77874870Y50109145D01*
X77844884Y50115668D01*
X77839868Y50119423D01*
X77837272Y50120185D01*
X77816630Y50136819D01*
X77801130Y50152319D01*
X77767645Y50213642D01*
X77772629Y50283334D01*
X77801130Y50327681D01*
X77870904Y50397455D01*
X77940793Y50467344D01*
X78088870Y50671155D01*
X78203241Y50895621D01*
X78281090Y51135215D01*
X78320500Y51384038D01*
X78320500Y51635962D01*
X78281090Y51884785D01*
X78203241Y52124379D01*
X78203239Y52124382D01*
X78203239Y52124384D01*
X78141686Y52245188D01*
X78088870Y52348845D01*
X77991489Y52482879D01*
X77940798Y52552650D01*
X77940794Y52552655D01*
X77801130Y52692319D01*
X77767645Y52753642D01*
X77772629Y52823334D01*
X77801130Y52867681D01*
X77855630Y52922181D01*
X77940793Y53007344D01*
X78088870Y53211155D01*
X78203241Y53435621D01*
X78281090Y53675215D01*
X78320500Y53924038D01*
X78320500Y54175962D01*
X78281090Y54424785D01*
X78203241Y54664379D01*
X78203239Y54664382D01*
X78203239Y54664384D01*
X78161747Y54745816D01*
X78088870Y54888845D01*
X78069952Y54914883D01*
X77940798Y55092650D01*
X77940794Y55092655D01*
X77801130Y55232319D01*
X77767645Y55293642D01*
X77772629Y55363334D01*
X77801130Y55407681D01*
X77830904Y55437455D01*
X77940793Y55547344D01*
X78088870Y55751155D01*
X78203241Y55975621D01*
X78281090Y56215215D01*
X78320500Y56464038D01*
X78320500Y56715962D01*
X78281090Y56964785D01*
X78203241Y57204379D01*
X78203239Y57204382D01*
X78203239Y57204384D01*
X78141958Y57324653D01*
X78088870Y57428845D01*
X78069952Y57454883D01*
X77940798Y57632650D01*
X77940794Y57632655D01*
X77801130Y57772319D01*
X77767645Y57833642D01*
X77772629Y57903334D01*
X77801130Y57947681D01*
X77866128Y58012679D01*
X77940793Y58087344D01*
X78088870Y58291155D01*
X78203241Y58515621D01*
X78281090Y58755215D01*
X78320500Y59004038D01*
X78320500Y59255962D01*
X78281090Y59504785D01*
X78203241Y59744379D01*
X78203239Y59744382D01*
X78203239Y59744384D01*
X78130025Y59888073D01*
X78088870Y59968845D01*
X77989500Y60105617D01*
X77940798Y60172650D01*
X77940794Y60172655D01*
X77762654Y60350795D01*
X77762649Y60350799D01*
X77558848Y60498868D01*
X77558847Y60498869D01*
X77558845Y60498870D01*
X77443418Y60557683D01*
X77334383Y60613240D01*
X77094785Y60691090D01*
X77064946Y60695816D01*
X76845962Y60730500D01*
X75794038Y60730500D01*
X75698076Y60715301D01*
X75545214Y60691090D01*
X75305616Y60613240D01*
X75081151Y60498868D01*
X74877350Y60350799D01*
X74877345Y60350795D01*
X74862181Y60335630D01*
X74800858Y60302145D01*
X74731166Y60307129D01*
X74675233Y60349001D01*
X74650816Y60414465D01*
X74650500Y60423311D01*
X74650500Y62474190D01*
X74670185Y62541229D01*
X74674164Y62547051D01*
X74776106Y62687361D01*
X74886904Y62904815D01*
X74962321Y63136924D01*
X75000500Y63377973D01*
X75000500Y63622027D01*
X74962321Y63863076D01*
X74886904Y64095185D01*
X74776106Y64312639D01*
X74770694Y64320088D01*
X74724096Y64384226D01*
X74700616Y64450032D01*
X74716442Y64518086D01*
X74766548Y64566781D01*
X74768023Y64567546D01*
X74779199Y64573240D01*
X74932074Y64684310D01*
X76315690Y66067926D01*
X76426760Y66220801D01*
X76512547Y66389168D01*
X76570940Y66568882D01*
X76580107Y66626762D01*
X76600500Y66755514D01*
X76600500Y75544487D01*
X76570940Y75731119D01*
X76512545Y75910837D01*
X76426759Y76079200D01*
X76315690Y76232073D01*
X76182073Y76365690D01*
X76029199Y76476760D01*
X75860836Y76562546D01*
X75681118Y76620941D01*
X75494486Y76650500D01*
X75494481Y76650500D01*
X44894482Y76650500D01*
X44705519Y76650500D01*
X44705514Y76650500D01*
X44518881Y76620941D01*
X44339163Y76562546D01*
X44170800Y76476760D01*
X44017923Y76365688D01*
X42634312Y74982077D01*
X42523240Y74829200D01*
X42437454Y74660837D01*
X42379059Y74481119D01*
X42349500Y74294487D01*
X42349500Y72234022D01*
X42329815Y72166983D01*
X42277011Y72121228D01*
X42207853Y72111284D01*
X42144297Y72140309D01*
X42137819Y72146341D01*
X42085231Y72198929D01*
X42085225Y72198934D01*
X41875054Y72351632D01*
X41875053Y72351633D01*
X41875051Y72351634D01*
X41802764Y72388466D01*
X41643576Y72469578D01*
X41396493Y72549860D01*
X41139902Y72590500D01*
X41139897Y72590500D01*
X40880103Y72590500D01*
X40880098Y72590500D01*
X40623506Y72549860D01*
X40376423Y72469578D01*
X40144945Y72351632D01*
X39934774Y72198934D01*
X39934768Y72198929D01*
X39827681Y72091841D01*
X39766358Y72058356D01*
X39696666Y72063340D01*
X39652319Y72091841D01*
X39545231Y72198929D01*
X39545225Y72198934D01*
X39335054Y72351632D01*
X39335053Y72351633D01*
X39335051Y72351634D01*
X39262764Y72388466D01*
X39103576Y72469578D01*
X38856493Y72549860D01*
X38599902Y72590500D01*
X38599897Y72590500D01*
X38340103Y72590500D01*
X38340098Y72590500D01*
X38083506Y72549860D01*
X37836423Y72469578D01*
X37604945Y72351632D01*
X37394774Y72198934D01*
X37394768Y72198929D01*
X37287681Y72091841D01*
X37226358Y72058356D01*
X37156666Y72063340D01*
X37112319Y72091841D01*
X37005231Y72198929D01*
X37005225Y72198934D01*
X36795054Y72351632D01*
X36795053Y72351633D01*
X36795051Y72351634D01*
X36722764Y72388466D01*
X36563576Y72469578D01*
X36316493Y72549860D01*
X36059902Y72590500D01*
X36059897Y72590500D01*
X35800103Y72590500D01*
X35800098Y72590500D01*
X35543506Y72549860D01*
X35296423Y72469578D01*
X35064945Y72351632D01*
X34854774Y72198934D01*
X34854768Y72198929D01*
X34671071Y72015232D01*
X34671066Y72015226D01*
X34518368Y71805055D01*
X34400422Y71573577D01*
X34320140Y71326494D01*
X34279500Y71069903D01*
X34279500Y70810098D01*
X34320140Y70553507D01*
X34400422Y70306424D01*
X34518368Y70074946D01*
X34671066Y69864775D01*
X34671071Y69864769D01*
X34778159Y69757681D01*
X34782497Y69749736D01*
X34789745Y69744310D01*
X34798979Y69719551D01*
X34811644Y69696358D01*
X34810998Y69687329D01*
X34814162Y69678846D01*
X34808545Y69653026D01*
X34806660Y69626666D01*
X34800841Y69617613D01*
X34799310Y69610573D01*
X34778159Y69582319D01*
X34747681Y69551841D01*
X34686358Y69518356D01*
X34616666Y69523340D01*
X34572319Y69551841D01*
X34465231Y69658929D01*
X34465225Y69658934D01*
X34255054Y69811632D01*
X34255053Y69811633D01*
X34255051Y69811634D01*
X34182764Y69848466D01*
X34023576Y69929578D01*
X33776493Y70009860D01*
X33519902Y70050500D01*
X33519897Y70050500D01*
X33260103Y70050500D01*
X33260098Y70050500D01*
X33003506Y70009860D01*
X32756423Y69929578D01*
X32524945Y69811632D01*
X32314774Y69658934D01*
X32207681Y69551841D01*
X32199735Y69547503D01*
X32194312Y69540257D01*
X32169552Y69531022D01*
X32146358Y69518357D01*
X32137329Y69519003D01*
X32128848Y69515839D01*
X32103026Y69521456D01*
X32076666Y69523341D01*
X32067612Y69529160D01*
X32060575Y69530690D01*
X32032320Y69551840D01*
X32028185Y69555975D01*
X32001840Y69582320D01*
X31968356Y69643640D01*
X31973340Y69713332D01*
X32001841Y69757681D01*
X32055001Y69810841D01*
X32108931Y69864771D01*
X32261634Y70074949D01*
X32379579Y70306428D01*
X32459860Y70553507D01*
X32482539Y70696702D01*
X32500500Y70810098D01*
X32500500Y71069903D01*
X32478947Y71205979D01*
X32459860Y71326493D01*
X32379579Y71573572D01*
X32379577Y71573575D01*
X32379577Y71573577D01*
X32336787Y71657555D01*
X32261634Y71805051D01*
X32108931Y72015229D01*
X31925229Y72198931D01*
X31796770Y72292262D01*
X31715054Y72351632D01*
X31715053Y72351633D01*
X31715051Y72351634D01*
X31642764Y72388466D01*
X31483576Y72469578D01*
X31236493Y72549860D01*
X30979902Y72590500D01*
X30979897Y72590500D01*
X30720103Y72590500D01*
X30720098Y72590500D01*
X30463506Y72549860D01*
X30216423Y72469578D01*
X29984945Y72351632D01*
X29774774Y72198934D01*
X29774768Y72198929D01*
X29667681Y72091841D01*
X29606358Y72058356D01*
X29536666Y72063340D01*
X29492319Y72091841D01*
X29385231Y72198929D01*
X29385225Y72198934D01*
X29175054Y72351632D01*
X29175053Y72351633D01*
X29175051Y72351634D01*
X29102764Y72388466D01*
X28943576Y72469578D01*
X28696493Y72549860D01*
X28439902Y72590500D01*
X28439897Y72590500D01*
X28180103Y72590500D01*
X28180098Y72590500D01*
X27923506Y72549860D01*
X27676423Y72469578D01*
X27444945Y72351632D01*
X27234774Y72198934D01*
X27234768Y72198929D01*
X27127681Y72091841D01*
X27066358Y72058356D01*
X26996666Y72063340D01*
X26952319Y72091841D01*
X26845231Y72198929D01*
X26845225Y72198934D01*
X26635054Y72351632D01*
X26635053Y72351633D01*
X26635051Y72351634D01*
X26562764Y72388466D01*
X26403576Y72469578D01*
X26156493Y72549860D01*
X25899902Y72590500D01*
X25899897Y72590500D01*
X25640103Y72590500D01*
X25640098Y72590500D01*
X25383506Y72549860D01*
X25136423Y72469578D01*
X24904946Y72351633D01*
X24843219Y72306786D01*
X24777413Y72283307D01*
X24709359Y72299133D01*
X24682654Y72319424D01*
X24582262Y72419816D01*
X24429523Y72515789D01*
X24259254Y72575369D01*
X24259249Y72575370D01*
X24124960Y72590500D01*
X24124954Y72590500D01*
X22335046Y72590500D01*
X22335039Y72590500D01*
X22200750Y72575370D01*
X22200745Y72575369D01*
X22030476Y72515789D01*
X21877737Y72419816D01*
X21750184Y72292263D01*
X21654211Y72139524D01*
X21594631Y71969255D01*
X21594630Y71969250D01*
X21579500Y71834961D01*
X21579500Y70045040D01*
X21594630Y69910751D01*
X21594631Y69910746D01*
X21654212Y69740474D01*
X21711123Y69649902D01*
X21730124Y69582666D01*
X21709757Y69515831D01*
X21662425Y69473445D01*
X21570800Y69426760D01*
X21548312Y69410421D01*
X21417927Y69315690D01*
X21417925Y69315688D01*
X21417924Y69315688D01*
X20037681Y67935445D01*
X19976358Y67901960D01*
X19906666Y67906944D01*
X19862319Y67935445D01*
X17632076Y70165688D01*
X17632074Y70165690D01*
X17479199Y70276760D01*
X17310836Y70362546D01*
X17131118Y70420941D01*
X16944486Y70450500D01*
X16944481Y70450500D01*
X9674675Y70450500D01*
X9607636Y70470185D01*
X9565317Y70516047D01*
X9527688Y70586445D01*
X9527684Y70586451D01*
X9396410Y70746411D01*
X9236452Y70877683D01*
X9236453Y70877683D01*
X9236450Y70877685D01*
X9053954Y70975232D01*
X8855934Y71035300D01*
X8855932Y71035301D01*
X8855934Y71035301D01*
X8736805Y71047034D01*
X8701608Y71050500D01*
X8701605Y71050500D01*
X8574500Y71050500D01*
X8507461Y71070185D01*
X8461706Y71122989D01*
X8450500Y71174500D01*
X8450500Y77889123D01*
X8470185Y77956162D01*
X8474182Y77962008D01*
X8522697Y78028786D01*
X8618870Y78161155D01*
X8733241Y78385621D01*
X8811090Y78625215D01*
X8850500Y78874038D01*
X8850500Y79125962D01*
X8811090Y79374785D01*
X8733241Y79614379D01*
X8733239Y79614382D01*
X8733239Y79614384D01*
X8691747Y79695816D01*
X8618870Y79838845D01*
X8607866Y79853990D01*
X8474182Y80037993D01*
X8450702Y80103799D01*
X8450500Y80110878D01*
X8450500Y88101375D01*
X8470185Y88168414D01*
X8486814Y88189051D01*
X11487819Y91190057D01*
X11549142Y91223541D01*
X11618834Y91218557D01*
X11674767Y91176685D01*
X11699184Y91111221D01*
X11699500Y91102375D01*
X11699500Y89735040D01*
X11714630Y89600751D01*
X11714631Y89600746D01*
X11774211Y89430477D01*
X11818196Y89360476D01*
X11870184Y89277738D01*
X11997738Y89150184D01*
X12150478Y89054211D01*
X12316455Y88996133D01*
X12373230Y88955412D01*
X12398978Y88890460D01*
X12399500Y88879092D01*
X12399500Y87903585D01*
X12379815Y87836546D01*
X12348386Y87803267D01*
X12207342Y87700792D01*
X12029205Y87522655D01*
X12029201Y87522650D01*
X11881132Y87318849D01*
X11766760Y87094384D01*
X11688910Y86854786D01*
X11649500Y86605962D01*
X11649500Y86354039D01*
X11688910Y86105215D01*
X11766760Y85865617D01*
X11881132Y85641152D01*
X12029201Y85437351D01*
X12029205Y85437346D01*
X12207345Y85259206D01*
X12207350Y85259202D01*
X12385117Y85130048D01*
X12411155Y85111130D01*
X12554184Y85038253D01*
X12635616Y84996761D01*
X12635618Y84996761D01*
X12635621Y84996759D01*
X12875215Y84918910D01*
X13124038Y84879500D01*
X13124039Y84879500D01*
X13375961Y84879500D01*
X13375962Y84879500D01*
X13624785Y84918910D01*
X13864379Y84996759D01*
X14088845Y85111130D01*
X14292656Y85259207D01*
X14470793Y85437344D01*
X14618870Y85641155D01*
X14733241Y85865621D01*
X14811090Y86105215D01*
X14850500Y86354038D01*
X14850500Y86605962D01*
X14811090Y86854785D01*
X14806569Y86868700D01*
X14800500Y86907018D01*
X14800500Y88879092D01*
X14820185Y88946131D01*
X14872989Y88991886D01*
X14883536Y88996131D01*
X15049522Y89054211D01*
X15202262Y89150184D01*
X15329816Y89277738D01*
X15425789Y89430478D01*
X15485368Y89600745D01*
X15500500Y89735046D01*
X15500500Y91124954D01*
X15485368Y91259255D01*
X15425789Y91429522D01*
X15329816Y91582262D01*
X15202262Y91709816D01*
X15112141Y91766443D01*
X15065851Y91818777D01*
X15055203Y91887830D01*
X15083578Y91951679D01*
X15090433Y91959117D01*
X15156379Y92025063D01*
X15290579Y92209772D01*
X15394231Y92413201D01*
X15464784Y92630340D01*
X15500500Y92855838D01*
X15500500Y93084163D01*
X15464784Y93309661D01*
X15394229Y93526804D01*
X15290578Y93730229D01*
X15156379Y93914937D01*
X14994937Y94076379D01*
X14810228Y94210579D01*
X14798095Y94216761D01*
X14606803Y94314230D01*
X14389660Y94384785D01*
X14164162Y94420500D01*
X14164157Y94420500D01*
X13035843Y94420500D01*
X13035838Y94420500D01*
X12810338Y94384784D01*
X12810335Y94384784D01*
X12593207Y94314234D01*
X12593201Y94314232D01*
X12593201Y94314231D01*
X12592778Y94314016D01*
X12592544Y94313960D01*
X12588708Y94312370D01*
X12588456Y94312978D01*
X12536483Y94300500D01*
X11605514Y94300500D01*
X11418881Y94270941D01*
X11239163Y94212546D01*
X11070800Y94126760D01*
X10917923Y94015688D01*
X6334312Y89432077D01*
X6334307Y89432071D01*
X6282291Y89360476D01*
X6252765Y89319838D01*
X6223240Y89279200D01*
X6137454Y89110837D01*
X6079059Y88931119D01*
X6049500Y88744487D01*
X6049500Y80110878D01*
X6029815Y80043839D01*
X6025818Y80037993D01*
X5881132Y79838849D01*
X5766760Y79614384D01*
X5688910Y79374786D01*
X5649500Y79125962D01*
X70558Y79125962D01*
X70553Y79130709D01*
X53749Y95825962D01*
X2449500Y95825962D01*
X2449500Y95574039D01*
X2488910Y95325215D01*
X2566760Y95085617D01*
X2681132Y94861152D01*
X2829201Y94657351D01*
X2829205Y94657346D01*
X3007345Y94479206D01*
X3007350Y94479202D01*
X3088147Y94420500D01*
X3211155Y94331130D01*
X3329283Y94270941D01*
X3435616Y94216761D01*
X3435618Y94216761D01*
X3435621Y94216759D01*
X3675215Y94138910D01*
X3924038Y94099500D01*
X3924039Y94099500D01*
X4175961Y94099500D01*
X4175962Y94099500D01*
X4424785Y94138910D01*
X4664379Y94216759D01*
X4888845Y94331130D01*
X5092656Y94479207D01*
X5270793Y94657344D01*
X5418870Y94861155D01*
X5533241Y95085621D01*
X5611090Y95325215D01*
X5650500Y95574038D01*
X5650500Y95825962D01*
X94449500Y95825962D01*
X94449500Y95574039D01*
X94488910Y95325215D01*
X94566760Y95085617D01*
X94681132Y94861152D01*
X94829201Y94657351D01*
X94829205Y94657346D01*
X95007345Y94479206D01*
X95007350Y94479202D01*
X95088147Y94420500D01*
X95211155Y94331130D01*
X95329283Y94270941D01*
X95435616Y94216761D01*
X95435618Y94216761D01*
X95435621Y94216759D01*
X95675215Y94138910D01*
X95924038Y94099500D01*
X95924039Y94099500D01*
X96175961Y94099500D01*
X96175962Y94099500D01*
X96424785Y94138910D01*
X96664379Y94216759D01*
X96888845Y94331130D01*
X97092656Y94479207D01*
X97270793Y94657344D01*
X97418870Y94861155D01*
X97533241Y95085621D01*
X97611090Y95325215D01*
X97650500Y95574038D01*
X97650500Y95825962D01*
X97611090Y96074785D01*
X97533241Y96314379D01*
X97533239Y96314382D01*
X97533239Y96314384D01*
X97491747Y96395816D01*
X97418870Y96538845D01*
X97399952Y96564883D01*
X97270798Y96742650D01*
X97270794Y96742655D01*
X97092654Y96920795D01*
X97092649Y96920799D01*
X96888848Y97068868D01*
X96888847Y97068869D01*
X96888845Y97068870D01*
X96818747Y97104587D01*
X96664383Y97183240D01*
X96424785Y97261090D01*
X96175962Y97300500D01*
X95924038Y97300500D01*
X95799626Y97280795D01*
X95675214Y97261090D01*
X95435616Y97183240D01*
X95211151Y97068868D01*
X95007350Y96920799D01*
X95007345Y96920795D01*
X94829205Y96742655D01*
X94829201Y96742650D01*
X94681132Y96538849D01*
X94566760Y96314384D01*
X94488910Y96074786D01*
X94449500Y95825962D01*
X5650500Y95825962D01*
X5611090Y96074785D01*
X5533241Y96314379D01*
X5533239Y96314382D01*
X5533239Y96314384D01*
X5491747Y96395816D01*
X5418870Y96538845D01*
X5399952Y96564883D01*
X5270798Y96742650D01*
X5270794Y96742655D01*
X5092654Y96920795D01*
X5092649Y96920799D01*
X4888848Y97068868D01*
X4888847Y97068869D01*
X4888845Y97068870D01*
X4818747Y97104587D01*
X4664383Y97183240D01*
X4424785Y97261090D01*
X4175962Y97300500D01*
X3924038Y97300500D01*
X3799626Y97280795D01*
X3675214Y97261090D01*
X3435616Y97183240D01*
X3211151Y97068868D01*
X3007350Y96920799D01*
X3007345Y96920795D01*
X2829205Y96742655D01*
X2829201Y96742650D01*
X2681132Y96538849D01*
X2566760Y96314384D01*
X2488910Y96074786D01*
X2449500Y95825962D01*
X53749Y95825962D01*
X53744Y95830709D01*
X50500Y99053250D01*
X50500Y99425938D01*
X70185Y99492977D01*
X122989Y99538732D01*
X174560Y99549938D01*
X99575567Y99500189D01*
G37*
G04 #@! TD.AperFunction*
M02*
