M48
; DRILL file {KiCad 9.0.2} date 2025-08-22T12:37:02+0200
; FORMAT={-:-/ absolute / metric / decimal}
; #@! TF.CreationDate,2025-08-22T12:37:02+02:00
; #@! TF.GenerationSoftware,Kicad,Pcbnew,9.0.2
; #@! TF.FileFunction,MixedPlating,1,2
FMAT,2
METRIC
; #@! TA.AperFunction,Plated,PTH,ViaDrill
T1C0.800
; #@! TA.AperFunction,Plated,PTH,ComponentDrill
T2C0.800
; #@! TA.AperFunction,Plated,PTH,ComponentDrill
T3C0.900
; #@! TA.AperFunction,Plated,PTH,ComponentDrill
T4C0.920
; #@! TA.AperFunction,Plated,PTH,ComponentDrill
T5C1.000
; #@! TA.AperFunction,Plated,PTH,ComponentDrill
T6C1.100
; #@! TA.AperFunction,Plated,PTH,ComponentDrill
T7C1.200
; #@! TA.AperFunction,Plated,PTH,ComponentDrill
T8C2.200
; #@! TA.AperFunction,Plated,PTH,ComponentDrill
T9C2.300
; #@! TA.AperFunction,NonPlated,NPTH,ComponentDrill
T10C3.200
; #@! TA.AperFunction,NonPlated,NPTH,ComponentDrill
T11C3.500
%
G90
G05
T1
X41.9Y51.55
X41.975Y59.525
X45.15Y51.65
X54.15Y20.2
X56.85Y24.1
X61.12Y63.63
X62.25Y20.25
X64.6Y51.65
X67.4Y24.1
X73.45Y63.5
T2
X2.25Y79.0
X4.95Y57.9
X7.25Y79.0
X9.95Y57.9
X13.25Y86.48
X13.25Y76.32
X68.7Y59.13
X68.7Y56.59
X68.7Y54.05
X68.7Y51.51
X68.7Y48.97
X68.7Y46.43
X68.7Y43.89
X68.7Y41.35
X76.32Y59.13
X76.32Y56.59
X76.32Y54.05
X76.32Y51.51
X76.32Y48.97
X76.32Y46.43
X76.32Y43.89
X76.32Y41.35
T3
X13.6Y92.97
X13.6Y90.43
X59.45Y11.1
X59.45Y8.6
X61.55Y8.6
X64.15Y8.6
X66.25Y11.1
X66.25Y8.6
T4
X77.75Y12.94
X80.25Y12.94
X82.25Y12.94
X84.75Y12.94
T5
X2.9Y69.25
X3.35Y36.05
X3.35Y24.65
X5.3Y52.25
X5.3Y47.25
X7.76Y11.5
X7.9Y69.25
X10.3Y11.5
X12.02Y36.03
X12.02Y30.95
X17.1Y36.03
X17.1Y30.95
X23.23Y70.94
X23.23Y68.4
X25.77Y70.94
X25.77Y68.4
X28.31Y70.94
X28.31Y68.4
X30.85Y70.94
X30.85Y68.4
X31.76Y27.15
X33.39Y70.94
X33.39Y68.4
X34.3Y27.15
X35.93Y70.94
X35.93Y68.4
X36.84Y27.15
X38.47Y70.94
X38.47Y68.4
X39.38Y27.15
X41.01Y70.94
X41.01Y68.4
X43.55Y70.94
X43.55Y68.4
X46.09Y70.94
X46.09Y68.4
X48.63Y70.94
X48.63Y68.4
X51.17Y70.94
X51.17Y68.4
X53.71Y70.94
X53.71Y68.4
X54.64Y32.55
X56.25Y70.94
X56.25Y68.4
X57.18Y32.55
X58.79Y70.94
X58.79Y68.4
X59.72Y32.55
X61.33Y70.94
X61.33Y68.4
X62.26Y32.55
X63.87Y70.94
X63.87Y68.4
X66.41Y70.94
X66.41Y68.4
X68.95Y70.94
X68.95Y68.4
X71.49Y70.94
X71.49Y68.4
X86.25Y47.565
X86.25Y45.025
T6
X16.02Y52.04
X16.02Y49.5
X16.02Y46.96
T7
X20.95Y41.05
X33.65Y41.05
T8
X56.1Y5.6
X62.85Y4.8
X69.6Y5.6
T9
X74.68Y10.23
X87.82Y10.23
T10
X4.05Y95.7
X4.05Y3.7
X96.05Y95.7
X96.05Y3.7
T11
X32.68Y49.5
M30
