%TF.GenerationSoftware,KiCad,Pcbnew,9.0.2*%
%TF.CreationDate,2025-10-25T15:21:40+02:00*%
%TF.ProjectId,VT100,50695a65-726f-45f5-9654-3130302e6b69,rev?*%
%TF.SameCoordinates,PX5e9ac00PYa0ca1c0*%
%TF.FileFunction,Legend,Bot*%
%TF.FilePolarity,Positive*%
%FSLAX46Y46*%
G04 Gerber Fmt 4.6, Leading zero omitted, Abs format (unit mm)*
G04 Created by KiCad (PCBNEW 9.0.2) date 2025-10-25 15:21:40*
%MOMM*%
%LPD*%
G01*
G04 APERTURE LIST*
G04 Aperture macros list*
%AMRoundRect*
0 Rectangle with rounded corners*
0 $1 Rounding radius*
0 $2 $3 $4 $5 $6 $7 $8 $9 X,Y pos of 4 corners*
0 Add a 4 corners polygon primitive as box body*
4,1,4,$2,$3,$4,$5,$6,$7,$8,$9,$2,$3,0*
0 Add four circle primitives for the rounded corners*
1,1,$1+$1,$2,$3*
1,1,$1+$1,$4,$5*
1,1,$1+$1,$6,$7*
1,1,$1+$1,$8,$9*
0 Add four rect primitives between the rounded corners*
20,1,$1+$1,$2,$3,$4,$5,0*
20,1,$1+$1,$4,$5,$6,$7,0*
20,1,$1+$1,$6,$7,$8,$9,0*
20,1,$1+$1,$8,$9,$2,$3,0*%
G04 Aperture macros list end*
%ADD10C,2.000000*%
%ADD11RoundRect,0.250000X-0.650000X-0.650000X0.650000X-0.650000X0.650000X0.650000X-0.650000X0.650000X0*%
%ADD12C,1.800000*%
%ADD13RoundRect,0.250000X0.650000X-0.650000X0.650000X0.650000X-0.650000X0.650000X-0.650000X-0.650000X0*%
%ADD14R,1.700000X1.700000*%
%ADD15C,1.700000*%
%ADD16O,1.700000X1.700000*%
%ADD17C,3.200000*%
%ADD18R,1.500000X1.500000*%
%ADD19C,1.500000*%
%ADD20C,1.600000*%
%ADD21O,1.200000X2.200000*%
%ADD22O,2.000000X1.200000*%
%ADD23C,3.400000*%
%ADD24R,2.200000X1.300000*%
%ADD25O,2.200000X1.300000*%
%ADD26R,4.600000X2.000000*%
%ADD27O,4.200000X2.000000*%
%ADD28O,2.000000X4.200000*%
%ADD29R,1.400000X1.400000*%
%ADD30C,1.400000*%
%ADD31R,1.600000X1.600000*%
%ADD32R,2.000000X2.000000*%
%ADD33O,2.000000X2.000000*%
%ADD34RoundRect,0.250001X0.949999X0.949999X-0.949999X0.949999X-0.949999X-0.949999X0.949999X-0.949999X0*%
%ADD35C,2.400000*%
%ADD36R,1.300000X2.500000*%
%ADD37O,1.200000X2.500000*%
%ADD38O,1.500000X2.500000*%
%ADD39C,3.000000*%
G04 APERTURE END LIST*
%LPC*%
D10*
%TO.C,F1*%
X3300000Y24700000D03*
X3300000Y36100000D03*
%TD*%
D11*
%TO.C,D5*%
X82040000Y48500000D03*
D12*
X92200000Y48500000D03*
%TD*%
D13*
%TO.C,D4*%
X76340000Y47330000D03*
D12*
X76340000Y57490000D03*
%TD*%
D14*
%TO.C,J8*%
X12975000Y96900000D03*
D15*
X10435000Y96900000D03*
%TD*%
D14*
%TO.C,J1*%
X25570000Y73200000D03*
D16*
X25570000Y70660000D03*
X28110000Y73200000D03*
X28110000Y70660000D03*
X30650000Y73200000D03*
X30650000Y70660000D03*
X33190000Y73200000D03*
X33190000Y70660000D03*
X35730000Y73200000D03*
X35730000Y70660000D03*
X38270000Y73200000D03*
X38270000Y70660000D03*
X40810000Y73200000D03*
X40810000Y70660000D03*
X43350000Y73200000D03*
X43350000Y70660000D03*
X45890000Y73200000D03*
X45890000Y70660000D03*
X48430000Y73200000D03*
X48430000Y70660000D03*
X50970000Y73200000D03*
X50970000Y70660000D03*
X53510000Y73200000D03*
X53510000Y70660000D03*
X56050000Y73200000D03*
X56050000Y70660000D03*
X58590000Y73200000D03*
X58590000Y70660000D03*
X61130000Y73200000D03*
X61130000Y70660000D03*
X63670000Y73200000D03*
X63670000Y70660000D03*
X66210000Y73200000D03*
X66210000Y70660000D03*
X68750000Y73200000D03*
X68750000Y70660000D03*
X71290000Y73200000D03*
X71290000Y70660000D03*
X73830000Y73200000D03*
X73830000Y70660000D03*
%TD*%
D17*
%TO.C,H3*%
X4050000Y3700000D03*
%TD*%
D14*
%TO.C,J2*%
X31760000Y27150000D03*
D15*
X34300000Y27150000D03*
X36840000Y27150000D03*
X39380000Y27150000D03*
%TD*%
D18*
%TO.C,Q1*%
X84800000Y59680000D03*
D19*
X87340000Y57140000D03*
X84800000Y54600000D03*
%TD*%
D20*
%TO.C,C6*%
X93800000Y89850000D03*
X93800000Y82350000D03*
%TD*%
%TO.C,C5*%
X86800000Y91600000D03*
X81800000Y91600000D03*
%TD*%
D21*
%TO.C,J4*%
X64150000Y8600000D03*
X61550000Y8600000D03*
X66250000Y8600000D03*
X59450000Y8600000D03*
D22*
X66250000Y11100000D03*
X59450000Y11100000D03*
D23*
X69600000Y5600000D03*
X56100000Y5600000D03*
X62850000Y4800000D03*
%TD*%
D24*
%TO.C,D2*%
X93800000Y9830000D03*
D25*
X93800000Y12370000D03*
%TD*%
D18*
%TO.C,Q2*%
X96300000Y62600000D03*
D19*
X93760000Y60060000D03*
X91220000Y62600000D03*
%TD*%
D20*
%TO.C,R8*%
X79720000Y86600000D03*
X89880000Y86600000D03*
%TD*%
%TO.C,R3*%
X56880000Y65600000D03*
X46720000Y65600000D03*
%TD*%
D17*
%TO.C,H2*%
X96050000Y95700000D03*
%TD*%
%TO.C,H1*%
X4050000Y95700000D03*
%TD*%
D26*
%TO.C,J3*%
X12550000Y14300000D03*
D27*
X12550000Y8000000D03*
D28*
X17350000Y11400000D03*
%TD*%
D29*
%TO.C,K1*%
X71420000Y55100000D03*
D30*
X63800000Y55100000D03*
X58720000Y55100000D03*
X53640000Y55100000D03*
X53640000Y47480000D03*
X58720000Y47480000D03*
X63800000Y47480000D03*
X71420000Y47480000D03*
%TD*%
D20*
%TO.C,R4*%
X77720000Y68600000D03*
X87880000Y68600000D03*
%TD*%
D14*
%TO.C,J5*%
X78775000Y40350000D03*
D15*
X81315000Y40350000D03*
%TD*%
D31*
%TO.C,BZ1*%
X88150000Y35200000D03*
D20*
X95750000Y35200000D03*
%TD*%
D32*
%TO.C,D1*%
X10750000Y26030000D03*
D33*
X10750000Y20950000D03*
X15830000Y20950000D03*
X15830000Y26030000D03*
%TD*%
D34*
%TO.C,D3*%
X60400000Y20550000D03*
D35*
X47700000Y20550000D03*
%TD*%
D20*
%TO.C,R1*%
X74870000Y25800000D03*
X85030000Y25800000D03*
%TD*%
%TO.C,R10*%
X96300000Y56600000D03*
X96300000Y46440000D03*
%TD*%
D14*
%TO.C,J7*%
X43600000Y38850000D03*
D15*
X43600000Y41390000D03*
X43600000Y43930000D03*
X43600000Y46470000D03*
%TD*%
D20*
%TO.C,R9*%
X93800000Y78100000D03*
X83640000Y78100000D03*
%TD*%
D36*
%TO.C,J6*%
X77750000Y12940000D03*
D37*
X80250000Y12940000D03*
X82250000Y12940000D03*
D38*
X84750000Y12940000D03*
D39*
X74680000Y10230000D03*
X87820000Y10230000D03*
%TD*%
D20*
%TO.C,R2*%
X46720000Y62100000D03*
X56880000Y62100000D03*
%TD*%
D17*
%TO.C,H4*%
X96050000Y3700000D03*
%TD*%
D20*
%TO.C,R7*%
X78220000Y74100000D03*
X88380000Y74100000D03*
%TD*%
D14*
%TO.C,J9*%
X3100000Y14775000D03*
D15*
X3100000Y12235000D03*
%TD*%
%LPD*%
M02*
