%TF.GenerationSoftware,KiCad,Pcbnew,9.0.2*%
%TF.CreationDate,2025-10-25T15:21:40+02:00*%
%TF.ProjectId,VT100,50695a65-726f-45f5-9654-3130302e6b69,rev?*%
%TF.SameCoordinates,PX5e9ac00PYa0ca1c0*%
%TF.FileFunction,Soldermask,Top*%
%TF.FilePolarity,Negative*%
%FSLAX46Y46*%
G04 Gerber Fmt 4.6, Leading zero omitted, Abs format (unit mm)*
G04 Created by KiCad (PCBNEW 9.0.2) date 2025-10-25 15:21:40*
%MOMM*%
%LPD*%
G01*
G04 APERTURE LIST*
G04 Aperture macros list*
%AMRoundRect*
0 Rectangle with rounded corners*
0 $1 Rounding radius*
0 $2 $3 $4 $5 $6 $7 $8 $9 X,Y pos of 4 corners*
0 Add a 4 corners polygon primitive as box body*
4,1,4,$2,$3,$4,$5,$6,$7,$8,$9,$2,$3,0*
0 Add four circle primitives for the rounded corners*
1,1,$1+$1,$2,$3*
1,1,$1+$1,$4,$5*
1,1,$1+$1,$6,$7*
1,1,$1+$1,$8,$9*
0 Add four rect primitives between the rounded corners*
20,1,$1+$1,$2,$3,$4,$5,0*
20,1,$1+$1,$4,$5,$6,$7,0*
20,1,$1+$1,$6,$7,$8,$9,0*
20,1,$1+$1,$8,$9,$2,$3,0*%
G04 Aperture macros list end*
%ADD10C,2.000000*%
%ADD11RoundRect,0.250000X-0.650000X-0.650000X0.650000X-0.650000X0.650000X0.650000X-0.650000X0.650000X0*%
%ADD12C,1.800000*%
%ADD13RoundRect,0.250000X0.650000X-0.650000X0.650000X0.650000X-0.650000X0.650000X-0.650000X-0.650000X0*%
%ADD14R,1.700000X1.700000*%
%ADD15C,1.700000*%
%ADD16O,1.700000X1.700000*%
%ADD17RoundRect,0.250000X-0.400000X-0.625000X0.400000X-0.625000X0.400000X0.625000X-0.400000X0.625000X0*%
%ADD18C,3.200000*%
%ADD19R,1.500000X1.500000*%
%ADD20C,1.500000*%
%ADD21C,1.600000*%
%ADD22RoundRect,0.250000X-0.300000X2.000000X-0.300000X-2.000000X0.300000X-2.000000X0.300000X2.000000X0*%
%ADD23RoundRect,0.250000X-0.300000X2.050000X-0.300000X-2.050000X0.300000X-2.050000X0.300000X2.050000X0*%
%ADD24RoundRect,0.250002X-5.149998X4.449998X-5.149998X-4.449998X5.149998X-4.449998X5.149998X4.449998X0*%
%ADD25O,1.200000X2.200000*%
%ADD26O,2.000000X1.200000*%
%ADD27C,3.400000*%
%ADD28R,2.200000X1.300000*%
%ADD29O,2.200000X1.300000*%
%ADD30R,4.600000X2.000000*%
%ADD31O,4.200000X2.000000*%
%ADD32O,2.000000X4.200000*%
%ADD33R,1.400000X1.400000*%
%ADD34C,1.400000*%
%ADD35R,1.600000X1.600000*%
%ADD36RoundRect,0.250000X1.400000X1.000000X-1.400000X1.000000X-1.400000X-1.000000X1.400000X-1.000000X0*%
%ADD37RoundRect,0.250000X-1.000000X1.750000X-1.000000X-1.750000X1.000000X-1.750000X1.000000X1.750000X0*%
%ADD38R,2.000000X2.000000*%
%ADD39O,2.000000X2.000000*%
%ADD40RoundRect,0.250001X0.949999X0.949999X-0.949999X0.949999X-0.949999X-0.949999X0.949999X-0.949999X0*%
%ADD41C,2.400000*%
%ADD42R,3.000000X3.000000*%
%ADD43R,1.300000X2.500000*%
%ADD44O,1.200000X2.500000*%
%ADD45O,1.500000X2.500000*%
%ADD46C,3.000000*%
%ADD47RoundRect,0.250000X0.400000X0.625000X-0.400000X0.625000X-0.400000X-0.625000X0.400000X-0.625000X0*%
G04 APERTURE END LIST*
D10*
%TO.C,F1*%
X3300000Y24700000D03*
X3300000Y36100000D03*
%TD*%
D11*
%TO.C,D5*%
X82040000Y48500000D03*
D12*
X92200000Y48500000D03*
%TD*%
D13*
%TO.C,D4*%
X76340000Y47330000D03*
D12*
X76340000Y57490000D03*
%TD*%
D14*
%TO.C,J8*%
X12975000Y96900000D03*
D15*
X10435000Y96900000D03*
%TD*%
D14*
%TO.C,J1*%
X25570000Y73200000D03*
D16*
X25570000Y70660000D03*
X28110000Y73200000D03*
X28110000Y70660000D03*
X30650000Y73200000D03*
X30650000Y70660000D03*
X33190000Y73200000D03*
X33190000Y70660000D03*
X35730000Y73200000D03*
X35730000Y70660000D03*
X38270000Y73200000D03*
X38270000Y70660000D03*
X40810000Y73200000D03*
X40810000Y70660000D03*
X43350000Y73200000D03*
X43350000Y70660000D03*
X45890000Y73200000D03*
X45890000Y70660000D03*
X48430000Y73200000D03*
X48430000Y70660000D03*
X50970000Y73200000D03*
X50970000Y70660000D03*
X53510000Y73200000D03*
X53510000Y70660000D03*
X56050000Y73200000D03*
X56050000Y70660000D03*
X58590000Y73200000D03*
X58590000Y70660000D03*
X61130000Y73200000D03*
X61130000Y70660000D03*
X63670000Y73200000D03*
X63670000Y70660000D03*
X66210000Y73200000D03*
X66210000Y70660000D03*
X68750000Y73200000D03*
X68750000Y70660000D03*
X71290000Y73200000D03*
X71290000Y70660000D03*
X73830000Y73200000D03*
X73830000Y70660000D03*
%TD*%
D17*
%TO.C,R5*%
X1500000Y47700000D03*
X4600000Y47700000D03*
%TD*%
D18*
%TO.C,H3*%
X4050000Y3700000D03*
%TD*%
D14*
%TO.C,J2*%
X31760000Y27150000D03*
D15*
X34300000Y27150000D03*
X36840000Y27150000D03*
X39380000Y27150000D03*
%TD*%
D19*
%TO.C,Q1*%
X84800000Y59680000D03*
D20*
X87340000Y57140000D03*
X84800000Y54600000D03*
%TD*%
D21*
%TO.C,C6*%
X93800000Y89850000D03*
X93800000Y82350000D03*
%TD*%
D22*
%TO.C,U1*%
X17175000Y46575000D03*
D23*
X15475000Y46575000D03*
X13775000Y46575000D03*
D24*
X13775000Y36925000D03*
D23*
X12075000Y46575000D03*
X10375000Y46575000D03*
%TD*%
D21*
%TO.C,C5*%
X86800000Y91600000D03*
X81800000Y91600000D03*
%TD*%
D25*
%TO.C,J4*%
X64150000Y8600000D03*
X61550000Y8600000D03*
X66250000Y8600000D03*
X59450000Y8600000D03*
D26*
X66250000Y11100000D03*
X59450000Y11100000D03*
D27*
X69600000Y5600000D03*
X56100000Y5600000D03*
X62850000Y4800000D03*
%TD*%
D28*
%TO.C,D2*%
X93800000Y9830000D03*
D29*
X93800000Y12370000D03*
%TD*%
D19*
%TO.C,Q2*%
X96300000Y62600000D03*
D20*
X93760000Y60060000D03*
X91220000Y62600000D03*
%TD*%
D21*
%TO.C,R8*%
X79720000Y86600000D03*
X89880000Y86600000D03*
%TD*%
%TO.C,R3*%
X56880000Y65600000D03*
X46720000Y65600000D03*
%TD*%
D18*
%TO.C,H2*%
X96050000Y95700000D03*
%TD*%
%TO.C,H1*%
X4050000Y95700000D03*
%TD*%
D30*
%TO.C,J3*%
X12550000Y14300000D03*
D31*
X12550000Y8000000D03*
D32*
X17350000Y11400000D03*
%TD*%
D33*
%TO.C,K1*%
X71420000Y55100000D03*
D34*
X63800000Y55100000D03*
X58720000Y55100000D03*
X53640000Y55100000D03*
X53640000Y47480000D03*
X58720000Y47480000D03*
X63800000Y47480000D03*
X71420000Y47480000D03*
%TD*%
D21*
%TO.C,R4*%
X77720000Y68600000D03*
X87880000Y68600000D03*
%TD*%
D14*
%TO.C,J5*%
X78775000Y40350000D03*
D15*
X81315000Y40350000D03*
%TD*%
D35*
%TO.C,BZ1*%
X88150000Y35200000D03*
D21*
X95750000Y35200000D03*
%TD*%
D36*
%TO.C,D6*%
X15500000Y54550000D03*
X15500000Y61350000D03*
%TD*%
D37*
%TO.C,C2*%
X26900000Y62282500D03*
X26900000Y54282500D03*
%TD*%
D38*
%TO.C,D1*%
X10750000Y26030000D03*
D39*
X10750000Y20950000D03*
X15830000Y20950000D03*
X15830000Y26030000D03*
%TD*%
D40*
%TO.C,D3*%
X60400000Y20550000D03*
D41*
X47700000Y20550000D03*
%TD*%
D21*
%TO.C,R1*%
X74870000Y25800000D03*
X85030000Y25800000D03*
%TD*%
%TO.C,R10*%
X96300000Y56600000D03*
X96300000Y46440000D03*
%TD*%
D14*
%TO.C,J7*%
X43600000Y38850000D03*
D15*
X43600000Y41390000D03*
X43600000Y43930000D03*
X43600000Y46470000D03*
%TD*%
D42*
%TO.C,L1*%
X5370000Y54660000D03*
X5350000Y65000000D03*
%TD*%
D21*
%TO.C,R9*%
X93800000Y78100000D03*
X83640000Y78100000D03*
%TD*%
D37*
%TO.C,C1*%
X26900000Y46600000D03*
X26900000Y38600000D03*
%TD*%
D43*
%TO.C,J6*%
X77750000Y12940000D03*
D44*
X80250000Y12940000D03*
X82250000Y12940000D03*
D45*
X84750000Y12940000D03*
D46*
X74680000Y10230000D03*
X87820000Y10230000D03*
%TD*%
D47*
%TO.C,R6*%
X4550000Y43300000D03*
X1450000Y43300000D03*
%TD*%
D21*
%TO.C,R2*%
X46720000Y62100000D03*
X56880000Y62100000D03*
%TD*%
D18*
%TO.C,H4*%
X96050000Y3700000D03*
%TD*%
D21*
%TO.C,R7*%
X78220000Y74100000D03*
X88380000Y74100000D03*
%TD*%
D14*
%TO.C,J9*%
X3100000Y14775000D03*
D15*
X3100000Y12235000D03*
%TD*%
M02*
