M48
INCH
T1C0.0276
T2C0.0315
T3C0.0354
T4C0.0362
T5C0.0394
T6C0.0472
T7C0.0866
T8C0.0906
%
G90
G05
T1
X2.1118Y2.1693
X2.1118Y1.8693
X2.3118Y2.1693
X2.3118Y1.8693
X2.5118Y2.1693
X2.5118Y1.8693
X2.8118Y2.1693
X2.8118Y1.8693
T2
X1.8394Y2.5827
X1.8394Y2.4449
X2.2394Y2.5827
X2.2394Y2.4449
X2.9476Y1.0157
X3.0598Y2.7008
X3.0795Y2.9173
X3.1386Y3.4094
X3.2205Y3.6063
X3.2929Y3.0748
X3.3386Y2.3496
X3.3386Y2.1496
X3.3476Y1.0157
X3.4173Y3.6063
X3.4386Y2.2496
X3.4598Y2.7008
X3.4795Y2.9173
X3.5386Y3.4094
X3.5913Y2.4646
X3.6913Y2.3646
X3.6929Y3.5374
X3.6929Y3.2421
X3.6929Y3.0748
X3.7913Y2.4646
X3.7913Y2.2283
X3.7913Y1.8283
T3
X2.3406Y0.437
X2.3406Y0.3386
X2.4232Y0.3386
X2.5256Y0.3386
X2.6083Y0.437
X2.6083Y0.3386
X3.0055Y2.2634
X3.0055Y1.8634
X3.2299Y1.9094
X3.6299Y1.9094
X3.6929Y0.487
X3.6929Y0.387
T4
X3.061Y0.5094
X3.1594Y0.5094
X3.2382Y0.5094
X3.3366Y0.5094
T5
X0.122Y0.5817
X0.122Y0.4817
X0.1299Y1.4213
X0.1299Y0.9724
X0.4108Y3.815
X0.4232Y1.0248
X0.4232Y0.8248
X0.5108Y3.815
X0.6232Y1.0248
X0.6232Y0.8248
X1.0067Y2.8819
X1.0067Y2.7819
X1.1067Y2.8819
X1.1067Y2.7819
X1.2067Y2.8819
X1.2067Y2.7819
X1.2504Y1.0689
X1.3067Y2.8819
X1.3067Y2.7819
X1.3504Y1.0689
X1.4067Y2.8819
X1.4067Y2.7819
X1.4504Y1.0689
X1.5067Y2.8819
X1.5067Y2.7819
X1.5504Y1.0689
X1.6067Y2.8819
X1.6067Y2.7819
X1.7067Y2.8819
X1.7067Y2.7819
X1.7165Y1.8295
X1.7165Y1.7295
X1.7165Y1.6295
X1.7165Y1.5295
X1.8067Y2.8819
X1.8067Y2.7819
X1.9067Y2.8819
X1.9067Y2.7819
X2.0067Y2.8819
X2.0067Y2.7819
X2.1067Y2.8819
X2.1067Y2.7819
X2.2067Y2.8819
X2.2067Y2.7819
X2.3067Y2.8819
X2.3067Y2.7819
X2.4067Y2.8819
X2.4067Y2.7819
X2.5067Y2.8819
X2.5067Y2.7819
X2.6067Y2.8819
X2.6067Y2.7819
X2.7067Y2.8819
X2.7067Y2.7819
X2.8067Y2.8819
X2.8067Y2.7819
X2.9067Y2.8819
X2.9067Y2.7819
X3.1014Y1.5886
X3.2014Y1.5886
X3.4705Y1.3858
X3.7697Y1.3858
T6
X1.878Y0.8091
X2.378Y0.8091
T7
X2.2087Y0.2205
X2.4744Y0.189
X2.7402Y0.2205
T8
X2.9402Y0.4028
X3.4575Y0.4028
T5
G00X0.4429Y0.563
M15
G01X0.5453Y0.563
M16
G05
G00X0.4508Y0.315
M15
G01X0.5374Y0.315
M16
G05
G00X0.6831Y0.4921
M15
G01X0.6831Y0.4055
M16
G05
M30
