%TF.GenerationSoftware,KiCad,Pcbnew,9.0.2*%
%TF.CreationDate,2025-10-25T15:21:40+02:00*%
%TF.ProjectId,VT100,50695a65-726f-45f5-9654-3130302e6b69,rev?*%
%TF.SameCoordinates,PX5e9ac00PYa0ca1c0*%
%TF.FileFunction,Copper,L1,Top*%
%TF.FilePolarity,Positive*%
%FSLAX46Y46*%
G04 Gerber Fmt 4.6, Leading zero omitted, Abs format (unit mm)*
G04 Created by KiCad (PCBNEW 9.0.2) date 2025-10-25 15:21:40*
%MOMM*%
%LPD*%
G01*
G04 APERTURE LIST*
G04 Aperture macros list*
%AMRoundRect*
0 Rectangle with rounded corners*
0 $1 Rounding radius*
0 $2 $3 $4 $5 $6 $7 $8 $9 X,Y pos of 4 corners*
0 Add a 4 corners polygon primitive as box body*
4,1,4,$2,$3,$4,$5,$6,$7,$8,$9,$2,$3,0*
0 Add four circle primitives for the rounded corners*
1,1,$1+$1,$2,$3*
1,1,$1+$1,$4,$5*
1,1,$1+$1,$6,$7*
1,1,$1+$1,$8,$9*
0 Add four rect primitives between the rounded corners*
20,1,$1+$1,$2,$3,$4,$5,0*
20,1,$1+$1,$4,$5,$6,$7,0*
20,1,$1+$1,$6,$7,$8,$9,0*
20,1,$1+$1,$8,$9,$2,$3,0*%
G04 Aperture macros list end*
%TA.AperFunction,ComponentPad*%
%ADD10C,2.000000*%
%TD*%
%TA.AperFunction,ComponentPad*%
%ADD11RoundRect,0.250000X-0.650000X-0.650000X0.650000X-0.650000X0.650000X0.650000X-0.650000X0.650000X0*%
%TD*%
%TA.AperFunction,ComponentPad*%
%ADD12C,1.800000*%
%TD*%
%TA.AperFunction,ComponentPad*%
%ADD13RoundRect,0.250000X0.650000X-0.650000X0.650000X0.650000X-0.650000X0.650000X-0.650000X-0.650000X0*%
%TD*%
%TA.AperFunction,ComponentPad*%
%ADD14R,1.700000X1.700000*%
%TD*%
%TA.AperFunction,ComponentPad*%
%ADD15C,1.700000*%
%TD*%
%TA.AperFunction,ComponentPad*%
%ADD16O,1.700000X1.700000*%
%TD*%
%TA.AperFunction,SMDPad,CuDef*%
%ADD17RoundRect,0.250000X-0.400000X-0.625000X0.400000X-0.625000X0.400000X0.625000X-0.400000X0.625000X0*%
%TD*%
%TA.AperFunction,ComponentPad*%
%ADD18R,1.500000X1.500000*%
%TD*%
%TA.AperFunction,ComponentPad*%
%ADD19C,1.500000*%
%TD*%
%TA.AperFunction,ComponentPad*%
%ADD20C,1.600000*%
%TD*%
%TA.AperFunction,SMDPad,CuDef*%
%ADD21RoundRect,0.250000X-0.300000X2.000000X-0.300000X-2.000000X0.300000X-2.000000X0.300000X2.000000X0*%
%TD*%
%TA.AperFunction,SMDPad,CuDef*%
%ADD22RoundRect,0.250000X-0.300000X2.050000X-0.300000X-2.050000X0.300000X-2.050000X0.300000X2.050000X0*%
%TD*%
%TA.AperFunction,SMDPad,CuDef*%
%ADD23RoundRect,0.250002X-5.149998X4.449998X-5.149998X-4.449998X5.149998X-4.449998X5.149998X4.449998X0*%
%TD*%
%TA.AperFunction,ComponentPad*%
%ADD24O,1.200000X2.200000*%
%TD*%
%TA.AperFunction,ComponentPad*%
%ADD25O,2.000000X1.200000*%
%TD*%
%TA.AperFunction,ComponentPad*%
%ADD26C,3.400000*%
%TD*%
%TA.AperFunction,ComponentPad*%
%ADD27R,2.200000X1.300000*%
%TD*%
%TA.AperFunction,ComponentPad*%
%ADD28O,2.200000X1.300000*%
%TD*%
%TA.AperFunction,ComponentPad*%
%ADD29R,4.600000X2.000000*%
%TD*%
%TA.AperFunction,ComponentPad*%
%ADD30O,4.200000X2.000000*%
%TD*%
%TA.AperFunction,ComponentPad*%
%ADD31O,2.000000X4.200000*%
%TD*%
%TA.AperFunction,ComponentPad*%
%ADD32R,1.400000X1.400000*%
%TD*%
%TA.AperFunction,ComponentPad*%
%ADD33C,1.400000*%
%TD*%
%TA.AperFunction,ComponentPad*%
%ADD34R,1.600000X1.600000*%
%TD*%
%TA.AperFunction,SMDPad,CuDef*%
%ADD35RoundRect,0.250000X1.400000X1.000000X-1.400000X1.000000X-1.400000X-1.000000X1.400000X-1.000000X0*%
%TD*%
%TA.AperFunction,SMDPad,CuDef*%
%ADD36RoundRect,0.250000X-1.000000X1.750000X-1.000000X-1.750000X1.000000X-1.750000X1.000000X1.750000X0*%
%TD*%
%TA.AperFunction,ComponentPad*%
%ADD37R,2.000000X2.000000*%
%TD*%
%TA.AperFunction,ComponentPad*%
%ADD38O,2.000000X2.000000*%
%TD*%
%TA.AperFunction,ComponentPad*%
%ADD39RoundRect,0.250001X0.949999X0.949999X-0.949999X0.949999X-0.949999X-0.949999X0.949999X-0.949999X0*%
%TD*%
%TA.AperFunction,ComponentPad*%
%ADD40C,2.400000*%
%TD*%
%TA.AperFunction,SMDPad,CuDef*%
%ADD41R,3.000000X3.000000*%
%TD*%
%TA.AperFunction,ComponentPad*%
%ADD42R,1.300000X2.500000*%
%TD*%
%TA.AperFunction,ComponentPad*%
%ADD43O,1.200000X2.500000*%
%TD*%
%TA.AperFunction,ComponentPad*%
%ADD44O,1.500000X2.500000*%
%TD*%
%TA.AperFunction,ComponentPad*%
%ADD45C,3.000000*%
%TD*%
%TA.AperFunction,SMDPad,CuDef*%
%ADD46RoundRect,0.250000X0.400000X0.625000X-0.400000X0.625000X-0.400000X-0.625000X0.400000X-0.625000X0*%
%TD*%
%TA.AperFunction,Conductor*%
%ADD47C,0.800000*%
%TD*%
%TA.AperFunction,Conductor*%
%ADD48C,1.200000*%
%TD*%
%TA.AperFunction,Conductor*%
%ADD49C,3.000000*%
%TD*%
%TA.AperFunction,Conductor*%
%ADD50C,2.000000*%
%TD*%
%TA.AperFunction,Conductor*%
%ADD51C,0.600000*%
%TD*%
G04 APERTURE END LIST*
D10*
%TO.P,F1,1*%
%TO.N,Net-(J9-Pin_1)*%
X3300000Y24700000D03*
%TO.P,F1,2*%
%TO.N,Net-(D1-Pad4)*%
X3300000Y36100000D03*
%TD*%
D11*
%TO.P,D5,1,K*%
%TO.N,+5V*%
X82040000Y48500000D03*
D12*
%TO.P,D5,2,A*%
%TO.N,Net-(BZ1--)*%
X92200000Y48500000D03*
%TD*%
D13*
%TO.P,D4,1,K*%
%TO.N,+5V*%
X76340000Y47330000D03*
D12*
%TO.P,D4,2,A*%
%TO.N,Net-(D4-A)*%
X76340000Y57490000D03*
%TD*%
D14*
%TO.P,J8,1,Pin_1*%
%TO.N,+5V*%
X12975000Y96900000D03*
D15*
%TO.P,J8,2,Pin_2*%
%TO.N,GND*%
X10435000Y96900000D03*
%TD*%
D14*
%TO.P,J1,1,Pin_1*%
%TO.N,+3V3*%
X25570000Y73200000D03*
D16*
%TO.P,J1,2,Pin_2*%
%TO.N,+5V*%
X25570000Y70660000D03*
%TO.P,J1,3,Pin_3*%
%TO.N,/GPIO2{slash}SDA1*%
X28110000Y73200000D03*
%TO.P,J1,4,Pin_4*%
%TO.N,+5V*%
X28110000Y70660000D03*
%TO.P,J1,5,Pin_5*%
%TO.N,/GPIO3{slash}SCL1*%
X30650000Y73200000D03*
%TO.P,J1,6,Pin_6*%
%TO.N,GND*%
X30650000Y70660000D03*
%TO.P,J1,7,Pin_7*%
%TO.N,/GPIO4{slash}GPCLK0*%
X33190000Y73200000D03*
%TO.P,J1,8,Pin_8*%
%TO.N,/GPIO14{slash}TXD0*%
X33190000Y70660000D03*
%TO.P,J1,9,Pin_9*%
%TO.N,GND*%
X35730000Y73200000D03*
%TO.P,J1,10,Pin_10*%
%TO.N,/GPIO15{slash}RXD0*%
X35730000Y70660000D03*
%TO.P,J1,11,Pin_11*%
%TO.N,/GPIO17*%
X38270000Y73200000D03*
%TO.P,J1,12,Pin_12*%
%TO.N,/GPIO18{slash}PCM.CLK*%
X38270000Y70660000D03*
%TO.P,J1,13,Pin_13*%
%TO.N,/GPIO27*%
X40810000Y73200000D03*
%TO.P,J1,14,Pin_14*%
%TO.N,unconnected-(J1-Pin_14-Pad14)*%
X40810000Y70660000D03*
%TO.P,J1,15,Pin_15*%
%TO.N,/GPIO22*%
X43350000Y73200000D03*
%TO.P,J1,16,Pin_16*%
%TO.N,/GPIO23*%
X43350000Y70660000D03*
%TO.P,J1,17,Pin_17*%
%TO.N,unconnected-(J1-Pin_17-Pad17)*%
X45890000Y73200000D03*
%TO.P,J1,18,Pin_18*%
%TO.N,/GPIO24*%
X45890000Y70660000D03*
%TO.P,J1,19,Pin_19*%
%TO.N,/GPIO10{slash}SPI0.MOSI*%
X48430000Y73200000D03*
%TO.P,J1,20,Pin_20*%
%TO.N,unconnected-(J1-Pin_20-Pad20)*%
X48430000Y70660000D03*
%TO.P,J1,21,Pin_21*%
%TO.N,/GPIO9{slash}SPI0.MISO*%
X50970000Y73200000D03*
%TO.P,J1,22,Pin_22*%
%TO.N,/GPIO25*%
X50970000Y70660000D03*
%TO.P,J1,23,Pin_23*%
%TO.N,/GPIO11{slash}SPI0.SCLK*%
X53510000Y73200000D03*
%TO.P,J1,24,Pin_24*%
%TO.N,/GPIO8{slash}SPI0.CE0*%
X53510000Y70660000D03*
%TO.P,J1,25,Pin_25*%
%TO.N,unconnected-(J1-Pin_25-Pad25)*%
X56050000Y73200000D03*
%TO.P,J1,26,Pin_26*%
%TO.N,/GPIO7{slash}SPI0.CE1*%
X56050000Y70660000D03*
%TO.P,J1,27,Pin_27*%
%TO.N,/ID_SDA*%
X58590000Y73200000D03*
%TO.P,J1,28,Pin_28*%
%TO.N,/ID_SCL*%
X58590000Y70660000D03*
%TO.P,J1,29,Pin_29*%
%TO.N,/GPIO5*%
X61130000Y73200000D03*
%TO.P,J1,30,Pin_30*%
%TO.N,unconnected-(J1-Pin_30-Pad30)*%
X61130000Y70660000D03*
%TO.P,J1,31,Pin_31*%
%TO.N,/GPIO6*%
X63670000Y73200000D03*
%TO.P,J1,32,Pin_32*%
%TO.N,Sound*%
X63670000Y70660000D03*
%TO.P,J1,33,Pin_33*%
%TO.N,/GPIO13{slash}PWM1*%
X66210000Y73200000D03*
%TO.P,J1,34,Pin_34*%
%TO.N,unconnected-(J1-Pin_34-Pad34)*%
X66210000Y70660000D03*
%TO.P,J1,35,Pin_35*%
%TO.N,/GPIO19{slash}PCM.FS*%
X68750000Y73200000D03*
%TO.P,J1,36,Pin_36*%
%TO.N,/GPIO16*%
X68750000Y70660000D03*
%TO.P,J1,37,Pin_37*%
%TO.N,/GPIO26*%
X71290000Y73200000D03*
%TO.P,J1,38,Pin_38*%
%TO.N,/GPIO20{slash}PCM.DIN*%
X71290000Y70660000D03*
%TO.P,J1,39,Pin_39*%
%TO.N,unconnected-(J1-Pin_39-Pad39)*%
X73830000Y73200000D03*
%TO.P,J1,40,Pin_40*%
%TO.N,/GPIO21{slash}PCM.DOUT*%
X73830000Y70660000D03*
%TD*%
D17*
%TO.P,R5,1*%
%TO.N,+5V*%
X1500000Y47700000D03*
%TO.P,R5,2*%
%TO.N,Net-(U1-FB)*%
X4600000Y47700000D03*
%TD*%
D14*
%TO.P,J2,1,Pin_1*%
%TO.N,+5V*%
X31760000Y27150000D03*
D15*
%TO.P,J2,2,Pin_2*%
%TO.N,Net-(J2-Pin_2)*%
X34300000Y27150000D03*
%TO.P,J2,3,Pin_3*%
%TO.N,Net-(J2-Pin_3)*%
X36840000Y27150000D03*
%TO.P,J2,4,Pin_4*%
%TO.N,GND*%
X39380000Y27150000D03*
%TD*%
D18*
%TO.P,Q1,1,C*%
%TO.N,Net-(D4-A)*%
X84800000Y59680000D03*
D19*
%TO.P,Q1,2,B*%
%TO.N,Net-(Q1-B)*%
X87340000Y57140000D03*
%TO.P,Q1,3,E*%
%TO.N,GND*%
X84800000Y54600000D03*
%TD*%
D20*
%TO.P,C6,1*%
%TO.N,Net-(C5-Pad1)*%
X93800000Y89850000D03*
%TO.P,C6,2*%
%TO.N,Net-(Q2-B)*%
X93800000Y82350000D03*
%TD*%
D21*
%TO.P,U1,1,VIN*%
%TO.N,Net-(D1-+)*%
X17175000Y46575000D03*
D22*
%TO.P,U1,2,OUT*%
%TO.N,Net-(D6-K)*%
X15475000Y46575000D03*
%TO.P,U1,3,GND*%
%TO.N,GND*%
X13775000Y46575000D03*
D23*
X13775000Y36925000D03*
D22*
%TO.P,U1,4,FB*%
%TO.N,Net-(U1-FB)*%
X12075000Y46575000D03*
%TO.P,U1,5,~{ON}/OFF*%
%TO.N,GND*%
X10375000Y46575000D03*
%TD*%
D20*
%TO.P,C5,1*%
%TO.N,Net-(C5-Pad1)*%
X86800000Y91600000D03*
%TO.P,C5,2*%
%TO.N,GND*%
X81800000Y91600000D03*
%TD*%
D24*
%TO.P,J4,1*%
%TO.N,GND*%
X64150000Y8600000D03*
%TO.P,J4,2*%
X61550000Y8600000D03*
%TO.P,J4,3*%
%TO.N,Net-(J2-Pin_2)*%
X66250000Y8600000D03*
%TO.P,J4,4*%
%TO.N,Net-(J2-Pin_3)*%
X59450000Y8600000D03*
D25*
%TO.P,J4,5*%
%TO.N,GND*%
X66250000Y11100000D03*
%TO.P,J4,6*%
%TO.N,Net-(D3-K)*%
X59450000Y11100000D03*
D26*
%TO.P,J4,C1*%
%TO.N,N/C*%
X69600000Y5600000D03*
%TO.P,J4,C2*%
X56100000Y5600000D03*
%TO.P,J4,SH*%
X62850000Y4800000D03*
%TD*%
D27*
%TO.P,D2,1,K*%
%TO.N,GND*%
X93800000Y9830000D03*
D28*
%TO.P,D2,2,A*%
%TO.N,Net-(D2-A)*%
X93800000Y12370000D03*
%TD*%
D18*
%TO.P,Q2,1,C*%
%TO.N,Net-(Q2-C)*%
X96300000Y62600000D03*
D19*
%TO.P,Q2,2,B*%
%TO.N,Net-(Q2-B)*%
X93760000Y60060000D03*
%TO.P,Q2,3,E*%
%TO.N,GND*%
X91220000Y62600000D03*
%TD*%
D20*
%TO.P,R8,1*%
%TO.N,GND*%
X79720000Y86600000D03*
%TO.P,R8,2*%
%TO.N,Net-(C5-Pad1)*%
X89880000Y86600000D03*
%TD*%
%TO.P,R3,1*%
%TO.N,GND*%
X56880000Y65600000D03*
%TO.P,R3,2*%
%TO.N,/GPIO15{slash}RXD0*%
X46720000Y65600000D03*
%TD*%
D29*
%TO.P,J3,1,In*%
%TO.N,Net-(J3-In)*%
X12550000Y14300000D03*
D30*
%TO.P,J3,2,Ext*%
%TO.N,Net-(D1--)*%
X12550000Y8000000D03*
D31*
%TO.P,J3,3*%
%TO.N,N/C*%
X17350000Y11400000D03*
%TD*%
D32*
%TO.P,K1,1*%
%TO.N,Net-(D4-A)*%
X71420000Y55100000D03*
D33*
%TO.P,K1,4*%
%TO.N,/GPIO14{slash}TXD0*%
X63800000Y55100000D03*
%TO.P,K1,6*%
%TO.N,Net-(J2-Pin_2)*%
X58720000Y55100000D03*
%TO.P,K1,8*%
%TO.N,Net-(J2-Pin_3)*%
X53640000Y55100000D03*
%TO.P,K1,9*%
%TO.N,Net-(J2-Pin_2)*%
X53640000Y47480000D03*
%TO.P,K1,11*%
%TO.N,Net-(J2-Pin_3)*%
X58720000Y47480000D03*
%TO.P,K1,13*%
%TO.N,Net-(K1-Pad13)*%
X63800000Y47480000D03*
%TO.P,K1,16*%
%TO.N,+5V*%
X71420000Y47480000D03*
%TD*%
D20*
%TO.P,R4,1*%
%TO.N,/GPIO16*%
X77720000Y68600000D03*
%TO.P,R4,2*%
%TO.N,Net-(Q1-B)*%
X87880000Y68600000D03*
%TD*%
D14*
%TO.P,J5,1,Pin_1*%
%TO.N,Net-(J5-Pin_1)*%
X78775000Y40350000D03*
D15*
%TO.P,J5,2,Pin_2*%
%TO.N,Net-(J5-Pin_2)*%
X81315000Y40350000D03*
%TD*%
D34*
%TO.P,BZ1,1,+*%
%TO.N,+5V*%
X88150000Y35200000D03*
D20*
%TO.P,BZ1,2,-*%
%TO.N,Net-(BZ1--)*%
X95750000Y35200000D03*
%TD*%
D35*
%TO.P,D6,1,K*%
%TO.N,Net-(D6-K)*%
X15500000Y54550000D03*
%TO.P,D6,2,A*%
%TO.N,GND*%
X15500000Y61350000D03*
%TD*%
D36*
%TO.P,C2,1*%
%TO.N,+5V*%
X26900000Y62282500D03*
%TO.P,C2,2*%
%TO.N,GND*%
X26900000Y54282500D03*
%TD*%
D37*
%TO.P,D1,1,+*%
%TO.N,Net-(D1-+)*%
X10750000Y26030000D03*
D38*
%TO.P,D1,2*%
%TO.N,GND*%
X10750000Y20950000D03*
%TO.P,D1,3,-*%
%TO.N,Net-(D1--)*%
X15830000Y20950000D03*
%TO.P,D1,4*%
%TO.N,Net-(D1-Pad4)*%
X15830000Y26030000D03*
%TD*%
D39*
%TO.P,D3,1,K*%
%TO.N,Net-(D3-K)*%
X60400000Y20550000D03*
D40*
%TO.P,D3,2,A*%
%TO.N,+5V*%
X47700000Y20550000D03*
%TD*%
D20*
%TO.P,R1,1*%
%TO.N,+5V*%
X74870000Y25800000D03*
%TO.P,R1,2*%
%TO.N,Net-(D2-A)*%
X85030000Y25800000D03*
%TD*%
%TO.P,R10,1*%
%TO.N,Net-(Q2-C)*%
X96300000Y56600000D03*
%TO.P,R10,2*%
%TO.N,Net-(BZ1--)*%
X96300000Y46440000D03*
%TD*%
D14*
%TO.P,J7,1,Pin_1*%
%TO.N,GND*%
X43600000Y38850000D03*
D15*
%TO.P,J7,2,Pin_2*%
%TO.N,Net-(D3-K)*%
X43600000Y41390000D03*
%TO.P,J7,3,Pin_3*%
%TO.N,Net-(J2-Pin_2)*%
X43600000Y43930000D03*
%TO.P,J7,4,Pin_4*%
%TO.N,Net-(J2-Pin_3)*%
X43600000Y46470000D03*
%TD*%
D41*
%TO.P,L1,1,1*%
%TO.N,Net-(D6-K)*%
X5370000Y54660000D03*
%TO.P,L1,2,2*%
%TO.N,+5V*%
X5350000Y65000000D03*
%TD*%
D20*
%TO.P,R9,1*%
%TO.N,Net-(Q2-B)*%
X93800000Y78100000D03*
%TO.P,R9,2*%
%TO.N,+5V*%
X83640000Y78100000D03*
%TD*%
D36*
%TO.P,C1,1*%
%TO.N,Net-(D1-+)*%
X26900000Y46600000D03*
%TO.P,C1,2*%
%TO.N,GND*%
X26900000Y38600000D03*
%TD*%
D42*
%TO.P,J6,1,VBUS*%
%TO.N,Net-(D3-K)*%
X77750000Y12940000D03*
D43*
%TO.P,J6,2,D-*%
%TO.N,Net-(J5-Pin_1)*%
X80250000Y12940000D03*
%TO.P,J6,3,D+*%
%TO.N,Net-(J5-Pin_2)*%
X82250000Y12940000D03*
D44*
%TO.P,J6,4,GND*%
%TO.N,GND*%
X84750000Y12940000D03*
D45*
%TO.P,J6,5,Shield*%
X74680000Y10230000D03*
X87820000Y10230000D03*
%TD*%
D46*
%TO.P,R6,1*%
%TO.N,Net-(U1-FB)*%
X4550000Y43300000D03*
%TO.P,R6,2*%
%TO.N,GND*%
X1450000Y43300000D03*
%TD*%
D20*
%TO.P,R2,1*%
%TO.N,/GPIO15{slash}RXD0*%
X46720000Y62100000D03*
%TO.P,R2,2*%
%TO.N,Net-(K1-Pad13)*%
X56880000Y62100000D03*
%TD*%
%TO.P,R7,1*%
%TO.N,Sound*%
X78220000Y74100000D03*
%TO.P,R7,2*%
%TO.N,Net-(C5-Pad1)*%
X88380000Y74100000D03*
%TD*%
D14*
%TO.P,J9,1,Pin_1*%
%TO.N,Net-(J9-Pin_1)*%
X3100000Y14775000D03*
D15*
%TO.P,J9,2,Pin_2*%
%TO.N,Net-(J3-In)*%
X3100000Y12235000D03*
%TD*%
D47*
%TO.N,+5V*%
X83640000Y65190000D02*
X82150000Y63700000D01*
X83640000Y78100000D02*
X83640000Y65190000D01*
X82150000Y48610000D02*
X82040000Y48500000D01*
X82150000Y63700000D02*
X82150000Y48610000D01*
X31760000Y27150000D02*
X31760000Y59990000D01*
X31760000Y59990000D02*
X29467500Y62282500D01*
X29467500Y62282500D02*
X26900000Y62282500D01*
X2750000Y65000000D02*
X1750000Y64000000D01*
D48*
X25570000Y70660000D02*
X26900000Y70660000D01*
D47*
X5350000Y65000000D02*
X2750000Y65000000D01*
X1750000Y64000000D02*
X1750000Y47950000D01*
D49*
X5350000Y65000000D02*
X26650000Y65000000D01*
D47*
X1750000Y47950000D02*
X1500000Y47700000D01*
D48*
X26900000Y70660000D02*
X26900000Y69330000D01*
D50*
X26650000Y65000000D02*
X26900000Y65250000D01*
D48*
X28110000Y70660000D02*
X26900000Y70660000D01*
D50*
X26900000Y69330000D02*
X26900000Y65250000D01*
X26900000Y65250000D02*
X26900000Y62282500D01*
%TO.N,Net-(D6-K)*%
X15500000Y54350000D02*
X15190000Y54660000D01*
D49*
X15190000Y54660000D02*
X5370000Y54660000D01*
D47*
X15475000Y49525000D02*
X15475000Y46075000D01*
D51*
X15500000Y46100000D02*
X15475000Y46075000D01*
D50*
X15500000Y50650000D02*
X15500000Y54350000D01*
%TO.N,Net-(D1-+)*%
X21100000Y46350000D02*
X21150000Y46400000D01*
X21100000Y29650000D02*
X21100000Y46350000D01*
X21150000Y46400000D02*
X26700000Y46400000D01*
X10750000Y26030000D02*
X10750000Y27800000D01*
X10750000Y27800000D02*
X12600000Y29650000D01*
X12600000Y29650000D02*
X21100000Y29650000D01*
X26700000Y46400000D02*
X26900000Y46600000D01*
X21150000Y46400000D02*
X17550000Y46400000D01*
D51*
%TO.N,Net-(U1-FB)*%
X12100000Y46100000D02*
X12075000Y46075000D01*
D47*
X4600000Y47700000D02*
X4600000Y43350000D01*
X4600000Y47700000D02*
X4600000Y49900000D01*
D51*
X4700000Y50000000D02*
X12100000Y50000000D01*
X12100000Y50000000D02*
X12100000Y46100000D01*
X4600000Y49900000D02*
X4700000Y50000000D01*
D47*
X4600000Y43350000D02*
X4550000Y43300000D01*
%TO.N,Net-(D3-K)*%
X60400000Y20550000D02*
X60400000Y33550000D01*
X52700000Y41250000D02*
X43740000Y41250000D01*
X43740000Y41250000D02*
X43600000Y41390000D01*
X60400000Y33550000D02*
X52700000Y41250000D01*
%TO.N,Net-(J2-Pin_3)*%
X36950000Y27260000D02*
X36840000Y27150000D01*
X36950000Y43250000D02*
X36950000Y27260000D01*
X40170000Y46470000D02*
X36950000Y43250000D01*
X43600000Y46470000D02*
X40170000Y46470000D01*
%TO.N,Net-(J2-Pin_2)*%
X53640000Y47480000D02*
X53640000Y44610000D01*
X70400000Y10500000D02*
X68500000Y8600000D01*
X68500000Y8600000D02*
X66250000Y8600000D01*
X70400000Y27850000D02*
X70400000Y10500000D01*
X53640000Y44610000D02*
X70400000Y27850000D01*
%TD*%
%TA.AperFunction,Conductor*%
%TO.N,GND*%
G36*
X99542539Y99530315D02*
G01*
X99588294Y99477511D01*
X99599500Y99426000D01*
X99599500Y226834D01*
X99579815Y159795D01*
X99527011Y114040D01*
X99474449Y102838D01*
X88473264Y196068D01*
X88406394Y216320D01*
X88361088Y269510D01*
X88350317Y320844D01*
X88361752Y2138911D01*
X88372363Y3825962D01*
X94449500Y3825962D01*
X94449500Y3574038D01*
X94484865Y3350754D01*
X94488910Y3325215D01*
X94566760Y3085617D01*
X94681132Y2861152D01*
X94829201Y2657351D01*
X94829205Y2657346D01*
X95007345Y2479206D01*
X95007350Y2479202D01*
X95125387Y2393444D01*
X95211155Y2331130D01*
X95354184Y2258253D01*
X95435616Y2216761D01*
X95435618Y2216761D01*
X95435621Y2216759D01*
X95675215Y2138910D01*
X95924038Y2099500D01*
X95924039Y2099500D01*
X96175961Y2099500D01*
X96175962Y2099500D01*
X96424785Y2138910D01*
X96664379Y2216759D01*
X96888845Y2331130D01*
X97092656Y2479207D01*
X97270793Y2657344D01*
X97418870Y2861155D01*
X97533241Y3085621D01*
X97611090Y3325215D01*
X97650500Y3574038D01*
X97650500Y3825962D01*
X97611090Y4074785D01*
X97533241Y4314379D01*
X97533239Y4314382D01*
X97533239Y4314384D01*
X97491747Y4395816D01*
X97418870Y4538845D01*
X97399952Y4564883D01*
X97270798Y4742650D01*
X97270794Y4742655D01*
X97092654Y4920795D01*
X97092649Y4920799D01*
X96888848Y5068868D01*
X96888847Y5068869D01*
X96888845Y5068870D01*
X96818747Y5104587D01*
X96664383Y5183240D01*
X96424785Y5261090D01*
X96175962Y5300500D01*
X95924038Y5300500D01*
X95799626Y5280795D01*
X95675214Y5261090D01*
X95435616Y5183240D01*
X95211151Y5068868D01*
X95007350Y4920799D01*
X95007345Y4920795D01*
X94829205Y4742655D01*
X94829201Y4742650D01*
X94681132Y4538849D01*
X94566760Y4314384D01*
X94513593Y4150752D01*
X94488910Y4074785D01*
X94449500Y3825962D01*
X88372363Y3825962D01*
X88399112Y8078952D01*
X88399243Y8079082D01*
X88399243Y8099772D01*
X88399374Y8120600D01*
X88399372Y8120602D01*
X88399373Y8120606D01*
X88399247Y8120914D01*
X88384557Y8135604D01*
X88369978Y8150367D01*
X88369792Y8150369D01*
X88369661Y8150500D01*
X88348822Y8150500D01*
X88328143Y8150630D01*
X88328011Y8150500D01*
X74345578Y8150500D01*
X74345557Y8150504D01*
X74320912Y8150502D01*
X74300005Y8150501D01*
X74299993Y8150500D01*
X74279077Y8150500D01*
X74279076Y8150499D01*
X74267965Y8139385D01*
X74267959Y8139379D01*
X74264287Y8135705D01*
X74249500Y8120918D01*
X74249500Y8120915D01*
X74249498Y8120912D01*
X74249498Y8117538D01*
X74249498Y8117537D01*
X74249500Y8103614D01*
X74249500Y8054443D01*
X74249504Y8054420D01*
X74250400Y324514D01*
X74230723Y257473D01*
X74177925Y211712D01*
X74126400Y200500D01*
X174412Y200500D01*
X107373Y220185D01*
X61618Y272989D01*
X50412Y324438D01*
X48660Y3825962D01*
X2449500Y3825962D01*
X2449500Y3574038D01*
X2484865Y3350754D01*
X2488910Y3325215D01*
X2566760Y3085617D01*
X2681132Y2861152D01*
X2829201Y2657351D01*
X2829205Y2657346D01*
X3007345Y2479206D01*
X3007350Y2479202D01*
X3125387Y2393444D01*
X3211155Y2331130D01*
X3354184Y2258253D01*
X3435616Y2216761D01*
X3435618Y2216761D01*
X3435621Y2216759D01*
X3675215Y2138910D01*
X3924038Y2099500D01*
X3924039Y2099500D01*
X4175961Y2099500D01*
X4175962Y2099500D01*
X4424785Y2138910D01*
X4664379Y2216759D01*
X4888845Y2331130D01*
X5092656Y2479207D01*
X5270793Y2657344D01*
X5418870Y2861155D01*
X5533241Y3085621D01*
X5611090Y3325215D01*
X5650500Y3574038D01*
X5650500Y3825962D01*
X5611090Y4074785D01*
X5533241Y4314379D01*
X5533239Y4314382D01*
X5533239Y4314384D01*
X5491747Y4395816D01*
X5418870Y4538845D01*
X5399952Y4564883D01*
X5270798Y4742650D01*
X5270794Y4742655D01*
X5092654Y4920795D01*
X5092649Y4920799D01*
X4888848Y5068868D01*
X4888847Y5068869D01*
X4888845Y5068870D01*
X4818747Y5104587D01*
X4664383Y5183240D01*
X4424785Y5261090D01*
X4175962Y5300500D01*
X3924038Y5300500D01*
X3799626Y5280795D01*
X3675214Y5261090D01*
X3435616Y5183240D01*
X3211151Y5068868D01*
X3007350Y4920799D01*
X3007345Y4920795D01*
X2829205Y4742655D01*
X2829201Y4742650D01*
X2681132Y4538849D01*
X2566760Y4314384D01*
X2513593Y4150752D01*
X2488910Y4074785D01*
X2449500Y3825962D01*
X48660Y3825962D01*
X48658Y3830772D01*
X47963Y5219513D01*
X47702Y5740432D01*
X53599500Y5740432D01*
X53599500Y5459569D01*
X53630942Y5180506D01*
X53630945Y5180488D01*
X53693439Y4906683D01*
X53693443Y4906671D01*
X53786200Y4641589D01*
X53908053Y4388558D01*
X53913122Y4380491D01*
X54057477Y4150752D01*
X54232584Y3931175D01*
X54431175Y3732584D01*
X54650752Y3557477D01*
X54888555Y3408055D01*
X55141592Y3286199D01*
X55340680Y3216535D01*
X55406670Y3193444D01*
X55406682Y3193440D01*
X55680491Y3130945D01*
X55680497Y3130945D01*
X55680505Y3130943D01*
X55866547Y3109982D01*
X55959569Y3099501D01*
X55959572Y3099500D01*
X55959575Y3099500D01*
X56240428Y3099500D01*
X56240429Y3099501D01*
X56383055Y3115571D01*
X56519494Y3130943D01*
X56519499Y3130944D01*
X56519509Y3130945D01*
X56793318Y3193440D01*
X57058408Y3286199D01*
X57311445Y3408055D01*
X57549248Y3557477D01*
X57768825Y3732584D01*
X57967416Y3931175D01*
X58142523Y4150752D01*
X58291945Y4388555D01*
X58413801Y4641592D01*
X58506560Y4906682D01*
X58514263Y4940432D01*
X60349500Y4940432D01*
X60349500Y4659569D01*
X60380942Y4380506D01*
X60380945Y4380488D01*
X60443439Y4106683D01*
X60443443Y4106671D01*
X60536200Y3841589D01*
X60658053Y3588558D01*
X60658055Y3588555D01*
X60807477Y3350752D01*
X60982584Y3131175D01*
X61181175Y2932584D01*
X61400752Y2757477D01*
X61638555Y2608055D01*
X61891592Y2486199D01*
X62090680Y2416535D01*
X62156670Y2393444D01*
X62156682Y2393440D01*
X62430491Y2330945D01*
X62430497Y2330945D01*
X62430505Y2330943D01*
X62616547Y2309982D01*
X62709569Y2299501D01*
X62709572Y2299500D01*
X62709575Y2299500D01*
X62990428Y2299500D01*
X62990429Y2299501D01*
X63133055Y2315571D01*
X63269494Y2330943D01*
X63269499Y2330944D01*
X63269509Y2330945D01*
X63543318Y2393440D01*
X63808408Y2486199D01*
X64061445Y2608055D01*
X64299248Y2757477D01*
X64518825Y2932584D01*
X64717416Y3131175D01*
X64892523Y3350752D01*
X65041945Y3588555D01*
X65163801Y3841592D01*
X65256560Y4106682D01*
X65319055Y4380491D01*
X65350500Y4659575D01*
X65350500Y4940425D01*
X65323452Y5180488D01*
X65319057Y5219495D01*
X65319054Y5219513D01*
X65256560Y5493318D01*
X65256556Y5493330D01*
X65233465Y5559320D01*
X65163801Y5758408D01*
X65041945Y6011445D01*
X64892523Y6249248D01*
X64717416Y6468825D01*
X64518825Y6667416D01*
X64299248Y6842523D01*
X64061445Y6991945D01*
X64061442Y6991947D01*
X63808411Y7113800D01*
X63543329Y7206557D01*
X63543317Y7206561D01*
X63269512Y7269055D01*
X63269494Y7269058D01*
X62990431Y7300500D01*
X62990425Y7300500D01*
X62709575Y7300500D01*
X62709568Y7300500D01*
X62430505Y7269058D01*
X62430487Y7269055D01*
X62156682Y7206561D01*
X62156670Y7206557D01*
X61891588Y7113800D01*
X61638557Y6991947D01*
X61400753Y6842524D01*
X61181175Y6667417D01*
X60982583Y6468825D01*
X60807476Y6249247D01*
X60658053Y6011443D01*
X60536200Y5758412D01*
X60443443Y5493330D01*
X60443439Y5493318D01*
X60380945Y5219513D01*
X60380942Y5219495D01*
X60349500Y4940432D01*
X58514263Y4940432D01*
X58569055Y5180491D01*
X58600500Y5459575D01*
X58600500Y5740425D01*
X58569055Y6019509D01*
X58506560Y6293318D01*
X58413801Y6558408D01*
X58291945Y6811445D01*
X58142523Y7049248D01*
X57967416Y7268825D01*
X57768825Y7467416D01*
X57549248Y7642523D01*
X57311445Y7791945D01*
X57311442Y7791947D01*
X57058411Y7913800D01*
X56793329Y8006557D01*
X56793317Y8006561D01*
X56519512Y8069055D01*
X56519494Y8069058D01*
X56240431Y8100500D01*
X56240425Y8100500D01*
X55959575Y8100500D01*
X55959568Y8100500D01*
X55680505Y8069058D01*
X55680487Y8069055D01*
X55406682Y8006561D01*
X55406670Y8006557D01*
X55141588Y7913800D01*
X54888557Y7791947D01*
X54650753Y7642524D01*
X54431175Y7467417D01*
X54232583Y7268825D01*
X54057476Y7049247D01*
X53908053Y6811443D01*
X53786200Y6558412D01*
X53693443Y6293330D01*
X53693439Y6293318D01*
X53630945Y6019513D01*
X53630942Y6019495D01*
X53599500Y5740432D01*
X47702Y5740432D01*
X46513Y8118005D01*
X9649500Y8118005D01*
X9649500Y7881996D01*
X9649501Y7881980D01*
X9680306Y7647990D01*
X9741394Y7420007D01*
X9831714Y7201955D01*
X9831719Y7201944D01*
X9882609Y7113801D01*
X9949727Y6997550D01*
X9949729Y6997547D01*
X9949730Y6997546D01*
X10093406Y6810303D01*
X10093412Y6810296D01*
X10260295Y6643413D01*
X10260301Y6643408D01*
X10447550Y6499727D01*
X10578918Y6423882D01*
X10651943Y6381720D01*
X10651948Y6381718D01*
X10651951Y6381716D01*
X10870007Y6291394D01*
X11097986Y6230307D01*
X11331989Y6199500D01*
X11331996Y6199500D01*
X13768004Y6199500D01*
X13768011Y6199500D01*
X14002014Y6230307D01*
X14229993Y6291394D01*
X14448049Y6381716D01*
X14652450Y6499727D01*
X14839699Y6643408D01*
X15006592Y6810301D01*
X15150273Y6997550D01*
X15268284Y7201951D01*
X15358606Y7420007D01*
X15419693Y7647986D01*
X15450500Y7881989D01*
X15450500Y8118011D01*
X15419693Y8352014D01*
X15358606Y8579993D01*
X15268284Y8798049D01*
X15268282Y8798052D01*
X15268280Y8798057D01*
X15184361Y8943407D01*
X15150273Y9002450D01*
X15006592Y9189699D01*
X15006587Y9189705D01*
X14839704Y9356588D01*
X14839697Y9356594D01*
X14652454Y9500270D01*
X14652453Y9500271D01*
X14652450Y9500273D01*
X14570957Y9547323D01*
X14448056Y9618281D01*
X14448045Y9618286D01*
X14229993Y9708606D01*
X14002010Y9769694D01*
X13768020Y9800499D01*
X13768017Y9800500D01*
X13768011Y9800500D01*
X11331989Y9800500D01*
X11331983Y9800500D01*
X11331979Y9800499D01*
X11097989Y9769694D01*
X10870006Y9708606D01*
X10651954Y9618286D01*
X10651943Y9618281D01*
X10460909Y9507986D01*
X10450457Y9501951D01*
X10447545Y9500270D01*
X10260302Y9356594D01*
X10260295Y9356588D01*
X10093412Y9189705D01*
X10093406Y9189698D01*
X9949730Y9002455D01*
X9831719Y8798057D01*
X9831714Y8798046D01*
X9741394Y8579994D01*
X9680306Y8352011D01*
X9649501Y8118021D01*
X9649500Y8118005D01*
X46513Y8118005D01*
X42735Y15669961D01*
X1449500Y15669961D01*
X1449500Y13880040D01*
X1464630Y13745751D01*
X1464631Y13745746D01*
X1524211Y13575477D01*
X1620184Y13422738D01*
X1720576Y13322346D01*
X1754061Y13261023D01*
X1749077Y13191331D01*
X1733214Y13161781D01*
X1688367Y13100054D01*
X1570422Y12868577D01*
X1490140Y12621494D01*
X1449500Y12364903D01*
X1449500Y12105098D01*
X1490140Y11848507D01*
X1570422Y11601424D01*
X1651534Y11442236D01*
X1684446Y11377642D01*
X1688368Y11369946D01*
X1804414Y11210222D01*
X1841069Y11159771D01*
X2024771Y10976069D01*
X2234949Y10823366D01*
X2335664Y10772049D01*
X2466423Y10705423D01*
X2466425Y10705423D01*
X2466428Y10705421D01*
X2713507Y10625140D01*
X2845706Y10604203D01*
X2970098Y10584500D01*
X2970103Y10584500D01*
X3229902Y10584500D01*
X3343298Y10602461D01*
X3486493Y10625140D01*
X3733572Y10705421D01*
X3965051Y10823366D01*
X4175229Y10976069D01*
X4358931Y11159771D01*
X4511634Y11369949D01*
X4629579Y11601428D01*
X4709860Y11848507D01*
X4738659Y12030340D01*
X4750500Y12105098D01*
X4750500Y12364903D01*
X4718017Y12569988D01*
X4709860Y12621493D01*
X4629579Y12868572D01*
X4629577Y12868575D01*
X4629577Y12868577D01*
X4521854Y13079993D01*
X4511634Y13100051D01*
X4466785Y13161781D01*
X4443306Y13227584D01*
X4459131Y13295638D01*
X4479423Y13322345D01*
X4479424Y13322346D01*
X4579816Y13422738D01*
X4675789Y13575478D01*
X4735368Y13745745D01*
X4750500Y13880046D01*
X4750500Y15344961D01*
X9449500Y15344961D01*
X9449500Y13255040D01*
X9464630Y13120751D01*
X9464631Y13120746D01*
X9524211Y12950477D01*
X9575673Y12868577D01*
X9620184Y12797738D01*
X9747738Y12670184D01*
X9900478Y12574211D01*
X9912547Y12569988D01*
X10070745Y12514632D01*
X10070750Y12514631D01*
X10161246Y12504435D01*
X10205040Y12499501D01*
X10205043Y12499500D01*
X10205046Y12499500D01*
X14894957Y12499500D01*
X14894958Y12499501D01*
X14962104Y12507066D01*
X15029249Y12514631D01*
X15029252Y12514632D01*
X15029255Y12514632D01*
X15199522Y12574211D01*
X15352262Y12670184D01*
X15352262Y12670185D01*
X15358158Y12673889D01*
X15359602Y12671591D01*
X15412849Y12693341D01*
X15481547Y12680599D01*
X15532450Y12632739D01*
X15549500Y12569988D01*
X15549500Y10181996D01*
X15549501Y10181980D01*
X15580306Y9947990D01*
X15641394Y9720007D01*
X15731714Y9501955D01*
X15731719Y9501944D01*
X15774440Y9427951D01*
X15849727Y9297550D01*
X15849729Y9297547D01*
X15849730Y9297546D01*
X15993406Y9110303D01*
X15993412Y9110296D01*
X16160295Y8943413D01*
X16160301Y8943408D01*
X16347550Y8799727D01*
X16478918Y8723882D01*
X16551943Y8681720D01*
X16551948Y8681718D01*
X16551951Y8681716D01*
X16770007Y8591394D01*
X16997986Y8530307D01*
X17231989Y8499500D01*
X17231996Y8499500D01*
X17468004Y8499500D01*
X17468011Y8499500D01*
X17702014Y8530307D01*
X17929993Y8591394D01*
X18148049Y8681716D01*
X18352450Y8799727D01*
X18539699Y8943408D01*
X18706592Y9110301D01*
X18850273Y9297550D01*
X18965455Y9497053D01*
X18968280Y9501944D01*
X18968280Y9501945D01*
X18968284Y9501951D01*
X19058606Y9720007D01*
X19119693Y9947986D01*
X19150500Y10181989D01*
X19150500Y11210222D01*
X57649500Y11210222D01*
X57649500Y10989778D01*
X57659921Y10923985D01*
X57683985Y10772048D01*
X57752103Y10562397D01*
X57752104Y10562394D01*
X57801213Y10466015D01*
X57835922Y10397895D01*
X57852187Y10365975D01*
X57981752Y10187642D01*
X57981756Y10187637D01*
X57981758Y10187635D01*
X58137635Y10031758D01*
X58209087Y9979845D01*
X58251753Y9924516D01*
X58257732Y9854903D01*
X58246687Y9823232D01*
X58152104Y9637607D01*
X58152103Y9637604D01*
X58083985Y9427953D01*
X58049500Y9210222D01*
X58049500Y7989779D01*
X58083985Y7772048D01*
X58152103Y7562397D01*
X58152104Y7562394D01*
X58252187Y7365975D01*
X58381752Y7187642D01*
X58381756Y7187637D01*
X58537636Y7031757D01*
X58537641Y7031753D01*
X58592430Y6991947D01*
X58715978Y6902185D01*
X58833068Y6842524D01*
X58912393Y6802105D01*
X58912396Y6802104D01*
X59017221Y6768045D01*
X59122049Y6733985D01*
X59339778Y6699500D01*
X59339779Y6699500D01*
X59560221Y6699500D01*
X59560222Y6699500D01*
X59777951Y6733985D01*
X59987606Y6802105D01*
X60184022Y6902185D01*
X60362365Y7031758D01*
X60518242Y7187635D01*
X60647815Y7365978D01*
X60747895Y7562394D01*
X60816015Y7772049D01*
X60850500Y7989778D01*
X60850500Y9210222D01*
X60816015Y9427951D01*
X60754173Y9618284D01*
X60747896Y9637604D01*
X60747893Y9637611D01*
X60653313Y9823231D01*
X60640416Y9891900D01*
X60666692Y9956641D01*
X60690907Y9979842D01*
X60762365Y10031758D01*
X60918242Y10187635D01*
X61047815Y10365978D01*
X61147895Y10562394D01*
X61216015Y10772049D01*
X61250500Y10989778D01*
X61250500Y11210222D01*
X61216015Y11427951D01*
X61147895Y11637606D01*
X61147895Y11637607D01*
X61089405Y11752397D01*
X61047815Y11834022D01*
X61031260Y11856808D01*
X60918247Y12012359D01*
X60918243Y12012364D01*
X60762363Y12168244D01*
X60762358Y12168248D01*
X60584025Y12297813D01*
X60584024Y12297814D01*
X60584022Y12297815D01*
X60521096Y12329878D01*
X60387606Y12397896D01*
X60387603Y12397897D01*
X60177952Y12466015D01*
X60063369Y12484163D01*
X59960222Y12500500D01*
X58939778Y12500500D01*
X58867201Y12489005D01*
X58722047Y12466015D01*
X58512396Y12397897D01*
X58512393Y12397896D01*
X58315974Y12297813D01*
X58137641Y12168248D01*
X58137636Y12168244D01*
X57981756Y12012364D01*
X57981752Y12012359D01*
X57852187Y11834026D01*
X57752104Y11637607D01*
X57752103Y11637604D01*
X57683985Y11427953D01*
X57661775Y11287721D01*
X57649500Y11210222D01*
X19150500Y11210222D01*
X19150500Y12618011D01*
X19119693Y12852014D01*
X19058606Y13079993D01*
X18968284Y13298049D01*
X18968282Y13298052D01*
X18968280Y13298057D01*
X18926118Y13371082D01*
X18850273Y13502450D01*
X18706592Y13689699D01*
X18706587Y13689705D01*
X18539704Y13856588D01*
X18539697Y13856594D01*
X18352454Y14000270D01*
X18352453Y14000271D01*
X18352450Y14000273D01*
X18270957Y14047323D01*
X18148056Y14118281D01*
X18148045Y14118286D01*
X17929993Y14208606D01*
X17702010Y14269694D01*
X17468020Y14300499D01*
X17468017Y14300500D01*
X17468011Y14300500D01*
X17231989Y14300500D01*
X17231983Y14300500D01*
X17231979Y14300499D01*
X16997989Y14269694D01*
X16770006Y14208606D01*
X16551954Y14118286D01*
X16551943Y14118281D01*
X16347545Y14000270D01*
X16160302Y13856594D01*
X16160295Y13856588D01*
X15993412Y13689705D01*
X15993406Y13689698D01*
X15872876Y13532619D01*
X15816448Y13491416D01*
X15746702Y13487261D01*
X15685782Y13521473D01*
X15653029Y13583190D01*
X15650500Y13608105D01*
X15650500Y15344957D01*
X15650499Y15344961D01*
X15635369Y15479250D01*
X15635368Y15479255D01*
X15575788Y15649524D01*
X15479815Y15802263D01*
X15352262Y15929816D01*
X15199523Y16025789D01*
X15029254Y16085369D01*
X15029249Y16085370D01*
X14894960Y16100500D01*
X14894954Y16100500D01*
X10205046Y16100500D01*
X10205039Y16100500D01*
X10070750Y16085370D01*
X10070745Y16085369D01*
X9900476Y16025789D01*
X9747737Y15929816D01*
X9620184Y15802263D01*
X9524211Y15649524D01*
X9464631Y15479255D01*
X9464630Y15479250D01*
X9449500Y15344961D01*
X4750500Y15344961D01*
X4750500Y15669954D01*
X4735593Y15802262D01*
X4735369Y15804250D01*
X4735368Y15804255D01*
X4675788Y15974524D01*
X4606139Y16085369D01*
X4579816Y16127262D01*
X4452262Y16254816D01*
X4299523Y16350789D01*
X4129254Y16410369D01*
X4129249Y16410370D01*
X3994960Y16425500D01*
X3994954Y16425500D01*
X2205046Y16425500D01*
X2205039Y16425500D01*
X2070750Y16410370D01*
X2070745Y16410369D01*
X1900476Y16350789D01*
X1747737Y16254816D01*
X1620184Y16127263D01*
X1524211Y15974524D01*
X1464631Y15804255D01*
X1464630Y15804250D01*
X1449500Y15669961D01*
X42735Y15669961D01*
X42669Y15802262D01*
X41295Y18549501D01*
X40035Y21068005D01*
X14029500Y21068005D01*
X14029500Y20831996D01*
X14029501Y20831980D01*
X14060306Y20597990D01*
X14121394Y20370007D01*
X14211714Y20151955D01*
X14211719Y20151944D01*
X14282677Y20029043D01*
X14329727Y19947550D01*
X14329729Y19947547D01*
X14329730Y19947546D01*
X14473406Y19760303D01*
X14473412Y19760296D01*
X14640295Y19593413D01*
X14640302Y19593407D01*
X14698964Y19548394D01*
X14827550Y19449727D01*
X14923956Y19394067D01*
X15031943Y19331720D01*
X15031948Y19331718D01*
X15031951Y19331716D01*
X15250007Y19241394D01*
X15477986Y19180307D01*
X15711989Y19149500D01*
X15711996Y19149500D01*
X15948004Y19149500D01*
X15948011Y19149500D01*
X16182014Y19180307D01*
X16409993Y19241394D01*
X16628049Y19331716D01*
X16832450Y19449727D01*
X17019699Y19593408D01*
X17186592Y19760301D01*
X17330273Y19947550D01*
X17448284Y20151951D01*
X17538606Y20370007D01*
X17599693Y20597986D01*
X17610639Y20681128D01*
X45699500Y20681128D01*
X45699500Y20418873D01*
X45705934Y20370007D01*
X45733730Y20158884D01*
X45790358Y19947546D01*
X45801602Y19905582D01*
X45801605Y19905572D01*
X45901953Y19663310D01*
X45901958Y19663300D01*
X46033075Y19436197D01*
X46192718Y19228149D01*
X46192726Y19228140D01*
X46378140Y19042726D01*
X46378148Y19042719D01*
X46586196Y18883076D01*
X46813299Y18751959D01*
X46813309Y18751954D01*
X47055571Y18651606D01*
X47055581Y18651602D01*
X47308884Y18583730D01*
X47568880Y18549500D01*
X47568887Y18549500D01*
X47831113Y18549500D01*
X47831120Y18549500D01*
X48091116Y18583730D01*
X48344419Y18651602D01*
X48586697Y18751957D01*
X48813803Y18883076D01*
X49021851Y19042718D01*
X49021855Y19042723D01*
X49021860Y19042726D01*
X49207274Y19228140D01*
X49207277Y19228145D01*
X49207282Y19228149D01*
X49366924Y19436197D01*
X49498043Y19663303D01*
X49598398Y19905581D01*
X49666270Y20158884D01*
X49700500Y20418880D01*
X49700500Y20681120D01*
X49666270Y20941116D01*
X49598398Y21194419D01*
X49553831Y21302014D01*
X49498046Y21436691D01*
X49498041Y21436701D01*
X49366924Y21663804D01*
X49207281Y21871852D01*
X49207274Y21871860D01*
X49021860Y22057274D01*
X49021851Y22057282D01*
X48813803Y22216925D01*
X48586700Y22348042D01*
X48586690Y22348047D01*
X48344428Y22448395D01*
X48344421Y22448397D01*
X48344419Y22448398D01*
X48091116Y22516270D01*
X48033339Y22523877D01*
X47831127Y22550500D01*
X47831120Y22550500D01*
X47568880Y22550500D01*
X47568872Y22550500D01*
X47350743Y22521781D01*
X47308884Y22516270D01*
X47155724Y22475231D01*
X47055581Y22448398D01*
X47055571Y22448395D01*
X46813309Y22348047D01*
X46813299Y22348042D01*
X46586196Y22216925D01*
X46378148Y22057282D01*
X46192718Y21871852D01*
X46033075Y21663804D01*
X45901958Y21436701D01*
X45901953Y21436691D01*
X45801605Y21194429D01*
X45801602Y21194419D01*
X45733730Y20941115D01*
X45699500Y20681128D01*
X17610639Y20681128D01*
X17630500Y20831989D01*
X17630500Y21068011D01*
X17599693Y21302014D01*
X17538606Y21529993D01*
X17448284Y21748049D01*
X17448282Y21748052D01*
X17448280Y21748057D01*
X17406118Y21821082D01*
X17330273Y21952450D01*
X17186592Y22139699D01*
X17186587Y22139705D01*
X17019704Y22306588D01*
X17019697Y22306594D01*
X16832454Y22450270D01*
X16832453Y22450271D01*
X16832450Y22450273D01*
X16750957Y22497323D01*
X16628056Y22568281D01*
X16628045Y22568286D01*
X16409993Y22658606D01*
X16182010Y22719694D01*
X15948020Y22750499D01*
X15948017Y22750500D01*
X15948011Y22750500D01*
X15711989Y22750500D01*
X15711983Y22750500D01*
X15711979Y22750499D01*
X15477989Y22719694D01*
X15250006Y22658606D01*
X15031954Y22568286D01*
X15031943Y22568281D01*
X14827545Y22450270D01*
X14640302Y22306594D01*
X14640295Y22306588D01*
X14473412Y22139705D01*
X14473406Y22139698D01*
X14329730Y21952455D01*
X14211719Y21748057D01*
X14211714Y21748046D01*
X14121394Y21529994D01*
X14060306Y21302011D01*
X14029501Y21068021D01*
X14029500Y21068005D01*
X40035Y21068005D01*
X38159Y24818005D01*
X1499500Y24818005D01*
X1499500Y24581996D01*
X1499501Y24581980D01*
X1530306Y24347990D01*
X1591394Y24120007D01*
X1681714Y23901955D01*
X1681719Y23901944D01*
X1752677Y23779043D01*
X1799727Y23697550D01*
X1799729Y23697547D01*
X1799730Y23697546D01*
X1943406Y23510303D01*
X1943412Y23510296D01*
X2110295Y23343413D01*
X2110301Y23343408D01*
X2297550Y23199727D01*
X2428918Y23123882D01*
X2501943Y23081720D01*
X2501948Y23081718D01*
X2501951Y23081716D01*
X2720007Y22991394D01*
X2947986Y22930307D01*
X3181989Y22899500D01*
X3181996Y22899500D01*
X3418004Y22899500D01*
X3418011Y22899500D01*
X3652014Y22930307D01*
X3879993Y22991394D01*
X4098049Y23081716D01*
X4302450Y23199727D01*
X4489699Y23343408D01*
X4656592Y23510301D01*
X4800273Y23697550D01*
X4918284Y23901951D01*
X5008606Y24120007D01*
X5069693Y24347986D01*
X5100500Y24581989D01*
X5100500Y24818011D01*
X5069693Y25052014D01*
X5008606Y25279993D01*
X4918284Y25498049D01*
X4918282Y25498052D01*
X4918280Y25498057D01*
X4847631Y25620423D01*
X4800273Y25702450D01*
X4726128Y25799078D01*
X4656593Y25889698D01*
X4656587Y25889705D01*
X4489704Y26056588D01*
X4489697Y26056594D01*
X4302454Y26200270D01*
X4302453Y26200271D01*
X4302450Y26200273D01*
X4207591Y26255040D01*
X4098056Y26318281D01*
X4098045Y26318286D01*
X3879993Y26408606D01*
X3652010Y26469694D01*
X3418020Y26500499D01*
X3418017Y26500500D01*
X3418011Y26500500D01*
X3181989Y26500500D01*
X3181983Y26500500D01*
X3181979Y26500499D01*
X2947989Y26469694D01*
X2720006Y26408606D01*
X2501954Y26318286D01*
X2501943Y26318281D01*
X2297545Y26200270D01*
X2110302Y26056594D01*
X2110295Y26056588D01*
X1943412Y25889705D01*
X1943406Y25889698D01*
X1799730Y25702455D01*
X1681719Y25498057D01*
X1681714Y25498046D01*
X1591394Y25279994D01*
X1530306Y25052011D01*
X1499501Y24818021D01*
X1499500Y24818005D01*
X38159Y24818005D01*
X32456Y36218005D01*
X1499500Y36218005D01*
X1499500Y35981996D01*
X1499501Y35981980D01*
X1530306Y35747990D01*
X1591394Y35520007D01*
X1681714Y35301955D01*
X1681719Y35301944D01*
X1752677Y35179043D01*
X1799727Y35097550D01*
X1799729Y35097547D01*
X1799730Y35097546D01*
X1943406Y34910303D01*
X1943412Y34910296D01*
X2110295Y34743413D01*
X2110301Y34743408D01*
X2297550Y34599727D01*
X2428918Y34523882D01*
X2501943Y34481720D01*
X2501948Y34481718D01*
X2501951Y34481716D01*
X2720007Y34391394D01*
X2947986Y34330307D01*
X3181989Y34299500D01*
X3181996Y34299500D01*
X3418004Y34299500D01*
X3418011Y34299500D01*
X3652014Y34330307D01*
X3879993Y34391394D01*
X4098049Y34481716D01*
X4302450Y34599727D01*
X4489699Y34743408D01*
X4656592Y34910301D01*
X4800273Y35097550D01*
X4918284Y35301951D01*
X5008606Y35520007D01*
X5069693Y35747986D01*
X5100500Y35981989D01*
X5100500Y36218011D01*
X5069693Y36452014D01*
X5008606Y36679993D01*
X4918284Y36898049D01*
X4918282Y36898052D01*
X4918280Y36898057D01*
X4876118Y36971082D01*
X4800273Y37102450D01*
X4656592Y37289699D01*
X4656587Y37289705D01*
X4489704Y37456588D01*
X4489697Y37456594D01*
X4302454Y37600270D01*
X4302453Y37600271D01*
X4302450Y37600273D01*
X4220957Y37647323D01*
X4098056Y37718281D01*
X4098045Y37718286D01*
X3879993Y37808606D01*
X3652010Y37869694D01*
X3418020Y37900499D01*
X3418017Y37900500D01*
X3418011Y37900500D01*
X3181989Y37900500D01*
X3181983Y37900500D01*
X3181979Y37900499D01*
X2947989Y37869694D01*
X2720006Y37808606D01*
X2501954Y37718286D01*
X2501943Y37718281D01*
X2297545Y37600270D01*
X2110302Y37456594D01*
X2110295Y37456588D01*
X1943412Y37289705D01*
X1943406Y37289698D01*
X1799730Y37102455D01*
X1681719Y36898057D01*
X1681714Y36898046D01*
X1591394Y36679994D01*
X1530306Y36452011D01*
X1499501Y36218021D01*
X1499500Y36218005D01*
X32456Y36218005D01*
X27373Y46379471D01*
X47024Y46446517D01*
X99805Y46492299D01*
X168959Y46502277D01*
X232529Y46473284D01*
X247227Y46458194D01*
X353589Y46328590D01*
X417615Y46276046D01*
X513550Y46197315D01*
X696046Y46099768D01*
X894066Y46039700D01*
X894065Y46039700D01*
X932647Y46035900D01*
X1048392Y46024500D01*
X1048395Y46024500D01*
X1951605Y46024500D01*
X1951608Y46024500D01*
X2105934Y46039700D01*
X2303954Y46099768D01*
X2486450Y46197315D01*
X2646410Y46328590D01*
X2777685Y46488550D01*
X2875232Y46671046D01*
X2931339Y46856010D01*
X2969637Y46914448D01*
X3033449Y46942904D01*
X3102516Y46932344D01*
X3154909Y46886120D01*
X3168660Y46856011D01*
X3224768Y46671046D01*
X3314864Y46502489D01*
X3322317Y46488547D01*
X3371353Y46428797D01*
X3398666Y46364487D01*
X3399500Y46350132D01*
X3399500Y44710795D01*
X3379815Y44643756D01*
X3371354Y44632131D01*
X3328420Y44579815D01*
X3282116Y44523392D01*
X3272311Y44511445D01*
X3174769Y44328959D01*
X3114699Y44130933D01*
X3107703Y44059897D01*
X3099500Y43976608D01*
X3099500Y42623392D01*
X3104502Y42572602D01*
X3114699Y42469068D01*
X3144734Y42370056D01*
X3174768Y42271046D01*
X3272315Y42088550D01*
X3272317Y42088548D01*
X3403589Y41928590D01*
X3500209Y41849298D01*
X3563550Y41797315D01*
X3746046Y41699768D01*
X3944066Y41639700D01*
X3944065Y41639700D01*
X3982647Y41635900D01*
X4098392Y41624500D01*
X4098395Y41624500D01*
X5001605Y41624500D01*
X5001608Y41624500D01*
X5155934Y41639700D01*
X5353954Y41699768D01*
X5536450Y41797315D01*
X5696410Y41928590D01*
X5827685Y42088550D01*
X5925232Y42271046D01*
X5985300Y42469066D01*
X6000500Y42623392D01*
X6000500Y43976608D01*
X5985300Y44130934D01*
X5925232Y44328954D01*
X5925230Y44328957D01*
X5925230Y44328959D01*
X5827687Y44511448D01*
X5824302Y44516514D01*
X5825622Y44517397D01*
X5801333Y44574597D01*
X5800500Y44588944D01*
X5800500Y46350132D01*
X5820185Y46417171D01*
X5828647Y46428797D01*
X5865800Y46474068D01*
X5877685Y46488550D01*
X5975232Y46671046D01*
X6035300Y46869066D01*
X6050500Y47023392D01*
X6050500Y48376608D01*
X6035300Y48530934D01*
X5975232Y48728954D01*
X5975230Y48728957D01*
X5973463Y48734784D01*
X5974836Y48735201D01*
X5968141Y48797528D01*
X5999422Y48860004D01*
X6059514Y48895651D01*
X6090169Y48899500D01*
X10609640Y48899500D01*
X10676679Y48879815D01*
X10722434Y48827011D01*
X10733043Y48763346D01*
X10724500Y48676608D01*
X10724500Y44473392D01*
X10727194Y44446044D01*
X10739699Y44319068D01*
X10756540Y44263550D01*
X10799768Y44121046D01*
X10897315Y43938550D01*
X10897317Y43938548D01*
X11028589Y43778590D01*
X11111148Y43710837D01*
X11188550Y43647315D01*
X11371046Y43549768D01*
X11569066Y43489700D01*
X11569065Y43489700D01*
X11607647Y43485900D01*
X11723392Y43474500D01*
X11723395Y43474500D01*
X12426605Y43474500D01*
X12426608Y43474500D01*
X12580934Y43489700D01*
X12778954Y43549768D01*
X12961450Y43647315D01*
X13121410Y43778590D01*
X13252685Y43938550D01*
X13350232Y44121046D01*
X13410300Y44319066D01*
X13425500Y44473392D01*
X13425500Y48676608D01*
X13410300Y48830934D01*
X13350232Y49028954D01*
X13252685Y49211450D01*
X13244108Y49221901D01*
X13228647Y49240741D01*
X13201334Y49305051D01*
X13200500Y49319406D01*
X13200500Y50086611D01*
X13185705Y50180021D01*
X13173402Y50257701D01*
X13119873Y50422445D01*
X13041232Y50576788D01*
X12939414Y50716928D01*
X12816928Y50839414D01*
X12676788Y50941232D01*
X12522445Y51019873D01*
X12357701Y51073402D01*
X12357699Y51073403D01*
X12357698Y51073403D01*
X12226271Y51094219D01*
X12186611Y51100500D01*
X4786610Y51100500D01*
X4694481Y51100500D01*
X4505519Y51100500D01*
X4505514Y51100500D01*
X4318881Y51070941D01*
X4139163Y51012546D01*
X3970800Y50926760D01*
X3883579Y50863390D01*
X3817927Y50815690D01*
X3817925Y50815688D01*
X3817924Y50815688D01*
X3684312Y50682076D01*
X3684312Y50682075D01*
X3684310Y50682073D01*
X3636610Y50616421D01*
X3573240Y50529200D01*
X3487454Y50360837D01*
X3429059Y50181119D01*
X3399500Y49994487D01*
X3399500Y49049869D01*
X3379815Y48982830D01*
X3371354Y48971205D01*
X3341789Y48935179D01*
X3322315Y48911450D01*
X3294816Y48860004D01*
X3224769Y48728957D01*
X3193161Y48624758D01*
X3154863Y48566319D01*
X3091051Y48537863D01*
X3021984Y48548423D01*
X2969590Y48594647D01*
X2950500Y48660753D01*
X2950500Y52688354D01*
X2970185Y52755393D01*
X3022989Y52801148D01*
X3092147Y52811092D01*
X3155703Y52782067D01*
X3179492Y52754328D01*
X3240184Y52657738D01*
X3367738Y52530184D01*
X3520478Y52434211D01*
X3690745Y52374632D01*
X3690750Y52374631D01*
X3781246Y52364435D01*
X3825040Y52359501D01*
X3825043Y52359500D01*
X3825046Y52359500D01*
X5219217Y52359500D01*
X13575500Y52359500D01*
X13642539Y52339815D01*
X13688294Y52287011D01*
X13699500Y52235500D01*
X13699500Y50531996D01*
X13699501Y50531980D01*
X13730306Y50297990D01*
X13791394Y50070007D01*
X13881714Y49851955D01*
X13881719Y49851944D01*
X13952677Y49729043D01*
X13999727Y49647550D01*
X13999729Y49647547D01*
X13999730Y49647546D01*
X14143405Y49460304D01*
X14143407Y49460302D01*
X14143408Y49460301D01*
X14238182Y49365527D01*
X14252888Y49338596D01*
X14269477Y49312782D01*
X14270368Y49306583D01*
X14271666Y49304206D01*
X14274500Y49277847D01*
X14274500Y49199828D01*
X14259858Y49141375D01*
X14199769Y49028959D01*
X14139699Y48830933D01*
X14132118Y48753957D01*
X14124500Y48676608D01*
X14124500Y44473392D01*
X14127194Y44446044D01*
X14139699Y44319068D01*
X14156540Y44263550D01*
X14199768Y44121046D01*
X14297315Y43938550D01*
X14297317Y43938548D01*
X14428589Y43778590D01*
X14511148Y43710837D01*
X14588550Y43647315D01*
X14771046Y43549768D01*
X14969066Y43489700D01*
X14969065Y43489700D01*
X15007647Y43485900D01*
X15123392Y43474500D01*
X15123395Y43474500D01*
X15826605Y43474500D01*
X15826608Y43474500D01*
X15980934Y43489700D01*
X16178954Y43549768D01*
X16313319Y43621589D01*
X16381720Y43635830D01*
X16430225Y43621588D01*
X16471046Y43599768D01*
X16669066Y43539700D01*
X16669065Y43539700D01*
X16707647Y43535900D01*
X16823392Y43524500D01*
X16823395Y43524500D01*
X17526605Y43524500D01*
X17526608Y43524500D01*
X17680934Y43539700D01*
X17878954Y43599768D01*
X18061450Y43697315D01*
X18221410Y43828590D01*
X18352685Y43988550D01*
X18450232Y44171046D01*
X18510300Y44369066D01*
X18521980Y44487655D01*
X18548141Y44552441D01*
X18605175Y44592800D01*
X18645383Y44599500D01*
X19175500Y44599500D01*
X19242539Y44579815D01*
X19288294Y44527011D01*
X19299500Y44475500D01*
X19299500Y31574500D01*
X19279815Y31507461D01*
X19227011Y31461706D01*
X19175500Y31450500D01*
X12481989Y31450500D01*
X12481983Y31450500D01*
X12481979Y31450499D01*
X12247989Y31419694D01*
X12020002Y31358605D01*
X11892272Y31305698D01*
X11892272Y31305697D01*
X11801950Y31268284D01*
X11801947Y31268283D01*
X11801939Y31268279D01*
X11597557Y31150278D01*
X11597541Y31150267D01*
X11410302Y31006594D01*
X11410295Y31006588D01*
X9393412Y28989705D01*
X9393406Y28989698D01*
X9249733Y28802459D01*
X9249722Y28802443D01*
X9130353Y28595692D01*
X9128604Y28590537D01*
X9041394Y28379994D01*
X8980306Y28152011D01*
X8949501Y27918021D01*
X8949500Y27918005D01*
X8949500Y24985040D01*
X8964630Y24850751D01*
X8964631Y24850746D01*
X9024211Y24680477D01*
X9086091Y24581996D01*
X9120184Y24527738D01*
X9247738Y24400184D01*
X9400478Y24304211D01*
X9570745Y24244632D01*
X9570750Y24244631D01*
X9661246Y24234435D01*
X9705040Y24229501D01*
X9705043Y24229500D01*
X9705046Y24229500D01*
X11794957Y24229500D01*
X11794958Y24229501D01*
X11878471Y24238910D01*
X11929249Y24244631D01*
X11929252Y24244632D01*
X11929255Y24244632D01*
X12099522Y24304211D01*
X12252262Y24400184D01*
X12379816Y24527738D01*
X12475789Y24680478D01*
X12535368Y24850745D01*
X12550500Y24985046D01*
X12550500Y27002847D01*
X12570185Y27069886D01*
X12586819Y27090528D01*
X13309472Y27813181D01*
X13370795Y27846666D01*
X13397153Y27849500D01*
X14917693Y27849500D01*
X14984732Y27829815D01*
X15030487Y27777011D01*
X15040431Y27707853D01*
X15011406Y27644297D01*
X14979692Y27618113D01*
X14838324Y27536493D01*
X14827545Y27530270D01*
X14640302Y27386594D01*
X14640295Y27386588D01*
X14473412Y27219705D01*
X14473406Y27219698D01*
X14329730Y27032455D01*
X14211719Y26828057D01*
X14211714Y26828046D01*
X14121394Y26609994D01*
X14060306Y26382011D01*
X14029501Y26148021D01*
X14029500Y26148005D01*
X14029500Y25911996D01*
X14029501Y25911980D01*
X14060306Y25677990D01*
X14121394Y25450007D01*
X14211714Y25231955D01*
X14211719Y25231944D01*
X14282677Y25109043D01*
X14329727Y25027550D01*
X14329729Y25027547D01*
X14329730Y25027546D01*
X14473406Y24840303D01*
X14473412Y24840296D01*
X14640295Y24673413D01*
X14640301Y24673408D01*
X14827550Y24529727D01*
X14958918Y24453882D01*
X15031943Y24411720D01*
X15031948Y24411718D01*
X15031951Y24411716D01*
X15250007Y24321394D01*
X15477986Y24260307D01*
X15711989Y24229500D01*
X15711996Y24229500D01*
X15948004Y24229500D01*
X15948011Y24229500D01*
X16182014Y24260307D01*
X16409993Y24321394D01*
X16628049Y24411716D01*
X16832450Y24529727D01*
X17019699Y24673408D01*
X17186592Y24840301D01*
X17330273Y25027550D01*
X17448284Y25231951D01*
X17538606Y25450007D01*
X17599693Y25677986D01*
X17630500Y25911989D01*
X17630500Y26148011D01*
X17599693Y26382014D01*
X17538606Y26609993D01*
X17448284Y26828049D01*
X17448282Y26828052D01*
X17448280Y26828057D01*
X17406118Y26901082D01*
X17330273Y27032450D01*
X17225596Y27168868D01*
X17186593Y27219698D01*
X17186587Y27219705D01*
X17019704Y27386588D01*
X17019697Y27386594D01*
X16832454Y27530270D01*
X16832453Y27530271D01*
X16832450Y27530273D01*
X16680307Y27618113D01*
X16632091Y27668680D01*
X16618869Y27737287D01*
X16644837Y27802152D01*
X16701751Y27842680D01*
X16742307Y27849500D01*
X21218004Y27849500D01*
X21218011Y27849500D01*
X21452014Y27880307D01*
X21679993Y27941394D01*
X21898049Y28031716D01*
X22102450Y28149727D01*
X22289699Y28293408D01*
X22456592Y28460301D01*
X22600273Y28647550D01*
X22718284Y28851951D01*
X22808606Y29070007D01*
X22869693Y29297986D01*
X22900500Y29531989D01*
X22900500Y44475500D01*
X22920185Y44542539D01*
X22972989Y44588294D01*
X23024500Y44599500D01*
X24786254Y44599500D01*
X24853293Y44579815D01*
X24899048Y44527011D01*
X24904912Y44511501D01*
X24916472Y44473396D01*
X24924769Y44446043D01*
X24963136Y44374266D01*
X25022315Y44263550D01*
X25022317Y44263548D01*
X25153589Y44103590D01*
X25206823Y44059903D01*
X25313550Y43972315D01*
X25496046Y43874768D01*
X25694066Y43814700D01*
X25694065Y43814700D01*
X25732647Y43810900D01*
X25848392Y43799500D01*
X25848395Y43799500D01*
X27951605Y43799500D01*
X27951608Y43799500D01*
X28105934Y43814700D01*
X28303954Y43874768D01*
X28486450Y43972315D01*
X28646410Y44103590D01*
X28777685Y44263550D01*
X28875232Y44446046D01*
X28935300Y44644066D01*
X28950500Y44798392D01*
X28950500Y48401608D01*
X28935300Y48555934D01*
X28875232Y48753954D01*
X28777685Y48936450D01*
X28710103Y49018800D01*
X28646410Y49096411D01*
X28528677Y49193031D01*
X28486450Y49227685D01*
X28303954Y49325232D01*
X28105934Y49385300D01*
X28105932Y49385301D01*
X28105934Y49385301D01*
X27986805Y49397034D01*
X27951608Y49400500D01*
X25848392Y49400500D01*
X25810298Y49396749D01*
X25694067Y49385301D01*
X25496043Y49325231D01*
X25402140Y49275038D01*
X25313550Y49227685D01*
X25313548Y49227684D01*
X25313547Y49227683D01*
X25153589Y49096411D01*
X25028145Y48943554D01*
X25022315Y48936450D01*
X24983643Y48864102D01*
X24924769Y48753957D01*
X24864699Y48555933D01*
X24849500Y48401605D01*
X24849500Y48324500D01*
X24829815Y48257461D01*
X24777011Y48211706D01*
X24725500Y48200500D01*
X18649500Y48200500D01*
X18582461Y48220185D01*
X18536706Y48272989D01*
X18525500Y48324500D01*
X18525500Y48626605D01*
X18520575Y48676605D01*
X18510300Y48780934D01*
X18450232Y48978954D01*
X18352685Y49161450D01*
X18276959Y49253723D01*
X18221410Y49321411D01*
X18103677Y49418031D01*
X18061450Y49452685D01*
X17878954Y49550232D01*
X17680934Y49610300D01*
X17680932Y49610301D01*
X17680934Y49610301D01*
X17561805Y49622034D01*
X17526608Y49625500D01*
X17526605Y49625500D01*
X17202317Y49625500D01*
X17135278Y49645185D01*
X17089523Y49697989D01*
X17079579Y49767147D01*
X17094930Y49811500D01*
X17118280Y49851944D01*
X17118280Y49851945D01*
X17118284Y49851951D01*
X17208606Y50070007D01*
X17269693Y50297986D01*
X17300500Y50531989D01*
X17300500Y52498600D01*
X17320185Y52565639D01*
X17366046Y52607958D01*
X17486450Y52672315D01*
X17646410Y52803590D01*
X17777685Y52963550D01*
X17875232Y53146046D01*
X17935300Y53344066D01*
X17950500Y53498392D01*
X17950500Y55601608D01*
X17935300Y55755934D01*
X17875232Y55953954D01*
X17777685Y56136450D01*
X17688999Y56244515D01*
X17646410Y56296411D01*
X17486452Y56427683D01*
X17486453Y56427683D01*
X17486450Y56427685D01*
X17303954Y56525232D01*
X17105934Y56585300D01*
X17105932Y56585301D01*
X17105934Y56585301D01*
X16986805Y56597034D01*
X16951608Y56600500D01*
X16951605Y56600500D01*
X16463181Y56600500D01*
X16401181Y56617113D01*
X16376007Y56631647D01*
X16209668Y56727683D01*
X16209661Y56727686D01*
X15931060Y56843087D01*
X15639766Y56921139D01*
X15340793Y56960499D01*
X15340788Y56960500D01*
X15340783Y56960500D01*
X6914954Y56960500D01*
X3825046Y56960500D01*
X3825039Y56960500D01*
X3690750Y56945370D01*
X3690745Y56945369D01*
X3520476Y56885789D01*
X3367737Y56789816D01*
X3240184Y56662263D01*
X3240179Y56662257D01*
X3179493Y56565675D01*
X3127159Y56519384D01*
X3058105Y56508736D01*
X2994257Y56537111D01*
X2955885Y56595501D01*
X2950500Y56631647D01*
X2950500Y62996524D01*
X2970185Y63063563D01*
X3022989Y63109318D01*
X3092147Y63119262D01*
X3155703Y63090237D01*
X3179493Y63062497D01*
X3220184Y62997738D01*
X3347738Y62870184D01*
X3500478Y62774211D01*
X3670745Y62714632D01*
X3670750Y62714631D01*
X3761246Y62704435D01*
X3805040Y62699501D01*
X3805043Y62699500D01*
X3805046Y62699500D01*
X5199217Y62699500D01*
X24725500Y62699500D01*
X24792539Y62679815D01*
X24838294Y62627011D01*
X24849500Y62575500D01*
X24849500Y60480892D01*
X24850085Y60474957D01*
X24864699Y60326568D01*
X24864700Y60326566D01*
X24924768Y60128546D01*
X25022315Y59946050D01*
X25022317Y59946048D01*
X25153589Y59786090D01*
X25250209Y59706798D01*
X25313550Y59654815D01*
X25496046Y59557268D01*
X25694066Y59497200D01*
X25694065Y59497200D01*
X25732647Y59493400D01*
X25848392Y59482000D01*
X25848395Y59482000D01*
X27951605Y59482000D01*
X27951608Y59482000D01*
X28105934Y59497200D01*
X28303954Y59557268D01*
X28486450Y59654815D01*
X28646410Y59786090D01*
X28777685Y59946050D01*
X28875232Y60128546D01*
X28935300Y60326566D01*
X28950500Y60480892D01*
X28950500Y60802375D01*
X28970185Y60869414D01*
X29022989Y60915169D01*
X29092147Y60925113D01*
X29155703Y60896088D01*
X29162168Y60890068D01*
X29781118Y60271119D01*
X30523181Y59529056D01*
X30556666Y59467733D01*
X30559500Y59441375D01*
X30559500Y28793708D01*
X30539815Y28726669D01*
X30501473Y28688715D01*
X30407741Y28629819D01*
X30407739Y28629818D01*
X30280184Y28502263D01*
X30184211Y28349524D01*
X30124631Y28179255D01*
X30124630Y28179250D01*
X30109500Y28044961D01*
X30109500Y26255040D01*
X30124630Y26120751D01*
X30124631Y26120746D01*
X30184211Y25950477D01*
X30244636Y25854312D01*
X30280184Y25797738D01*
X30407738Y25670184D01*
X30560478Y25574211D01*
X30730745Y25514632D01*
X30730750Y25514631D01*
X30821246Y25504435D01*
X30865040Y25499501D01*
X30865043Y25499500D01*
X30865046Y25499500D01*
X32654957Y25499500D01*
X32654958Y25499501D01*
X32722104Y25507066D01*
X32789249Y25514631D01*
X32789252Y25514632D01*
X32789255Y25514632D01*
X32959522Y25574211D01*
X33112262Y25670184D01*
X33212655Y25770577D01*
X33273978Y25804062D01*
X33343670Y25799078D01*
X33373218Y25783217D01*
X33434949Y25738366D01*
X33505428Y25702455D01*
X33666423Y25620423D01*
X33666425Y25620423D01*
X33666428Y25620421D01*
X33913507Y25540140D01*
X34045706Y25519203D01*
X34170098Y25499500D01*
X34170103Y25499500D01*
X34429902Y25499500D01*
X34543298Y25517461D01*
X34686493Y25540140D01*
X34933572Y25620421D01*
X35165051Y25738366D01*
X35375229Y25891069D01*
X35482319Y25998159D01*
X35543642Y26031644D01*
X35613334Y26026660D01*
X35657681Y25998159D01*
X35764771Y25891069D01*
X35974949Y25738366D01*
X36101199Y25674038D01*
X36206423Y25620423D01*
X36206425Y25620423D01*
X36206428Y25620421D01*
X36453507Y25540140D01*
X36585706Y25519203D01*
X36710098Y25499500D01*
X36710103Y25499500D01*
X36969902Y25499500D01*
X37083298Y25517461D01*
X37226493Y25540140D01*
X37473572Y25620421D01*
X37705051Y25738366D01*
X37915229Y25891069D01*
X38098931Y26074771D01*
X38251634Y26284949D01*
X38369579Y26516428D01*
X38449860Y26763507D01*
X38472539Y26906702D01*
X38490500Y27020098D01*
X38490500Y27279903D01*
X38468947Y27415979D01*
X38449860Y27536493D01*
X38369579Y27783572D01*
X38369577Y27783575D01*
X38369577Y27783577D01*
X38320290Y27880307D01*
X38251634Y28015051D01*
X38229903Y28044961D01*
X38174182Y28121656D01*
X38150702Y28187462D01*
X38150500Y28194541D01*
X38150500Y42701375D01*
X38170185Y42768414D01*
X38186819Y42789056D01*
X40630944Y45233181D01*
X40692267Y45266666D01*
X40718625Y45269500D01*
X42305978Y45269500D01*
X42373017Y45249815D01*
X42418772Y45197011D01*
X42428716Y45127853D01*
X42399691Y45064297D01*
X42393659Y45057819D01*
X42341071Y45005232D01*
X42341066Y45005226D01*
X42188368Y44795055D01*
X42070422Y44563577D01*
X41990140Y44316494D01*
X41949500Y44059903D01*
X41949500Y43800098D01*
X41990140Y43543507D01*
X42070422Y43296424D01*
X42188368Y43064946D01*
X42341066Y42854775D01*
X42341071Y42854769D01*
X42448159Y42747681D01*
X42481644Y42686358D01*
X42476660Y42616666D01*
X42448159Y42572319D01*
X42341071Y42465232D01*
X42341066Y42465226D01*
X42188368Y42255055D01*
X42070422Y42023577D01*
X41990140Y41776494D01*
X41949500Y41519903D01*
X41949500Y41260098D01*
X41990140Y41003507D01*
X42070422Y40756424D01*
X42080578Y40736493D01*
X42188366Y40524949D01*
X42341069Y40314771D01*
X42524771Y40131069D01*
X42734949Y39978366D01*
X42882445Y39903213D01*
X42966423Y39860423D01*
X42966425Y39860423D01*
X42966428Y39860421D01*
X43213507Y39780140D01*
X43345706Y39759203D01*
X43470098Y39739500D01*
X43470103Y39739500D01*
X43729902Y39739500D01*
X43843298Y39757461D01*
X43986493Y39780140D01*
X44233572Y39860421D01*
X44465051Y39978366D01*
X44512970Y40013181D01*
X44530364Y40025818D01*
X44596170Y40049298D01*
X44603249Y40049500D01*
X52151374Y40049500D01*
X52218413Y40029815D01*
X52239055Y40013181D01*
X59163181Y33089055D01*
X59196666Y33027732D01*
X59199500Y33001374D01*
X59199500Y22613746D01*
X59179815Y22546707D01*
X59127011Y22500952D01*
X59111496Y22495086D01*
X59046044Y22475231D01*
X58863551Y22377687D01*
X58863549Y22377685D01*
X58703589Y22246411D01*
X58572315Y22086451D01*
X58572313Y22086449D01*
X58474770Y21903959D01*
X58414699Y21705932D01*
X58399500Y21551604D01*
X58399500Y19548398D01*
X58414699Y19394069D01*
X58474770Y19196042D01*
X58572313Y19013552D01*
X58572315Y19013550D01*
X58703589Y18853590D01*
X58863549Y18722316D01*
X58863551Y18722314D01*
X59046041Y18624771D01*
X59046043Y18624771D01*
X59046046Y18624769D01*
X59244067Y18564700D01*
X59244066Y18564700D01*
X59254970Y18563627D01*
X59398393Y18549500D01*
X61401606Y18549501D01*
X61555933Y18564700D01*
X61753954Y18624769D01*
X61936450Y18722315D01*
X62096410Y18853590D01*
X62227685Y19013550D01*
X62325231Y19196046D01*
X62385300Y19394067D01*
X62400500Y19548393D01*
X62400499Y21551606D01*
X62385300Y21705933D01*
X62325231Y21903954D01*
X62325229Y21903957D01*
X62325229Y21903959D01*
X62227686Y22086449D01*
X62227684Y22086451D01*
X62096410Y22246411D01*
X61936450Y22377685D01*
X61936448Y22377687D01*
X61753955Y22475231D01*
X61688504Y22495086D01*
X61630065Y22533384D01*
X61601609Y22597196D01*
X61600500Y22613746D01*
X61600500Y33644487D01*
X61570940Y33831119D01*
X61522823Y33979206D01*
X61512547Y34010832D01*
X61512545Y34010835D01*
X61512545Y34010837D01*
X61467290Y34099653D01*
X61426760Y34179199D01*
X61339356Y34299500D01*
X61315690Y34332074D01*
X53482074Y42165690D01*
X53329199Y42276760D01*
X53160836Y42362546D01*
X52981118Y42420941D01*
X52794486Y42450500D01*
X52794481Y42450500D01*
X44925022Y42450500D01*
X44895581Y42459145D01*
X44865595Y42465668D01*
X44860579Y42469423D01*
X44857983Y42470185D01*
X44837341Y42486819D01*
X44751841Y42572319D01*
X44718356Y42633642D01*
X44723340Y42703334D01*
X44751841Y42747681D01*
X44793216Y42789056D01*
X44858931Y42854771D01*
X45011634Y43064949D01*
X45129579Y43296428D01*
X45209860Y43543507D01*
X45247093Y43778590D01*
X45250500Y43800098D01*
X45250500Y44059903D01*
X45218245Y44263550D01*
X45209860Y44316493D01*
X45129579Y44563572D01*
X45129577Y44563575D01*
X45129577Y44563577D01*
X45086787Y44647555D01*
X45011634Y44795051D01*
X44858931Y45005229D01*
X44751841Y45112319D01*
X44718356Y45173642D01*
X44723340Y45243334D01*
X44751841Y45287681D01*
X44858931Y45394771D01*
X45011634Y45604949D01*
X45129579Y45836428D01*
X45209860Y46083507D01*
X45232539Y46226702D01*
X45250500Y46340098D01*
X45250500Y46599903D01*
X45228947Y46735979D01*
X45209860Y46856493D01*
X45129579Y47103572D01*
X45129577Y47103575D01*
X45129577Y47103577D01*
X45048066Y47263550D01*
X45011634Y47335051D01*
X44858931Y47545229D01*
X44806062Y47598098D01*
X52139500Y47598098D01*
X52139500Y47361903D01*
X52176446Y47128632D01*
X52249433Y46904004D01*
X52302680Y46799502D01*
X52356657Y46693567D01*
X52415818Y46612139D01*
X52439298Y46546334D01*
X52439500Y46539254D01*
X52439500Y44515514D01*
X52469059Y44328882D01*
X52527454Y44149164D01*
X52587115Y44032074D01*
X52613240Y43980801D01*
X52724310Y43827926D01*
X52724312Y43827924D01*
X69163181Y27389055D01*
X69196666Y27327732D01*
X69199500Y27301374D01*
X69199500Y11048626D01*
X69179815Y10981587D01*
X69163181Y10960945D01*
X68039055Y9836819D01*
X67977732Y9803334D01*
X67951374Y9800500D01*
X67535351Y9800500D01*
X67468312Y9820185D01*
X67435035Y9851612D01*
X67318242Y10012365D01*
X67162365Y10168242D01*
X67162363Y10168244D01*
X67162358Y10168248D01*
X66984025Y10297813D01*
X66984024Y10297814D01*
X66984022Y10297815D01*
X66921096Y10329878D01*
X66787606Y10397896D01*
X66787603Y10397897D01*
X66577952Y10466015D01*
X66469086Y10483258D01*
X66360222Y10500500D01*
X66139778Y10500500D01*
X66067201Y10489005D01*
X65922047Y10466015D01*
X65712396Y10397897D01*
X65712393Y10397896D01*
X65515974Y10297813D01*
X65337641Y10168248D01*
X65337636Y10168244D01*
X65181756Y10012364D01*
X65181752Y10012359D01*
X65052187Y9834026D01*
X64952104Y9637607D01*
X64952103Y9637604D01*
X64883985Y9427953D01*
X64849500Y9210222D01*
X64849500Y7989779D01*
X64883985Y7772048D01*
X64952103Y7562397D01*
X64952104Y7562394D01*
X65052187Y7365975D01*
X65181752Y7187642D01*
X65181756Y7187637D01*
X65337636Y7031757D01*
X65337641Y7031753D01*
X65392430Y6991947D01*
X65515978Y6902185D01*
X65633068Y6842524D01*
X65712393Y6802105D01*
X65712396Y6802104D01*
X65817221Y6768045D01*
X65922049Y6733985D01*
X66139778Y6699500D01*
X66139779Y6699500D01*
X66360221Y6699500D01*
X66360222Y6699500D01*
X66577951Y6733985D01*
X66787606Y6802105D01*
X66984022Y6902185D01*
X67162365Y7031758D01*
X67318242Y7187635D01*
X67435034Y7348387D01*
X67439365Y7351727D01*
X67441638Y7356703D01*
X67466734Y7372832D01*
X67490362Y7391051D01*
X67497035Y7392305D01*
X67500416Y7394477D01*
X67535351Y7399500D01*
X67579305Y7399500D01*
X67646344Y7379815D01*
X67692099Y7327011D01*
X67702043Y7257853D01*
X67676252Y7198187D01*
X67557476Y7049247D01*
X67408053Y6811443D01*
X67286200Y6558412D01*
X67193443Y6293330D01*
X67193439Y6293318D01*
X67130945Y6019513D01*
X67130942Y6019495D01*
X67099500Y5740432D01*
X67099500Y5459569D01*
X67130942Y5180506D01*
X67130945Y5180488D01*
X67193439Y4906683D01*
X67193443Y4906671D01*
X67286200Y4641589D01*
X67408053Y4388558D01*
X67413122Y4380491D01*
X67557477Y4150752D01*
X67732584Y3931175D01*
X67931175Y3732584D01*
X68150752Y3557477D01*
X68388555Y3408055D01*
X68641592Y3286199D01*
X68840680Y3216535D01*
X68906670Y3193444D01*
X68906682Y3193440D01*
X69180491Y3130945D01*
X69180497Y3130945D01*
X69180505Y3130943D01*
X69366547Y3109982D01*
X69459569Y3099501D01*
X69459572Y3099500D01*
X69459575Y3099500D01*
X69740428Y3099500D01*
X69740429Y3099501D01*
X69883055Y3115571D01*
X70019494Y3130943D01*
X70019499Y3130944D01*
X70019509Y3130945D01*
X70293318Y3193440D01*
X70558408Y3286199D01*
X70811445Y3408055D01*
X71049248Y3557477D01*
X71268825Y3732584D01*
X71467416Y3931175D01*
X71642523Y4150752D01*
X71791945Y4388555D01*
X71913801Y4641592D01*
X72006560Y4906682D01*
X72069055Y5180491D01*
X72100500Y5459575D01*
X72100500Y5740425D01*
X72069055Y6019509D01*
X72006560Y6293318D01*
X71913801Y6558408D01*
X71791945Y6811445D01*
X71642523Y7049248D01*
X71467416Y7268825D01*
X71268825Y7467416D01*
X71049248Y7642523D01*
X70811445Y7791945D01*
X70811442Y7791947D01*
X70558411Y7913800D01*
X70293329Y8006557D01*
X70293317Y8006561D01*
X70019512Y8069055D01*
X70019496Y8069057D01*
X69958402Y8075941D01*
X69893988Y8103008D01*
X69854433Y8160603D01*
X69852296Y8230440D01*
X69884603Y8286840D01*
X71315690Y9717927D01*
X71426760Y9870801D01*
X71512547Y10039168D01*
X71570940Y10218882D01*
X71600500Y10405514D01*
X71600500Y14234961D01*
X76299500Y14234961D01*
X76299500Y11645040D01*
X76314630Y11510751D01*
X76314631Y11510746D01*
X76374211Y11340477D01*
X76448808Y11221758D01*
X76470184Y11187738D01*
X76597738Y11060184D01*
X76652506Y11025771D01*
X76706086Y10992104D01*
X76750478Y10964211D01*
X76878255Y10919500D01*
X76920745Y10904632D01*
X76920750Y10904631D01*
X77011246Y10894435D01*
X77055040Y10889501D01*
X77055043Y10889500D01*
X77055046Y10889500D01*
X78444957Y10889500D01*
X78444958Y10889501D01*
X78512104Y10897066D01*
X78579249Y10904631D01*
X78579252Y10904632D01*
X78579255Y10904632D01*
X78749522Y10964211D01*
X78902262Y11060184D01*
X79029816Y11187738D01*
X79079001Y11266016D01*
X79131330Y11312302D01*
X79200384Y11322952D01*
X79264232Y11294577D01*
X79271672Y11287721D01*
X79337636Y11221757D01*
X79337641Y11221753D01*
X79422953Y11159771D01*
X79515978Y11092185D01*
X79644375Y11026763D01*
X79712393Y10992105D01*
X79712396Y10992104D01*
X79798241Y10964212D01*
X79922049Y10923985D01*
X80139778Y10889500D01*
X80139779Y10889500D01*
X80360221Y10889500D01*
X80360222Y10889500D01*
X80577951Y10923985D01*
X80787606Y10992105D01*
X80984022Y11092185D01*
X81162365Y11221758D01*
X81162371Y11221765D01*
X81166061Y11224915D01*
X81166736Y11224125D01*
X81223642Y11255197D01*
X81293334Y11250213D01*
X81333498Y11224400D01*
X81333939Y11224915D01*
X81337641Y11221753D01*
X81422953Y11159771D01*
X81515978Y11092185D01*
X81644375Y11026763D01*
X81712393Y10992105D01*
X81712396Y10992104D01*
X81798241Y10964212D01*
X81922049Y10923985D01*
X82139778Y10889500D01*
X82139779Y10889500D01*
X82360221Y10889500D01*
X82360222Y10889500D01*
X82577951Y10923985D01*
X82787606Y10992105D01*
X82984022Y11092185D01*
X83162365Y11221758D01*
X83318242Y11377635D01*
X83447815Y11555978D01*
X83547895Y11752394D01*
X83616015Y11962049D01*
X83650500Y12179778D01*
X83650500Y12484163D01*
X91899500Y12484163D01*
X91899500Y12255838D01*
X91935215Y12030340D01*
X92005770Y11813197D01*
X92091448Y11645046D01*
X92109421Y11609772D01*
X92243621Y11425063D01*
X92405063Y11263621D01*
X92589772Y11129421D01*
X92662846Y11092188D01*
X92793196Y11025771D01*
X92793198Y11025771D01*
X92793201Y11025769D01*
X92909592Y10987951D01*
X93010339Y10955216D01*
X93235838Y10919500D01*
X93235843Y10919500D01*
X94364162Y10919500D01*
X94589660Y10955216D01*
X94607292Y10960945D01*
X94806799Y11025769D01*
X95010228Y11129421D01*
X95194937Y11263621D01*
X95356379Y11425063D01*
X95490579Y11609772D01*
X95594231Y11813201D01*
X95664784Y12030340D01*
X95700500Y12255838D01*
X95700500Y12484163D01*
X95664784Y12709661D01*
X95613150Y12868572D01*
X95594231Y12926799D01*
X95594229Y12926802D01*
X95594229Y12926804D01*
X95505953Y13100054D01*
X95490579Y13130228D01*
X95356379Y13314937D01*
X95194937Y13476379D01*
X95010228Y13610579D01*
X94806803Y13714230D01*
X94589660Y13784785D01*
X94364162Y13820500D01*
X94364157Y13820500D01*
X93235843Y13820500D01*
X93235838Y13820500D01*
X93010339Y13784785D01*
X92793196Y13714230D01*
X92589771Y13610579D01*
X92405061Y13476378D01*
X92243622Y13314939D01*
X92109421Y13130229D01*
X92005770Y12926804D01*
X91935215Y12709661D01*
X91899500Y12484163D01*
X83650500Y12484163D01*
X83650500Y13700222D01*
X83616015Y13917951D01*
X83550924Y14118284D01*
X83547896Y14127604D01*
X83547895Y14127607D01*
X83475497Y14269693D01*
X83447815Y14324022D01*
X83414955Y14369250D01*
X83318247Y14502359D01*
X83318243Y14502364D01*
X83162363Y14658244D01*
X83162358Y14658248D01*
X82984025Y14787813D01*
X82984024Y14787814D01*
X82984022Y14787815D01*
X82921096Y14819878D01*
X82787606Y14887896D01*
X82787603Y14887897D01*
X82577952Y14956015D01*
X82455749Y14975370D01*
X82360222Y14990500D01*
X82139778Y14990500D01*
X82067201Y14979005D01*
X81922047Y14956015D01*
X81712396Y14887897D01*
X81712393Y14887896D01*
X81515974Y14787813D01*
X81337641Y14658248D01*
X81333939Y14655085D01*
X81333263Y14655876D01*
X81276358Y14624803D01*
X81206666Y14629787D01*
X81166501Y14655601D01*
X81166061Y14655085D01*
X81162358Y14658248D01*
X80984025Y14787813D01*
X80984024Y14787814D01*
X80984022Y14787815D01*
X80921096Y14819878D01*
X80787606Y14887896D01*
X80787603Y14887897D01*
X80577952Y14956015D01*
X80455749Y14975370D01*
X80360222Y14990500D01*
X80139778Y14990500D01*
X80067201Y14979005D01*
X79922047Y14956015D01*
X79712396Y14887897D01*
X79712393Y14887896D01*
X79515974Y14787813D01*
X79337641Y14658249D01*
X79271671Y14592279D01*
X79210347Y14558795D01*
X79140656Y14563781D01*
X79084723Y14605653D01*
X79079004Y14613980D01*
X79029816Y14692262D01*
X78902262Y14819816D01*
X78749523Y14915789D01*
X78579254Y14975369D01*
X78579249Y14975370D01*
X78444960Y14990500D01*
X78444954Y14990500D01*
X77055046Y14990500D01*
X77055039Y14990500D01*
X76920750Y14975370D01*
X76920745Y14975369D01*
X76750476Y14915789D01*
X76597737Y14819816D01*
X76470184Y14692263D01*
X76374211Y14539524D01*
X76314631Y14369255D01*
X76314630Y14369250D01*
X76299500Y14234961D01*
X71600500Y14234961D01*
X71600500Y25925962D01*
X73269500Y25925962D01*
X73269500Y25674038D01*
X73277992Y25620423D01*
X73308910Y25425215D01*
X73386760Y25185617D01*
X73501132Y24961152D01*
X73649201Y24757351D01*
X73649205Y24757346D01*
X73827345Y24579206D01*
X73827350Y24579202D01*
X73898185Y24527738D01*
X74031155Y24431130D01*
X74174184Y24358253D01*
X74255616Y24316761D01*
X74255618Y24316761D01*
X74255621Y24316759D01*
X74495215Y24238910D01*
X74744038Y24199500D01*
X74744039Y24199500D01*
X74995961Y24199500D01*
X74995962Y24199500D01*
X75244785Y24238910D01*
X75484379Y24316759D01*
X75708845Y24431130D01*
X75912656Y24579207D01*
X76090793Y24757344D01*
X76238870Y24961155D01*
X76353241Y25185621D01*
X76431090Y25425215D01*
X76470500Y25674038D01*
X76470500Y25925962D01*
X83429500Y25925962D01*
X83429500Y25674038D01*
X83437992Y25620423D01*
X83468910Y25425215D01*
X83546760Y25185617D01*
X83661132Y24961152D01*
X83809201Y24757351D01*
X83809205Y24757346D01*
X83987345Y24579206D01*
X83987350Y24579202D01*
X84058185Y24527738D01*
X84191155Y24431130D01*
X84334184Y24358253D01*
X84415616Y24316761D01*
X84415618Y24316761D01*
X84415621Y24316759D01*
X84655215Y24238910D01*
X84904038Y24199500D01*
X84904039Y24199500D01*
X85155961Y24199500D01*
X85155962Y24199500D01*
X85404785Y24238910D01*
X85644379Y24316759D01*
X85868845Y24431130D01*
X86072656Y24579207D01*
X86250793Y24757344D01*
X86398870Y24961155D01*
X86513241Y25185621D01*
X86591090Y25425215D01*
X86630500Y25674038D01*
X86630500Y25925962D01*
X86591090Y26174785D01*
X86513241Y26414379D01*
X86513239Y26414382D01*
X86513239Y26414384D01*
X86469360Y26500500D01*
X86398870Y26638845D01*
X86261400Y26828057D01*
X86250798Y26842650D01*
X86250794Y26842655D01*
X86072654Y27020795D01*
X86072649Y27020799D01*
X85868848Y27168868D01*
X85868847Y27168869D01*
X85868845Y27168870D01*
X85798747Y27204587D01*
X85644383Y27283240D01*
X85404785Y27361090D01*
X85243798Y27386588D01*
X85155962Y27400500D01*
X84904038Y27400500D01*
X84831778Y27389055D01*
X84655214Y27361090D01*
X84415616Y27283240D01*
X84191151Y27168868D01*
X83987350Y27020799D01*
X83987345Y27020795D01*
X83809205Y26842655D01*
X83809201Y26842650D01*
X83661132Y26638849D01*
X83546760Y26414384D01*
X83468910Y26174786D01*
X83445449Y26026660D01*
X83429500Y25925962D01*
X76470500Y25925962D01*
X76431090Y26174785D01*
X76353241Y26414379D01*
X76353239Y26414382D01*
X76353239Y26414384D01*
X76309360Y26500500D01*
X76238870Y26638845D01*
X76101400Y26828057D01*
X76090798Y26842650D01*
X76090794Y26842655D01*
X75912654Y27020795D01*
X75912649Y27020799D01*
X75708848Y27168868D01*
X75708847Y27168869D01*
X75708845Y27168870D01*
X75638747Y27204587D01*
X75484383Y27283240D01*
X75244785Y27361090D01*
X75083798Y27386588D01*
X74995962Y27400500D01*
X74744038Y27400500D01*
X74671778Y27389055D01*
X74495214Y27361090D01*
X74255616Y27283240D01*
X74031151Y27168868D01*
X73827350Y27020799D01*
X73827345Y27020795D01*
X73649205Y26842655D01*
X73649201Y26842650D01*
X73501132Y26638849D01*
X73386760Y26414384D01*
X73308910Y26174786D01*
X73285449Y26026660D01*
X73269500Y25925962D01*
X71600500Y25925962D01*
X71600500Y27944487D01*
X71570940Y28131119D01*
X71524729Y28273340D01*
X71512547Y28310832D01*
X71512545Y28310835D01*
X71512545Y28310837D01*
X71443834Y28445689D01*
X71426760Y28479199D01*
X71410004Y28502262D01*
X71315690Y28632074D01*
X63902803Y36044961D01*
X86549500Y36044961D01*
X86549500Y34355040D01*
X86564630Y34220751D01*
X86564631Y34220746D01*
X86624211Y34050477D01*
X86720184Y33897738D01*
X86847738Y33770184D01*
X87000478Y33674211D01*
X87170745Y33614632D01*
X87170750Y33614631D01*
X87261246Y33604435D01*
X87305040Y33599501D01*
X87305043Y33599500D01*
X87305046Y33599500D01*
X88994957Y33599500D01*
X88994958Y33599501D01*
X89062104Y33607066D01*
X89129249Y33614631D01*
X89129252Y33614632D01*
X89129255Y33614632D01*
X89299522Y33674211D01*
X89452262Y33770184D01*
X89579816Y33897738D01*
X89675789Y34050478D01*
X89735368Y34220745D01*
X89750500Y34355046D01*
X89750500Y35325962D01*
X94149500Y35325962D01*
X94149500Y35074039D01*
X94188910Y34825215D01*
X94266760Y34585617D01*
X94345413Y34431253D01*
X94365722Y34391394D01*
X94381132Y34361152D01*
X94529201Y34157351D01*
X94529205Y34157346D01*
X94707345Y33979206D01*
X94707350Y33979202D01*
X94885117Y33850048D01*
X94911155Y33831130D01*
X95054184Y33758253D01*
X95135616Y33716761D01*
X95135618Y33716761D01*
X95135621Y33716759D01*
X95375215Y33638910D01*
X95624038Y33599500D01*
X95624039Y33599500D01*
X95875961Y33599500D01*
X95875962Y33599500D01*
X96124785Y33638910D01*
X96364379Y33716759D01*
X96588845Y33831130D01*
X96792656Y33979207D01*
X96970793Y34157344D01*
X97118870Y34361155D01*
X97233241Y34585621D01*
X97311090Y34825215D01*
X97350500Y35074038D01*
X97350500Y35325962D01*
X97311090Y35574785D01*
X97233241Y35814379D01*
X97233239Y35814382D01*
X97233239Y35814384D01*
X97147844Y35981980D01*
X97118870Y36038845D01*
X97016860Y36179250D01*
X96970798Y36242650D01*
X96970794Y36242655D01*
X96792654Y36420795D01*
X96792649Y36420799D01*
X96588848Y36568868D01*
X96588847Y36568869D01*
X96588845Y36568870D01*
X96469232Y36629816D01*
X96364383Y36683240D01*
X96124785Y36761090D01*
X95875962Y36800500D01*
X95624038Y36800500D01*
X95528499Y36785368D01*
X95375214Y36761090D01*
X95135616Y36683240D01*
X94911151Y36568868D01*
X94707350Y36420799D01*
X94707345Y36420795D01*
X94529205Y36242655D01*
X94529201Y36242650D01*
X94381132Y36038849D01*
X94266760Y35814384D01*
X94188910Y35574786D01*
X94149500Y35325962D01*
X89750500Y35325962D01*
X89750500Y36044954D01*
X89735368Y36179255D01*
X89675789Y36349522D01*
X89579816Y36502262D01*
X89452262Y36629816D01*
X89372406Y36679993D01*
X89299523Y36725789D01*
X89129254Y36785369D01*
X89129249Y36785370D01*
X88994960Y36800500D01*
X88994954Y36800500D01*
X87305046Y36800500D01*
X87305039Y36800500D01*
X87170750Y36785370D01*
X87170745Y36785369D01*
X87000476Y36725789D01*
X86847737Y36629816D01*
X86720184Y36502263D01*
X86624211Y36349524D01*
X86564631Y36179255D01*
X86564630Y36179250D01*
X86549500Y36044961D01*
X63902803Y36044961D01*
X58702803Y41244961D01*
X77124500Y41244961D01*
X77124500Y39455040D01*
X77139630Y39320751D01*
X77139631Y39320746D01*
X77199211Y39150477D01*
X77236538Y39091072D01*
X77295184Y38997738D01*
X77422738Y38870184D01*
X77575478Y38774211D01*
X77745745Y38714632D01*
X77745750Y38714631D01*
X77836246Y38704435D01*
X77880040Y38699501D01*
X77880043Y38699500D01*
X77880046Y38699500D01*
X79669957Y38699500D01*
X79669958Y38699501D01*
X79737104Y38707066D01*
X79804249Y38714631D01*
X79804252Y38714632D01*
X79804255Y38714632D01*
X79974522Y38774211D01*
X80127262Y38870184D01*
X80227655Y38970577D01*
X80288978Y39004062D01*
X80358670Y38999078D01*
X80388218Y38983217D01*
X80449949Y38938366D01*
X80559312Y38882643D01*
X80681423Y38820423D01*
X80681425Y38820423D01*
X80681428Y38820421D01*
X80928507Y38740140D01*
X81060706Y38719203D01*
X81185098Y38699500D01*
X81185103Y38699500D01*
X81444902Y38699500D01*
X81558298Y38717461D01*
X81701493Y38740140D01*
X81948572Y38820421D01*
X82180051Y38938366D01*
X82390229Y39091069D01*
X82573931Y39274771D01*
X82726634Y39484949D01*
X82844579Y39716428D01*
X82924860Y39963507D01*
X82947539Y40106702D01*
X82965500Y40220098D01*
X82965500Y40479903D01*
X82943947Y40615979D01*
X82924860Y40736493D01*
X82844579Y40983572D01*
X82844577Y40983575D01*
X82844577Y40983577D01*
X82801787Y41067555D01*
X82726634Y41215051D01*
X82573931Y41425229D01*
X82390229Y41608931D01*
X82274095Y41693307D01*
X82180054Y41761632D01*
X82180053Y41761633D01*
X82180051Y41761634D01*
X82107764Y41798466D01*
X81948576Y41879578D01*
X81701493Y41959860D01*
X81444902Y42000500D01*
X81444897Y42000500D01*
X81185103Y42000500D01*
X81185098Y42000500D01*
X80928506Y41959860D01*
X80681423Y41879578D01*
X80449946Y41761633D01*
X80388219Y41716786D01*
X80322413Y41693307D01*
X80254359Y41709133D01*
X80227654Y41729424D01*
X80127262Y41829816D01*
X79974523Y41925789D01*
X79804254Y41985369D01*
X79804249Y41985370D01*
X79669960Y42000500D01*
X79669954Y42000500D01*
X77880046Y42000500D01*
X77880039Y42000500D01*
X77745750Y41985370D01*
X77745745Y41985369D01*
X77575476Y41925789D01*
X77422737Y41829816D01*
X77295184Y41702263D01*
X77199211Y41549524D01*
X77139631Y41379255D01*
X77139630Y41379250D01*
X77124500Y41244961D01*
X58702803Y41244961D01*
X54876819Y45070945D01*
X54843334Y45132268D01*
X54840500Y45158626D01*
X54840500Y46539254D01*
X54860185Y46606293D01*
X54864173Y46612129D01*
X54923343Y46693567D01*
X55030568Y46904008D01*
X55103553Y47128632D01*
X55140500Y47361903D01*
X55140500Y47598098D01*
X57219500Y47598098D01*
X57219500Y47361903D01*
X57256446Y47128632D01*
X57329433Y46904004D01*
X57382680Y46799502D01*
X57436657Y46693567D01*
X57575483Y46502490D01*
X57742490Y46335483D01*
X57933567Y46196657D01*
X58032991Y46145998D01*
X58144003Y46089434D01*
X58144005Y46089434D01*
X58144008Y46089432D01*
X58218540Y46065215D01*
X58368631Y46016447D01*
X58601903Y45979500D01*
X58601908Y45979500D01*
X58838097Y45979500D01*
X59071368Y46016447D01*
X59295992Y46089432D01*
X59506433Y46196657D01*
X59697510Y46335483D01*
X59864517Y46502490D01*
X60003343Y46693567D01*
X60110568Y46904008D01*
X60183553Y47128632D01*
X60220500Y47361903D01*
X60220500Y47598098D01*
X62299500Y47598098D01*
X62299500Y47361903D01*
X62336446Y47128632D01*
X62409433Y46904004D01*
X62462680Y46799502D01*
X62516657Y46693567D01*
X62655483Y46502490D01*
X62822490Y46335483D01*
X63013567Y46196657D01*
X63112991Y46145998D01*
X63224003Y46089434D01*
X63224005Y46089434D01*
X63224008Y46089432D01*
X63298540Y46065215D01*
X63448631Y46016447D01*
X63681903Y45979500D01*
X63681908Y45979500D01*
X63918097Y45979500D01*
X64151368Y46016447D01*
X64375992Y46089432D01*
X64586433Y46196657D01*
X64777510Y46335483D01*
X64944517Y46502490D01*
X65083343Y46693567D01*
X65190568Y46904008D01*
X65263553Y47128632D01*
X65300500Y47361903D01*
X65300500Y47598098D01*
X69919500Y47598098D01*
X69919500Y47361903D01*
X69956446Y47128632D01*
X70029433Y46904004D01*
X70082680Y46799502D01*
X70136657Y46693567D01*
X70275483Y46502490D01*
X70442490Y46335483D01*
X70633567Y46196657D01*
X70732991Y46145998D01*
X70844003Y46089434D01*
X70844005Y46089434D01*
X70844008Y46089432D01*
X70918540Y46065215D01*
X71068631Y46016447D01*
X71301903Y45979500D01*
X71301908Y45979500D01*
X71538097Y45979500D01*
X71771368Y46016447D01*
X71995992Y46089432D01*
X72206433Y46196657D01*
X72397510Y46335483D01*
X72564517Y46502490D01*
X72703343Y46693567D01*
X72810568Y46904008D01*
X72883553Y47128632D01*
X72920500Y47361903D01*
X72920500Y47598098D01*
X72883553Y47831369D01*
X72853702Y47923240D01*
X72818492Y48031605D01*
X74639500Y48031605D01*
X74639500Y46628396D01*
X74654699Y46474068D01*
X74663057Y46446517D01*
X74714768Y46276046D01*
X74812315Y46093550D01*
X74812317Y46093548D01*
X74943589Y45933590D01*
X75040209Y45854298D01*
X75103550Y45802315D01*
X75286046Y45704768D01*
X75484066Y45644700D01*
X75484065Y45644700D01*
X75522647Y45640900D01*
X75638392Y45629500D01*
X75638395Y45629500D01*
X77041605Y45629500D01*
X77041608Y45629500D01*
X77195934Y45644700D01*
X77393954Y45704768D01*
X77576450Y45802315D01*
X77736410Y45933590D01*
X77867685Y46093550D01*
X77965232Y46276046D01*
X78025300Y46474066D01*
X78034351Y46565962D01*
X94699500Y46565962D01*
X94699500Y46314038D01*
X94733437Y46099770D01*
X94738910Y46065215D01*
X94816760Y45825617D01*
X94895413Y45671253D01*
X94929198Y45604946D01*
X94931132Y45601152D01*
X95079201Y45397351D01*
X95079205Y45397346D01*
X95257345Y45219206D01*
X95257350Y45219202D01*
X95383082Y45127853D01*
X95461155Y45071130D01*
X95590487Y45005232D01*
X95685616Y44956761D01*
X95685618Y44956761D01*
X95685621Y44956759D01*
X95925215Y44878910D01*
X96174038Y44839500D01*
X96174039Y44839500D01*
X96425961Y44839500D01*
X96425962Y44839500D01*
X96674785Y44878910D01*
X96914379Y44956759D01*
X97138845Y45071130D01*
X97342656Y45219207D01*
X97520793Y45397344D01*
X97668870Y45601155D01*
X97783241Y45825621D01*
X97861090Y46065215D01*
X97900500Y46314038D01*
X97900500Y46565962D01*
X97861090Y46814785D01*
X97783241Y47054379D01*
X97783239Y47054382D01*
X97783239Y47054384D01*
X97741747Y47135816D01*
X97668870Y47278845D01*
X97608525Y47361903D01*
X97520798Y47482650D01*
X97520794Y47482655D01*
X97342654Y47660795D01*
X97342649Y47660799D01*
X97138848Y47808868D01*
X97138847Y47808869D01*
X97138845Y47808870D01*
X97068747Y47844587D01*
X96914383Y47923240D01*
X96674785Y48001090D01*
X96482103Y48031608D01*
X96425962Y48040500D01*
X96174038Y48040500D01*
X96117897Y48031608D01*
X95925214Y48001090D01*
X95685616Y47923240D01*
X95461151Y47808868D01*
X95257350Y47660799D01*
X95257345Y47660795D01*
X95079205Y47482655D01*
X95079201Y47482650D01*
X94931132Y47278849D01*
X94816760Y47054384D01*
X94738910Y46814786D01*
X94736489Y46799502D01*
X94699500Y46565962D01*
X78034351Y46565962D01*
X78040500Y46628392D01*
X78040500Y48031608D01*
X78025300Y48185934D01*
X77965232Y48383954D01*
X77867685Y48566450D01*
X77777284Y48676605D01*
X77736410Y48726411D01*
X77576452Y48857683D01*
X77576453Y48857683D01*
X77576450Y48857685D01*
X77393954Y48955232D01*
X77195934Y49015300D01*
X77195932Y49015301D01*
X77195934Y49015301D01*
X77076805Y49027034D01*
X77041608Y49030500D01*
X75638392Y49030500D01*
X75600298Y49026749D01*
X75484067Y49015301D01*
X75286043Y48955231D01*
X75204142Y48911453D01*
X75103550Y48857685D01*
X75103548Y48857684D01*
X75103547Y48857683D01*
X74943589Y48726411D01*
X74812317Y48566453D01*
X74812315Y48566450D01*
X74797035Y48537863D01*
X74714769Y48383957D01*
X74654699Y48185933D01*
X74639500Y48031605D01*
X72818492Y48031605D01*
X72810568Y48055992D01*
X72810566Y48055995D01*
X72810566Y48055997D01*
X72744359Y48185934D01*
X72703343Y48266433D01*
X72564517Y48457510D01*
X72397510Y48624517D01*
X72206433Y48763343D01*
X72171909Y48780934D01*
X71995996Y48870567D01*
X71771368Y48943554D01*
X71538097Y48980500D01*
X71538092Y48980500D01*
X71301908Y48980500D01*
X71301903Y48980500D01*
X71068631Y48943554D01*
X70844003Y48870567D01*
X70633566Y48763343D01*
X70582733Y48726410D01*
X70442490Y48624517D01*
X70442488Y48624515D01*
X70442487Y48624515D01*
X70275485Y48457513D01*
X70275485Y48457512D01*
X70275483Y48457510D01*
X70222041Y48383954D01*
X70136657Y48266434D01*
X70029433Y48055997D01*
X69956446Y47831369D01*
X69919500Y47598098D01*
X65300500Y47598098D01*
X65263553Y47831369D01*
X65198491Y48031608D01*
X65190568Y48055992D01*
X65190566Y48055995D01*
X65190566Y48055997D01*
X65124359Y48185934D01*
X65083343Y48266433D01*
X64944517Y48457510D01*
X64777510Y48624517D01*
X64586433Y48763343D01*
X64551909Y48780934D01*
X64375996Y48870567D01*
X64151368Y48943554D01*
X63918097Y48980500D01*
X63918092Y48980500D01*
X63681908Y48980500D01*
X63681903Y48980500D01*
X63448631Y48943554D01*
X63224003Y48870567D01*
X63013566Y48763343D01*
X62962733Y48726410D01*
X62822490Y48624517D01*
X62822488Y48624515D01*
X62822487Y48624515D01*
X62655485Y48457513D01*
X62655485Y48457512D01*
X62655483Y48457510D01*
X62602041Y48383954D01*
X62516657Y48266434D01*
X62409433Y48055997D01*
X62336446Y47831369D01*
X62299500Y47598098D01*
X60220500Y47598098D01*
X60183553Y47831369D01*
X60118491Y48031608D01*
X60110568Y48055992D01*
X60110566Y48055995D01*
X60110566Y48055997D01*
X60044359Y48185934D01*
X60003343Y48266433D01*
X59864517Y48457510D01*
X59697510Y48624517D01*
X59506433Y48763343D01*
X59471909Y48780934D01*
X59295996Y48870567D01*
X59071368Y48943554D01*
X58838097Y48980500D01*
X58838092Y48980500D01*
X58601908Y48980500D01*
X58601903Y48980500D01*
X58368631Y48943554D01*
X58144003Y48870567D01*
X57933566Y48763343D01*
X57882733Y48726410D01*
X57742490Y48624517D01*
X57742488Y48624515D01*
X57742487Y48624515D01*
X57575485Y48457513D01*
X57575485Y48457512D01*
X57575483Y48457510D01*
X57522041Y48383954D01*
X57436657Y48266434D01*
X57329433Y48055997D01*
X57256446Y47831369D01*
X57219500Y47598098D01*
X55140500Y47598098D01*
X55103553Y47831369D01*
X55038491Y48031608D01*
X55030568Y48055992D01*
X55030566Y48055995D01*
X55030566Y48055997D01*
X54964359Y48185934D01*
X54923343Y48266433D01*
X54784517Y48457510D01*
X54617510Y48624517D01*
X54426433Y48763343D01*
X54391909Y48780934D01*
X54215996Y48870567D01*
X53991368Y48943554D01*
X53758097Y48980500D01*
X53758092Y48980500D01*
X53521908Y48980500D01*
X53521903Y48980500D01*
X53288631Y48943554D01*
X53064003Y48870567D01*
X52853566Y48763343D01*
X52802733Y48726410D01*
X52662490Y48624517D01*
X52662488Y48624515D01*
X52662487Y48624515D01*
X52495485Y48457513D01*
X52495485Y48457512D01*
X52495483Y48457510D01*
X52442041Y48383954D01*
X52356657Y48266434D01*
X52249433Y48055997D01*
X52176446Y47831369D01*
X52139500Y47598098D01*
X44806062Y47598098D01*
X44675229Y47728931D01*
X44675225Y47728934D01*
X44465054Y47881632D01*
X44465053Y47881633D01*
X44465051Y47881634D01*
X44383393Y47923241D01*
X44233576Y47999578D01*
X43986493Y48079860D01*
X43729902Y48120500D01*
X43729897Y48120500D01*
X43470103Y48120500D01*
X43470098Y48120500D01*
X43213506Y48079860D01*
X42966423Y47999578D01*
X42734945Y47881632D01*
X42524774Y47728934D01*
X42524768Y47728929D01*
X42502659Y47706819D01*
X42441336Y47673334D01*
X42414978Y47670500D01*
X40075514Y47670500D01*
X39888881Y47640941D01*
X39709163Y47582546D01*
X39540800Y47496760D01*
X39470997Y47446044D01*
X39387927Y47385690D01*
X39387925Y47385688D01*
X39387924Y47385688D01*
X36034310Y44032075D01*
X36005032Y43991777D01*
X35997059Y43980801D01*
X35994013Y43976609D01*
X35994012Y43976609D01*
X35923242Y43879203D01*
X35837454Y43710837D01*
X35779059Y43531119D01*
X35749500Y43344487D01*
X35749500Y28445022D01*
X35740855Y28415582D01*
X35734332Y28385595D01*
X35730577Y28380580D01*
X35729815Y28377983D01*
X35713181Y28357341D01*
X35657681Y28301841D01*
X35596358Y28268356D01*
X35526666Y28273340D01*
X35482319Y28301841D01*
X35375231Y28408929D01*
X35375225Y28408934D01*
X35165054Y28561632D01*
X35165053Y28561633D01*
X35165051Y28561634D01*
X35092764Y28598466D01*
X34933576Y28679578D01*
X34686493Y28759860D01*
X34429902Y28800500D01*
X34429897Y28800500D01*
X34170103Y28800500D01*
X34170098Y28800500D01*
X33913506Y28759860D01*
X33666423Y28679578D01*
X33434946Y28561633D01*
X33373219Y28516786D01*
X33307413Y28493307D01*
X33239359Y28509133D01*
X33212654Y28529424D01*
X33112260Y28629818D01*
X33112258Y28629819D01*
X33018527Y28688715D01*
X32972237Y28741049D01*
X32960500Y28793708D01*
X32960500Y49201605D01*
X80339500Y49201605D01*
X80339500Y47798396D01*
X80354699Y47644068D01*
X80354700Y47644066D01*
X80414768Y47446046D01*
X80512315Y47263550D01*
X80512317Y47263548D01*
X80643589Y47103590D01*
X80703548Y47054384D01*
X80803550Y46972315D01*
X80986046Y46874768D01*
X81184066Y46814700D01*
X81184065Y46814700D01*
X81222647Y46810900D01*
X81338392Y46799500D01*
X81338395Y46799500D01*
X82741605Y46799500D01*
X82741608Y46799500D01*
X82895934Y46814700D01*
X83093954Y46874768D01*
X83276450Y46972315D01*
X83436410Y47103590D01*
X83567685Y47263550D01*
X83665232Y47446046D01*
X83725300Y47644066D01*
X83740500Y47798392D01*
X83740500Y48611451D01*
X90499500Y48611451D01*
X90499500Y48388550D01*
X90499501Y48388534D01*
X90528594Y48167548D01*
X90528595Y48167543D01*
X90528596Y48167537D01*
X90574470Y47996333D01*
X90586290Y47952220D01*
X90586293Y47952210D01*
X90650005Y47798396D01*
X90671595Y47746274D01*
X90783052Y47553226D01*
X90783057Y47553220D01*
X90783058Y47553218D01*
X90918751Y47376378D01*
X90918757Y47376371D01*
X91076370Y47218758D01*
X91076376Y47218753D01*
X91253226Y47083052D01*
X91446274Y46971595D01*
X91541035Y46932344D01*
X91609453Y46904004D01*
X91652219Y46886290D01*
X91867537Y46828596D01*
X92088543Y46799500D01*
X92088550Y46799500D01*
X92311450Y46799500D01*
X92311457Y46799500D01*
X92532463Y46828596D01*
X92747781Y46886290D01*
X92953726Y46971595D01*
X93146774Y47083052D01*
X93323624Y47218753D01*
X93481247Y47376376D01*
X93616948Y47553226D01*
X93728405Y47746274D01*
X93813710Y47952219D01*
X93871404Y48167537D01*
X93900500Y48388543D01*
X93900500Y48611457D01*
X93871404Y48832463D01*
X93813710Y49047781D01*
X93728405Y49253726D01*
X93616948Y49446774D01*
X93481247Y49623624D01*
X93481242Y49623630D01*
X93323629Y49781243D01*
X93323622Y49781249D01*
X93146782Y49916942D01*
X93146780Y49916943D01*
X93146774Y49916948D01*
X92953726Y50028405D01*
X92953722Y50028407D01*
X92747790Y50113707D01*
X92747783Y50113709D01*
X92747781Y50113710D01*
X92532463Y50171404D01*
X92532457Y50171405D01*
X92532452Y50171406D01*
X92311466Y50200499D01*
X92311463Y50200500D01*
X92311457Y50200500D01*
X92088543Y50200500D01*
X92088537Y50200500D01*
X92088533Y50200499D01*
X91867547Y50171406D01*
X91867540Y50171405D01*
X91867537Y50171404D01*
X91652219Y50113710D01*
X91652209Y50113707D01*
X91446277Y50028407D01*
X91446273Y50028405D01*
X91253226Y49916948D01*
X91253217Y49916942D01*
X91076377Y49781249D01*
X91076370Y49781243D01*
X90918757Y49623630D01*
X90918751Y49623623D01*
X90783058Y49446783D01*
X90783052Y49446774D01*
X90671595Y49253727D01*
X90671593Y49253723D01*
X90586293Y49047791D01*
X90586290Y49047781D01*
X90546559Y48899500D01*
X90528597Y48832466D01*
X90528594Y48832453D01*
X90499501Y48611467D01*
X90499500Y48611451D01*
X83740500Y48611451D01*
X83740500Y49201608D01*
X83725300Y49355934D01*
X83665232Y49553954D01*
X83567685Y49736450D01*
X83436410Y49896410D01*
X83395833Y49929711D01*
X83356500Y49987458D01*
X83350500Y50025563D01*
X83350500Y58199988D01*
X83370185Y58267027D01*
X83422989Y58312782D01*
X83492147Y58322726D01*
X83540532Y58301806D01*
X83541842Y58303889D01*
X83696505Y58206707D01*
X83700478Y58204211D01*
X83712547Y58199988D01*
X83870745Y58144632D01*
X83870750Y58144631D01*
X83961246Y58134435D01*
X84005040Y58129501D01*
X84005043Y58129500D01*
X84005046Y58129500D01*
X85594957Y58129500D01*
X85594958Y58129501D01*
X85662104Y58137066D01*
X85729249Y58144631D01*
X85729252Y58144632D01*
X85729255Y58144632D01*
X85899522Y58204211D01*
X85902503Y58206084D01*
X85904706Y58206707D01*
X85905795Y58207231D01*
X85905886Y58207041D01*
X85969740Y58225086D01*
X86036575Y58204720D01*
X86081791Y58151453D01*
X86091030Y58082197D01*
X86068797Y58028207D01*
X86013893Y57952639D01*
X85903097Y57735188D01*
X85827678Y57503073D01*
X85789500Y57262027D01*
X85789500Y57017974D01*
X85817199Y56843087D01*
X85827679Y56776924D01*
X85903096Y56544815D01*
X85994017Y56366371D01*
X86013896Y56327358D01*
X86157339Y56129924D01*
X86157343Y56129919D01*
X86329918Y55957344D01*
X86329923Y55957340D01*
X86441480Y55876290D01*
X86527361Y55813894D01*
X86744815Y55703096D01*
X86976924Y55627679D01*
X87217973Y55589500D01*
X87217974Y55589500D01*
X87462026Y55589500D01*
X87462027Y55589500D01*
X87703076Y55627679D01*
X87935185Y55703096D01*
X88152639Y55813894D01*
X88350083Y55957345D01*
X88522655Y56129917D01*
X88666106Y56327361D01*
X88776904Y56544815D01*
X88835762Y56725962D01*
X94699500Y56725962D01*
X94699500Y56474039D01*
X94738910Y56225215D01*
X94816760Y55985617D01*
X94872464Y55876294D01*
X94916686Y55789502D01*
X94931132Y55761152D01*
X95079201Y55557351D01*
X95079205Y55557346D01*
X95257345Y55379206D01*
X95257350Y55379202D01*
X95435117Y55250048D01*
X95461155Y55231130D01*
X95604184Y55158253D01*
X95685616Y55116761D01*
X95685618Y55116761D01*
X95685621Y55116759D01*
X95925215Y55038910D01*
X96174038Y54999500D01*
X96174039Y54999500D01*
X96425961Y54999500D01*
X96425962Y54999500D01*
X96674785Y55038910D01*
X96914379Y55116759D01*
X97138845Y55231130D01*
X97342656Y55379207D01*
X97520793Y55557344D01*
X97668870Y55761155D01*
X97783241Y55985621D01*
X97861090Y56225215D01*
X97900500Y56474038D01*
X97900500Y56725962D01*
X97861090Y56974785D01*
X97783241Y57214379D01*
X97783239Y57214382D01*
X97783239Y57214384D01*
X97741747Y57295816D01*
X97668870Y57438845D01*
X97622204Y57503076D01*
X97520798Y57642650D01*
X97520794Y57642655D01*
X97342654Y57820795D01*
X97342649Y57820799D01*
X97138848Y57968868D01*
X97138847Y57968869D01*
X97138845Y57968870D01*
X97068747Y58004587D01*
X96914383Y58083240D01*
X96674785Y58161090D01*
X96425962Y58200500D01*
X96174038Y58200500D01*
X96049626Y58180795D01*
X95925214Y58161090D01*
X95685616Y58083240D01*
X95461151Y57968868D01*
X95257350Y57820799D01*
X95257345Y57820795D01*
X95079205Y57642655D01*
X95079201Y57642650D01*
X94931132Y57438849D01*
X94816760Y57214384D01*
X94738910Y56974786D01*
X94699500Y56725962D01*
X88835762Y56725962D01*
X88852321Y56776924D01*
X88890500Y57017973D01*
X88890500Y57262027D01*
X88852321Y57503076D01*
X88776904Y57735185D01*
X88666106Y57952639D01*
X88571977Y58082197D01*
X88522660Y58150077D01*
X88522656Y58150082D01*
X88350081Y58322657D01*
X88350076Y58322661D01*
X88152642Y58466104D01*
X88152641Y58466105D01*
X88152639Y58466106D01*
X87935185Y58576904D01*
X87703076Y58652321D01*
X87703074Y58652322D01*
X87703072Y58652322D01*
X87534769Y58678979D01*
X87462027Y58690500D01*
X87217973Y58690500D01*
X87162093Y58681650D01*
X86976927Y58652322D01*
X86744812Y58576903D01*
X86527361Y58466107D01*
X86451793Y58411203D01*
X86385986Y58387724D01*
X86317933Y58403550D01*
X86269238Y58453656D01*
X86255363Y58522134D01*
X86272806Y58574187D01*
X86272769Y58574205D01*
X86272913Y58574505D01*
X86273916Y58577497D01*
X86274067Y58577739D01*
X86275789Y58580478D01*
X86335368Y58750745D01*
X86350500Y58885046D01*
X86350500Y60182027D01*
X92209500Y60182027D01*
X92209500Y59937973D01*
X92247679Y59696924D01*
X92317512Y59482000D01*
X92323097Y59464813D01*
X92433896Y59247358D01*
X92577339Y59049924D01*
X92577343Y59049919D01*
X92749918Y58877344D01*
X92749923Y58877340D01*
X92895946Y58771249D01*
X92947361Y58733894D01*
X93164815Y58623096D01*
X93396924Y58547679D01*
X93637973Y58509500D01*
X93637974Y58509500D01*
X93882026Y58509500D01*
X93882027Y58509500D01*
X94123076Y58547679D01*
X94355185Y58623096D01*
X94572639Y58733894D01*
X94770083Y58877345D01*
X94942655Y59049917D01*
X95086106Y59247361D01*
X95196904Y59464815D01*
X95272321Y59696924D01*
X95310500Y59937973D01*
X95310500Y60182027D01*
X95272321Y60423076D01*
X95196904Y60655185D01*
X95086106Y60872639D01*
X95031202Y60948208D01*
X95007723Y61014013D01*
X95023548Y61082067D01*
X95073654Y61130762D01*
X95142132Y61144637D01*
X95194187Y61127194D01*
X95194205Y61127231D01*
X95194500Y61127089D01*
X95197490Y61126087D01*
X95200473Y61124213D01*
X95200477Y61124212D01*
X95200478Y61124211D01*
X95277357Y61097310D01*
X95370745Y61064632D01*
X95370750Y61064631D01*
X95446371Y61056111D01*
X95505040Y61049501D01*
X95505043Y61049500D01*
X95505046Y61049500D01*
X97094957Y61049500D01*
X97094958Y61049501D01*
X97173962Y61058402D01*
X97229249Y61064631D01*
X97229252Y61064632D01*
X97229255Y61064632D01*
X97399522Y61124211D01*
X97552262Y61220184D01*
X97679816Y61347738D01*
X97775789Y61500478D01*
X97835368Y61670745D01*
X97850500Y61805046D01*
X97850500Y63394954D01*
X97835368Y63529255D01*
X97775789Y63699522D01*
X97775174Y63700500D01*
X97679815Y63852263D01*
X97552262Y63979816D01*
X97399523Y64075789D01*
X97229254Y64135369D01*
X97229249Y64135370D01*
X97094960Y64150500D01*
X97094954Y64150500D01*
X95505046Y64150500D01*
X95505039Y64150500D01*
X95370750Y64135370D01*
X95370745Y64135369D01*
X95200476Y64075789D01*
X95047737Y63979816D01*
X94920184Y63852263D01*
X94824211Y63699524D01*
X94764631Y63529255D01*
X94764630Y63529250D01*
X94749500Y63394961D01*
X94749500Y61805040D01*
X94764630Y61670751D01*
X94764631Y61670746D01*
X94824212Y61500473D01*
X94826088Y61497488D01*
X94826709Y61495288D01*
X94827231Y61494205D01*
X94827041Y61494114D01*
X94845084Y61430250D01*
X94824714Y61363416D01*
X94771443Y61318205D01*
X94702186Y61308972D01*
X94648206Y61331204D01*
X94572642Y61386104D01*
X94572641Y61386105D01*
X94572639Y61386106D01*
X94355185Y61496904D01*
X94123076Y61572321D01*
X94123074Y61572322D01*
X94123072Y61572322D01*
X93954769Y61598979D01*
X93882027Y61610500D01*
X93637973Y61610500D01*
X93582093Y61601650D01*
X93396927Y61572322D01*
X93164812Y61496903D01*
X92947357Y61386104D01*
X92749923Y61242661D01*
X92749918Y61242657D01*
X92577343Y61070082D01*
X92577339Y61070077D01*
X92433896Y60872643D01*
X92323097Y60655188D01*
X92247678Y60423073D01*
X92232393Y60326568D01*
X92209500Y60182027D01*
X86350500Y60182027D01*
X86350500Y60474954D01*
X86335368Y60609255D01*
X86275789Y60779522D01*
X86261429Y60802375D01*
X86206336Y60890056D01*
X86179816Y60932262D01*
X86052262Y61059816D01*
X86035922Y61070083D01*
X85899523Y61155789D01*
X85729254Y61215369D01*
X85729249Y61215370D01*
X85594960Y61230500D01*
X85594954Y61230500D01*
X84005046Y61230500D01*
X84005039Y61230500D01*
X83870750Y61215370D01*
X83870745Y61215369D01*
X83700476Y61155789D01*
X83541842Y61056111D01*
X83540402Y61058402D01*
X83487096Y61036654D01*
X83418404Y61049427D01*
X83367522Y61097310D01*
X83350500Y61160013D01*
X83350500Y63151374D01*
X83370185Y63218413D01*
X83386819Y63239055D01*
X83942251Y63794487D01*
X84555690Y64407926D01*
X84666760Y64560801D01*
X84752547Y64729168D01*
X84810940Y64908882D01*
X84824077Y64991832D01*
X84840500Y65095513D01*
X84840500Y68725962D01*
X86279500Y68725962D01*
X86279500Y68474039D01*
X86318910Y68225215D01*
X86396760Y67985617D01*
X86511132Y67761152D01*
X86659201Y67557351D01*
X86659205Y67557346D01*
X86837345Y67379206D01*
X86837350Y67379202D01*
X87015117Y67250048D01*
X87041155Y67231130D01*
X87178616Y67161090D01*
X87265616Y67116761D01*
X87265618Y67116761D01*
X87265621Y67116759D01*
X87505215Y67038910D01*
X87754038Y66999500D01*
X87754039Y66999500D01*
X88005961Y66999500D01*
X88005962Y66999500D01*
X88254785Y67038910D01*
X88494379Y67116759D01*
X88718845Y67231130D01*
X88922656Y67379207D01*
X89100793Y67557344D01*
X89248870Y67761155D01*
X89363241Y67985621D01*
X89441090Y68225215D01*
X89480500Y68474038D01*
X89480500Y68725962D01*
X89441090Y68974785D01*
X89363241Y69214379D01*
X89363239Y69214382D01*
X89363239Y69214384D01*
X89321747Y69295816D01*
X89248870Y69438845D01*
X89198511Y69508159D01*
X89100798Y69642650D01*
X89100794Y69642655D01*
X88922654Y69820795D01*
X88922649Y69820799D01*
X88718848Y69968868D01*
X88718847Y69968869D01*
X88718845Y69968870D01*
X88605881Y70026428D01*
X88494383Y70083240D01*
X88254785Y70161090D01*
X88005962Y70200500D01*
X87754038Y70200500D01*
X87629626Y70180795D01*
X87505214Y70161090D01*
X87265616Y70083240D01*
X87041151Y69968868D01*
X86837350Y69820799D01*
X86837345Y69820795D01*
X86659205Y69642655D01*
X86659201Y69642650D01*
X86511132Y69438849D01*
X86396760Y69214384D01*
X86318910Y68974786D01*
X86279500Y68725962D01*
X84840500Y68725962D01*
X84840500Y74225962D01*
X86779500Y74225962D01*
X86779500Y73974039D01*
X86818910Y73725215D01*
X86896760Y73485617D01*
X87011132Y73261152D01*
X87159201Y73057351D01*
X87159205Y73057346D01*
X87337345Y72879206D01*
X87337350Y72879202D01*
X87515117Y72750048D01*
X87541155Y72731130D01*
X87684184Y72658253D01*
X87765616Y72616761D01*
X87765618Y72616761D01*
X87765621Y72616759D01*
X88005215Y72538910D01*
X88254038Y72499500D01*
X88254039Y72499500D01*
X88505961Y72499500D01*
X88505962Y72499500D01*
X88754785Y72538910D01*
X88994379Y72616759D01*
X89218845Y72731130D01*
X89422656Y72879207D01*
X89600793Y73057344D01*
X89748870Y73261155D01*
X89863241Y73485621D01*
X89941090Y73725215D01*
X89980500Y73974038D01*
X89980500Y74225962D01*
X89941090Y74474785D01*
X89863241Y74714379D01*
X89863239Y74714382D01*
X89863239Y74714384D01*
X89801594Y74835368D01*
X89748870Y74938845D01*
X89729952Y74964883D01*
X89600798Y75142650D01*
X89600794Y75142655D01*
X89422654Y75320795D01*
X89422649Y75320799D01*
X89218848Y75468868D01*
X89218847Y75468869D01*
X89218845Y75468870D01*
X89148747Y75504587D01*
X88994383Y75583240D01*
X88754785Y75661090D01*
X88505962Y75700500D01*
X88254038Y75700500D01*
X88129626Y75680795D01*
X88005214Y75661090D01*
X87765616Y75583240D01*
X87541151Y75468868D01*
X87337350Y75320799D01*
X87337345Y75320795D01*
X87159205Y75142655D01*
X87159201Y75142650D01*
X87011132Y74938849D01*
X86896760Y74714384D01*
X86818910Y74474786D01*
X86779500Y74225962D01*
X84840500Y74225962D01*
X84840500Y76989123D01*
X84860185Y77056162D01*
X84864182Y77062008D01*
X84912697Y77128786D01*
X85008870Y77261155D01*
X85123241Y77485621D01*
X85201090Y77725215D01*
X85240500Y77974038D01*
X85240500Y78225962D01*
X92199500Y78225962D01*
X92199500Y77974039D01*
X92238910Y77725215D01*
X92316760Y77485617D01*
X92431132Y77261152D01*
X92579201Y77057351D01*
X92579205Y77057346D01*
X92757345Y76879206D01*
X92757350Y76879202D01*
X92935117Y76750048D01*
X92961155Y76731130D01*
X93104184Y76658253D01*
X93185616Y76616761D01*
X93185618Y76616761D01*
X93185621Y76616759D01*
X93425215Y76538910D01*
X93674038Y76499500D01*
X93674039Y76499500D01*
X93925961Y76499500D01*
X93925962Y76499500D01*
X94174785Y76538910D01*
X94414379Y76616759D01*
X94638845Y76731130D01*
X94842656Y76879207D01*
X95020793Y77057344D01*
X95168870Y77261155D01*
X95283241Y77485621D01*
X95361090Y77725215D01*
X95400500Y77974038D01*
X95400500Y78225962D01*
X95361090Y78474785D01*
X95283241Y78714379D01*
X95283239Y78714382D01*
X95283239Y78714384D01*
X95241747Y78795816D01*
X95168870Y78938845D01*
X95149952Y78964883D01*
X95020798Y79142650D01*
X95020794Y79142655D01*
X94842654Y79320795D01*
X94842649Y79320799D01*
X94638848Y79468868D01*
X94638847Y79468869D01*
X94638845Y79468870D01*
X94568747Y79504587D01*
X94414383Y79583240D01*
X94174785Y79661090D01*
X93925962Y79700500D01*
X93674038Y79700500D01*
X93549626Y79680795D01*
X93425214Y79661090D01*
X93185616Y79583240D01*
X92961151Y79468868D01*
X92757350Y79320799D01*
X92757345Y79320795D01*
X92579205Y79142655D01*
X92579201Y79142650D01*
X92431132Y78938849D01*
X92316760Y78714384D01*
X92238910Y78474786D01*
X92199500Y78225962D01*
X85240500Y78225962D01*
X85201090Y78474785D01*
X85123241Y78714379D01*
X85123239Y78714382D01*
X85123239Y78714384D01*
X85081747Y78795816D01*
X85008870Y78938845D01*
X84989952Y78964883D01*
X84860798Y79142650D01*
X84860794Y79142655D01*
X84682654Y79320795D01*
X84682649Y79320799D01*
X84478848Y79468868D01*
X84478847Y79468869D01*
X84478845Y79468870D01*
X84408747Y79504587D01*
X84254383Y79583240D01*
X84014785Y79661090D01*
X83765962Y79700500D01*
X83514038Y79700500D01*
X83389626Y79680795D01*
X83265214Y79661090D01*
X83025616Y79583240D01*
X82801151Y79468868D01*
X82597350Y79320799D01*
X82597345Y79320795D01*
X82419205Y79142655D01*
X82419201Y79142650D01*
X82271132Y78938849D01*
X82156760Y78714384D01*
X82078910Y78474786D01*
X82039500Y78225962D01*
X82039500Y77974039D01*
X82078910Y77725215D01*
X82156760Y77485617D01*
X82271132Y77261152D01*
X82415818Y77062008D01*
X82439298Y76996202D01*
X82439500Y76989123D01*
X82439500Y65738626D01*
X82419815Y65671587D01*
X82403181Y65650945D01*
X81234310Y64482075D01*
X81194274Y64426969D01*
X81180438Y64407924D01*
X81174318Y64399501D01*
X81174317Y64399500D01*
X81123240Y64329200D01*
X81037454Y64160837D01*
X80979059Y63981119D01*
X80949500Y63794487D01*
X80949500Y50180021D01*
X80929815Y50112982D01*
X80883955Y50070664D01*
X80803548Y50027685D01*
X80643589Y49896411D01*
X80512317Y49736453D01*
X80414769Y49553957D01*
X80354699Y49355933D01*
X80349839Y49306583D01*
X80340470Y49211450D01*
X80339500Y49201605D01*
X32960500Y49201605D01*
X32960500Y55218098D01*
X52139500Y55218098D01*
X52139500Y54981903D01*
X52176446Y54748632D01*
X52249433Y54524004D01*
X52335522Y54355046D01*
X52356657Y54313567D01*
X52495483Y54122490D01*
X52662490Y53955483D01*
X52853567Y53816657D01*
X52952991Y53765998D01*
X53064003Y53709434D01*
X53064005Y53709434D01*
X53064008Y53709432D01*
X53172404Y53674212D01*
X53288631Y53636447D01*
X53521903Y53599500D01*
X53521908Y53599500D01*
X53758097Y53599500D01*
X53991368Y53636447D01*
X54215992Y53709432D01*
X54426433Y53816657D01*
X54617510Y53955483D01*
X54784517Y54122490D01*
X54923343Y54313567D01*
X55030568Y54524008D01*
X55103553Y54748632D01*
X55140500Y54981903D01*
X55140500Y55218098D01*
X57219500Y55218098D01*
X57219500Y54981903D01*
X57256446Y54748632D01*
X57329433Y54524004D01*
X57415522Y54355046D01*
X57436657Y54313567D01*
X57575483Y54122490D01*
X57742490Y53955483D01*
X57933567Y53816657D01*
X58032991Y53765998D01*
X58144003Y53709434D01*
X58144005Y53709434D01*
X58144008Y53709432D01*
X58252404Y53674212D01*
X58368631Y53636447D01*
X58601903Y53599500D01*
X58601908Y53599500D01*
X58838097Y53599500D01*
X59071368Y53636447D01*
X59295992Y53709432D01*
X59506433Y53816657D01*
X59697510Y53955483D01*
X59864517Y54122490D01*
X60003343Y54313567D01*
X60110568Y54524008D01*
X60183553Y54748632D01*
X60220500Y54981903D01*
X60220500Y55218098D01*
X62299500Y55218098D01*
X62299500Y54981903D01*
X62336446Y54748632D01*
X62409433Y54524004D01*
X62495522Y54355046D01*
X62516657Y54313567D01*
X62655483Y54122490D01*
X62822490Y53955483D01*
X63013567Y53816657D01*
X63112991Y53765998D01*
X63224003Y53709434D01*
X63224005Y53709434D01*
X63224008Y53709432D01*
X63332404Y53674212D01*
X63448631Y53636447D01*
X63681903Y53599500D01*
X63681908Y53599500D01*
X63918097Y53599500D01*
X64151368Y53636447D01*
X64375992Y53709432D01*
X64586433Y53816657D01*
X64777510Y53955483D01*
X64944517Y54122490D01*
X65083343Y54313567D01*
X65190568Y54524008D01*
X65263553Y54748632D01*
X65300500Y54981903D01*
X65300500Y55218098D01*
X65263553Y55451369D01*
X65190566Y55675997D01*
X65131389Y55792138D01*
X65112492Y55829225D01*
X65104474Y55844961D01*
X69919500Y55844961D01*
X69919500Y54355040D01*
X69934630Y54220751D01*
X69934631Y54220746D01*
X69994211Y54050477D01*
X70053898Y53955486D01*
X70090184Y53897738D01*
X70217738Y53770184D01*
X70370478Y53674211D01*
X70540745Y53614632D01*
X70540750Y53614631D01*
X70631246Y53604435D01*
X70675040Y53599501D01*
X70675043Y53599500D01*
X70675046Y53599500D01*
X72164957Y53599500D01*
X72164958Y53599501D01*
X72232104Y53607066D01*
X72299249Y53614631D01*
X72299252Y53614632D01*
X72299255Y53614632D01*
X72469522Y53674211D01*
X72622262Y53770184D01*
X72749816Y53897738D01*
X72845789Y54050478D01*
X72905368Y54220745D01*
X72920500Y54355046D01*
X72920500Y55844954D01*
X72908219Y55953954D01*
X72905369Y55979250D01*
X72905368Y55979255D01*
X72872547Y56073052D01*
X72845789Y56149522D01*
X72749816Y56302262D01*
X72622262Y56429816D01*
X72469523Y56525789D01*
X72299254Y56585369D01*
X72299249Y56585370D01*
X72164960Y56600500D01*
X72164954Y56600500D01*
X70675046Y56600500D01*
X70675039Y56600500D01*
X70540750Y56585370D01*
X70540745Y56585369D01*
X70370476Y56525789D01*
X70217737Y56429816D01*
X70090184Y56302263D01*
X69994211Y56149524D01*
X69934631Y55979255D01*
X69934630Y55979250D01*
X69919500Y55844961D01*
X65104474Y55844961D01*
X65083343Y55886433D01*
X64944517Y56077510D01*
X64777510Y56244517D01*
X64586433Y56383343D01*
X64375996Y56490567D01*
X64151368Y56563554D01*
X63918097Y56600500D01*
X63918092Y56600500D01*
X63681908Y56600500D01*
X63681903Y56600500D01*
X63448631Y56563554D01*
X63224003Y56490567D01*
X63013566Y56383343D01*
X62936510Y56327358D01*
X62822490Y56244517D01*
X62822488Y56244515D01*
X62822487Y56244515D01*
X62655485Y56077513D01*
X62655485Y56077512D01*
X62655483Y56077510D01*
X62595862Y55995450D01*
X62516657Y55886434D01*
X62409433Y55675997D01*
X62336446Y55451369D01*
X62299500Y55218098D01*
X60220500Y55218098D01*
X60183553Y55451369D01*
X60110566Y55675997D01*
X60037908Y55818596D01*
X60003343Y55886433D01*
X59864517Y56077510D01*
X59697510Y56244517D01*
X59506433Y56383343D01*
X59295996Y56490567D01*
X59071368Y56563554D01*
X58838097Y56600500D01*
X58838092Y56600500D01*
X58601908Y56600500D01*
X58601903Y56600500D01*
X58368631Y56563554D01*
X58144003Y56490567D01*
X57933566Y56383343D01*
X57856510Y56327358D01*
X57742490Y56244517D01*
X57742488Y56244515D01*
X57742487Y56244515D01*
X57575485Y56077513D01*
X57575485Y56077512D01*
X57575483Y56077510D01*
X57515862Y55995450D01*
X57436657Y55886434D01*
X57329433Y55675997D01*
X57256446Y55451369D01*
X57219500Y55218098D01*
X55140500Y55218098D01*
X55103553Y55451369D01*
X55030566Y55675997D01*
X54957908Y55818596D01*
X54923343Y55886433D01*
X54784517Y56077510D01*
X54617510Y56244517D01*
X54426433Y56383343D01*
X54215996Y56490567D01*
X53991368Y56563554D01*
X53758097Y56600500D01*
X53758092Y56600500D01*
X53521908Y56600500D01*
X53521903Y56600500D01*
X53288631Y56563554D01*
X53064003Y56490567D01*
X52853566Y56383343D01*
X52776510Y56327358D01*
X52662490Y56244517D01*
X52662488Y56244515D01*
X52662487Y56244515D01*
X52495485Y56077513D01*
X52495485Y56077512D01*
X52495483Y56077510D01*
X52435862Y55995450D01*
X52356657Y55886434D01*
X52249433Y55675997D01*
X52176446Y55451369D01*
X52139500Y55218098D01*
X32960500Y55218098D01*
X32960500Y57601451D01*
X74639500Y57601451D01*
X74639500Y57378550D01*
X74639501Y57378534D01*
X74668594Y57157548D01*
X74668595Y57157543D01*
X74668596Y57157537D01*
X74726290Y56942220D01*
X74726293Y56942210D01*
X74811593Y56736278D01*
X74811595Y56736274D01*
X74923052Y56543226D01*
X74923057Y56543220D01*
X74923058Y56543218D01*
X75058751Y56366378D01*
X75058757Y56366371D01*
X75216370Y56208758D01*
X75216377Y56208752D01*
X75319115Y56129919D01*
X75393226Y56073052D01*
X75586274Y55961595D01*
X75716140Y55907803D01*
X75767731Y55886433D01*
X75792219Y55876290D01*
X76007537Y55818596D01*
X76228543Y55789500D01*
X76228550Y55789500D01*
X76451450Y55789500D01*
X76451457Y55789500D01*
X76672463Y55818596D01*
X76887781Y55876290D01*
X77093726Y55961595D01*
X77286774Y56073052D01*
X77463624Y56208753D01*
X77621247Y56366376D01*
X77756948Y56543226D01*
X77868405Y56736274D01*
X77953710Y56942219D01*
X78011404Y57157537D01*
X78040500Y57378543D01*
X78040500Y57601457D01*
X78011404Y57822463D01*
X77953710Y58037781D01*
X77868405Y58243726D01*
X77756948Y58436774D01*
X77621247Y58613624D01*
X77621242Y58613630D01*
X77463629Y58771243D01*
X77463622Y58771249D01*
X77286782Y58906942D01*
X77286780Y58906943D01*
X77286774Y58906948D01*
X77093726Y59018405D01*
X77093722Y59018407D01*
X76887790Y59103707D01*
X76887783Y59103709D01*
X76887781Y59103710D01*
X76672463Y59161404D01*
X76672457Y59161405D01*
X76672452Y59161406D01*
X76451466Y59190499D01*
X76451463Y59190500D01*
X76451457Y59190500D01*
X76228543Y59190500D01*
X76228537Y59190500D01*
X76228533Y59190499D01*
X76007547Y59161406D01*
X76007540Y59161405D01*
X76007537Y59161404D01*
X75792219Y59103710D01*
X75792209Y59103707D01*
X75586277Y59018407D01*
X75586273Y59018405D01*
X75393226Y58906948D01*
X75393217Y58906942D01*
X75216377Y58771249D01*
X75216370Y58771243D01*
X75058757Y58613630D01*
X75058751Y58613623D01*
X74923058Y58436783D01*
X74923052Y58436774D01*
X74811595Y58243727D01*
X74811593Y58243723D01*
X74726293Y58037791D01*
X74726290Y58037781D01*
X74703478Y57952643D01*
X74668597Y57822466D01*
X74668594Y57822453D01*
X74639501Y57601467D01*
X74639500Y57601451D01*
X32960500Y57601451D01*
X32960500Y60084487D01*
X32930940Y60271119D01*
X32903846Y60354503D01*
X32872547Y60450832D01*
X32872545Y60450835D01*
X32872545Y60450837D01*
X32791829Y60609250D01*
X32786760Y60619199D01*
X32675690Y60772073D01*
X32542073Y60905690D01*
X31947285Y61500478D01*
X31304611Y62143153D01*
X31221802Y62225962D01*
X45119500Y62225962D01*
X45119500Y61974039D01*
X45158910Y61725215D01*
X45236760Y61485617D01*
X45351132Y61261152D01*
X45499201Y61057351D01*
X45499205Y61057346D01*
X45677345Y60879206D01*
X45677350Y60879202D01*
X45824799Y60772075D01*
X45881155Y60731130D01*
X46024184Y60658253D01*
X46105616Y60616761D01*
X46105618Y60616761D01*
X46105621Y60616759D01*
X46345215Y60538910D01*
X46594038Y60499500D01*
X46594039Y60499500D01*
X46845961Y60499500D01*
X46845962Y60499500D01*
X47094785Y60538910D01*
X47334379Y60616759D01*
X47558845Y60731130D01*
X47762656Y60879207D01*
X47940793Y61057344D01*
X48088870Y61261155D01*
X48203241Y61485621D01*
X48281090Y61725215D01*
X48320500Y61974038D01*
X48320500Y62225962D01*
X55279500Y62225962D01*
X55279500Y61974039D01*
X55318910Y61725215D01*
X55396760Y61485617D01*
X55511132Y61261152D01*
X55659201Y61057351D01*
X55659205Y61057346D01*
X55837345Y60879206D01*
X55837350Y60879202D01*
X55984799Y60772075D01*
X56041155Y60731130D01*
X56184184Y60658253D01*
X56265616Y60616761D01*
X56265618Y60616761D01*
X56265621Y60616759D01*
X56505215Y60538910D01*
X56754038Y60499500D01*
X56754039Y60499500D01*
X57005961Y60499500D01*
X57005962Y60499500D01*
X57254785Y60538910D01*
X57494379Y60616759D01*
X57718845Y60731130D01*
X57922656Y60879207D01*
X58100793Y61057344D01*
X58248870Y61261155D01*
X58363241Y61485621D01*
X58441090Y61725215D01*
X58480500Y61974038D01*
X58480500Y62225962D01*
X58441090Y62474785D01*
X58363241Y62714379D01*
X58363239Y62714382D01*
X58363239Y62714384D01*
X58283854Y62870184D01*
X58248870Y62938845D01*
X58159033Y63062496D01*
X58100798Y63142650D01*
X58100794Y63142655D01*
X57922654Y63320795D01*
X57922649Y63320799D01*
X57718848Y63468868D01*
X57718847Y63468869D01*
X57718845Y63468870D01*
X57648747Y63504587D01*
X57494383Y63583240D01*
X57254785Y63661090D01*
X57005962Y63700500D01*
X56754038Y63700500D01*
X56629626Y63680795D01*
X56505214Y63661090D01*
X56265616Y63583240D01*
X56041151Y63468868D01*
X55837350Y63320799D01*
X55837345Y63320795D01*
X55659205Y63142655D01*
X55659201Y63142650D01*
X55511132Y62938849D01*
X55396760Y62714384D01*
X55318910Y62474786D01*
X55279500Y62225962D01*
X48320500Y62225962D01*
X48281090Y62474785D01*
X48203241Y62714379D01*
X48203239Y62714382D01*
X48203239Y62714384D01*
X48123854Y62870184D01*
X48088870Y62938845D01*
X47999033Y63062496D01*
X47940798Y63142650D01*
X47940794Y63142655D01*
X47762654Y63320795D01*
X47762649Y63320799D01*
X47558848Y63468868D01*
X47558847Y63468869D01*
X47558845Y63468870D01*
X47488747Y63504587D01*
X47334383Y63583240D01*
X47094785Y63661090D01*
X46845962Y63700500D01*
X46594038Y63700500D01*
X46469626Y63680795D01*
X46345214Y63661090D01*
X46105616Y63583240D01*
X45881151Y63468868D01*
X45677350Y63320799D01*
X45677345Y63320795D01*
X45499205Y63142655D01*
X45499201Y63142650D01*
X45351132Y62938849D01*
X45236760Y62714384D01*
X45158910Y62474786D01*
X45119500Y62225962D01*
X31221802Y62225962D01*
X30249576Y63198188D01*
X30249575Y63198189D01*
X30249574Y63198190D01*
X30096699Y63309260D01*
X29928336Y63395046D01*
X29748618Y63453441D01*
X29561986Y63483000D01*
X29561981Y63483000D01*
X29074500Y63483000D01*
X29007461Y63502685D01*
X28961706Y63555489D01*
X28950500Y63607000D01*
X28950500Y64084105D01*
X28949477Y64094487D01*
X28935300Y64238434D01*
X28888386Y64393087D01*
X28887274Y64461174D01*
X28911138Y64550232D01*
X28950500Y64849217D01*
X28950500Y65150783D01*
X28911138Y65449768D01*
X28837132Y65725962D01*
X45119500Y65725962D01*
X45119500Y65474039D01*
X45158910Y65225215D01*
X45236760Y64985617D01*
X45275857Y64908886D01*
X45340474Y64782068D01*
X45351132Y64761152D01*
X45499201Y64557351D01*
X45499205Y64557346D01*
X45677345Y64379206D01*
X45677350Y64379202D01*
X45746174Y64329199D01*
X45881155Y64231130D01*
X46019113Y64160837D01*
X46105616Y64116761D01*
X46105618Y64116761D01*
X46105621Y64116759D01*
X46345215Y64038910D01*
X46594038Y63999500D01*
X46594039Y63999500D01*
X46845961Y63999500D01*
X46845962Y63999500D01*
X47094785Y64038910D01*
X47334379Y64116759D01*
X47558845Y64231130D01*
X47762656Y64379207D01*
X47940793Y64557344D01*
X48088870Y64761155D01*
X48203241Y64985621D01*
X48281090Y65225215D01*
X48320500Y65474038D01*
X48320500Y65725962D01*
X48281090Y65974785D01*
X48203241Y66214379D01*
X48203239Y66214382D01*
X48203239Y66214384D01*
X48161747Y66295816D01*
X48088870Y66438845D01*
X48069952Y66464883D01*
X47940798Y66642650D01*
X47940794Y66642655D01*
X47762654Y66820795D01*
X47762649Y66820799D01*
X47558848Y66968868D01*
X47558847Y66968869D01*
X47558845Y66968870D01*
X47421384Y67038910D01*
X47334383Y67083240D01*
X47094785Y67161090D01*
X46845962Y67200500D01*
X46594038Y67200500D01*
X46469626Y67180795D01*
X46345214Y67161090D01*
X46105616Y67083240D01*
X45881151Y66968868D01*
X45677350Y66820799D01*
X45677345Y66820795D01*
X45499205Y66642655D01*
X45499201Y66642650D01*
X45351132Y66438849D01*
X45236760Y66214384D01*
X45158910Y65974786D01*
X45119500Y65725962D01*
X28837132Y65725962D01*
X28833087Y65741058D01*
X28717683Y66019668D01*
X28717680Y66019672D01*
X28717679Y66019676D01*
X28717109Y66020663D01*
X28717010Y66021032D01*
X28715890Y66023303D01*
X28716341Y66023526D01*
X28700500Y66082656D01*
X28700500Y68725962D01*
X76119500Y68725962D01*
X76119500Y68474039D01*
X76158910Y68225215D01*
X76236760Y67985617D01*
X76351132Y67761152D01*
X76499201Y67557351D01*
X76499205Y67557346D01*
X76677345Y67379206D01*
X76677350Y67379202D01*
X76855117Y67250048D01*
X76881155Y67231130D01*
X77018616Y67161090D01*
X77105616Y67116761D01*
X77105618Y67116761D01*
X77105621Y67116759D01*
X77345215Y67038910D01*
X77594038Y66999500D01*
X77594039Y66999500D01*
X77845961Y66999500D01*
X77845962Y66999500D01*
X78094785Y67038910D01*
X78334379Y67116759D01*
X78558845Y67231130D01*
X78762656Y67379207D01*
X78940793Y67557344D01*
X79088870Y67761155D01*
X79203241Y67985621D01*
X79281090Y68225215D01*
X79320500Y68474038D01*
X79320500Y68725962D01*
X79281090Y68974785D01*
X79203241Y69214379D01*
X79203239Y69214382D01*
X79203239Y69214384D01*
X79161747Y69295816D01*
X79088870Y69438845D01*
X79038511Y69508159D01*
X78940798Y69642650D01*
X78940794Y69642655D01*
X78762654Y69820795D01*
X78762649Y69820799D01*
X78558848Y69968868D01*
X78558847Y69968869D01*
X78558845Y69968870D01*
X78445881Y70026428D01*
X78334383Y70083240D01*
X78094785Y70161090D01*
X77845962Y70200500D01*
X77594038Y70200500D01*
X77469626Y70180795D01*
X77345214Y70161090D01*
X77105616Y70083240D01*
X76881151Y69968868D01*
X76677350Y69820799D01*
X76677345Y69820795D01*
X76499205Y69642655D01*
X76499201Y69642650D01*
X76351132Y69438849D01*
X76236760Y69214384D01*
X76158910Y68974786D01*
X76119500Y68725962D01*
X28700500Y68725962D01*
X28700500Y69032488D01*
X28720185Y69099527D01*
X28768202Y69142972D01*
X28975051Y69248366D01*
X29185229Y69401069D01*
X29368931Y69584771D01*
X29521634Y69794949D01*
X29639579Y70026428D01*
X29719860Y70273507D01*
X29742539Y70416702D01*
X29760500Y70530098D01*
X29760500Y70789903D01*
X29738947Y70925979D01*
X29719860Y71046493D01*
X29639579Y71293572D01*
X29639577Y71293575D01*
X29639577Y71293577D01*
X29596787Y71377555D01*
X29521634Y71525051D01*
X29368931Y71735229D01*
X29261841Y71842319D01*
X29257502Y71850265D01*
X29250255Y71855690D01*
X29241020Y71880450D01*
X29228356Y71903642D01*
X29229001Y71912672D01*
X29225838Y71921154D01*
X29231454Y71946975D01*
X29233340Y71973334D01*
X29239158Y71982388D01*
X29240690Y71989427D01*
X29261841Y72017681D01*
X29292319Y72048159D01*
X29353642Y72081644D01*
X29423334Y72076660D01*
X29467681Y72048159D01*
X29574771Y71941069D01*
X29784949Y71788366D01*
X29889230Y71735232D01*
X30016423Y71670423D01*
X30016425Y71670423D01*
X30016428Y71670421D01*
X30263507Y71590140D01*
X30395706Y71569203D01*
X30520098Y71549500D01*
X30520103Y71549500D01*
X30779902Y71549500D01*
X30893298Y71567461D01*
X31036493Y71590140D01*
X31283572Y71670421D01*
X31515051Y71788366D01*
X31725229Y71941069D01*
X31832319Y72048159D01*
X31840264Y72052498D01*
X31845691Y72059746D01*
X31870450Y72068981D01*
X31893642Y72081644D01*
X31902672Y72080999D01*
X31911156Y72084162D01*
X31936974Y72078546D01*
X31963334Y72076660D01*
X31972389Y72070841D01*
X31979429Y72069309D01*
X32007679Y72048161D01*
X32038159Y72017681D01*
X32038160Y72017680D01*
X32071644Y71956356D01*
X32066658Y71886665D01*
X32038159Y71842319D01*
X31931066Y71735226D01*
X31778368Y71525055D01*
X31660422Y71293577D01*
X31580140Y71046494D01*
X31539500Y70789903D01*
X31539500Y70530098D01*
X31580140Y70273507D01*
X31660422Y70026424D01*
X31778368Y69794946D01*
X31919999Y69600007D01*
X31931069Y69584771D01*
X32114771Y69401069D01*
X32324949Y69248366D01*
X32472445Y69173213D01*
X32556423Y69130423D01*
X32556425Y69130423D01*
X32556428Y69130421D01*
X32803507Y69050140D01*
X32914960Y69032488D01*
X33060098Y69009500D01*
X33060103Y69009500D01*
X33319902Y69009500D01*
X33433298Y69027461D01*
X33576493Y69050140D01*
X33823572Y69130421D01*
X34055051Y69248366D01*
X34265229Y69401069D01*
X34372319Y69508159D01*
X34433642Y69541644D01*
X34503334Y69536660D01*
X34547681Y69508159D01*
X34654771Y69401069D01*
X34864949Y69248366D01*
X35012445Y69173213D01*
X35096423Y69130423D01*
X35096425Y69130423D01*
X35096428Y69130421D01*
X35343507Y69050140D01*
X35454960Y69032488D01*
X35600098Y69009500D01*
X35600103Y69009500D01*
X35859902Y69009500D01*
X35973298Y69027461D01*
X36116493Y69050140D01*
X36363572Y69130421D01*
X36595051Y69248366D01*
X36805229Y69401069D01*
X36912319Y69508159D01*
X36973642Y69541644D01*
X37043334Y69536660D01*
X37087681Y69508159D01*
X37194771Y69401069D01*
X37404949Y69248366D01*
X37552445Y69173213D01*
X37636423Y69130423D01*
X37636425Y69130423D01*
X37636428Y69130421D01*
X37883507Y69050140D01*
X37994960Y69032488D01*
X38140098Y69009500D01*
X38140103Y69009500D01*
X38399902Y69009500D01*
X38513298Y69027461D01*
X38656493Y69050140D01*
X38903572Y69130421D01*
X39135051Y69248366D01*
X39345229Y69401069D01*
X39452319Y69508159D01*
X39513642Y69541644D01*
X39583334Y69536660D01*
X39627681Y69508159D01*
X39734771Y69401069D01*
X39944949Y69248366D01*
X40092445Y69173213D01*
X40176423Y69130423D01*
X40176425Y69130423D01*
X40176428Y69130421D01*
X40423507Y69050140D01*
X40534960Y69032488D01*
X40680098Y69009500D01*
X40680103Y69009500D01*
X40939902Y69009500D01*
X41053298Y69027461D01*
X41196493Y69050140D01*
X41443572Y69130421D01*
X41675051Y69248366D01*
X41885229Y69401069D01*
X41992319Y69508159D01*
X42053642Y69541644D01*
X42123334Y69536660D01*
X42167681Y69508159D01*
X42274771Y69401069D01*
X42484949Y69248366D01*
X42632445Y69173213D01*
X42716423Y69130423D01*
X42716425Y69130423D01*
X42716428Y69130421D01*
X42963507Y69050140D01*
X43074960Y69032488D01*
X43220098Y69009500D01*
X43220103Y69009500D01*
X43479902Y69009500D01*
X43593298Y69027461D01*
X43736493Y69050140D01*
X43983572Y69130421D01*
X44215051Y69248366D01*
X44425229Y69401069D01*
X44532319Y69508159D01*
X44593642Y69541644D01*
X44663334Y69536660D01*
X44707681Y69508159D01*
X44814771Y69401069D01*
X45024949Y69248366D01*
X45172445Y69173213D01*
X45256423Y69130423D01*
X45256425Y69130423D01*
X45256428Y69130421D01*
X45503507Y69050140D01*
X45614960Y69032488D01*
X45760098Y69009500D01*
X45760103Y69009500D01*
X46019902Y69009500D01*
X46133298Y69027461D01*
X46276493Y69050140D01*
X46523572Y69130421D01*
X46755051Y69248366D01*
X46965229Y69401069D01*
X47072319Y69508159D01*
X47133642Y69541644D01*
X47203334Y69536660D01*
X47247681Y69508159D01*
X47354771Y69401069D01*
X47564949Y69248366D01*
X47712445Y69173213D01*
X47796423Y69130423D01*
X47796425Y69130423D01*
X47796428Y69130421D01*
X48043507Y69050140D01*
X48154960Y69032488D01*
X48300098Y69009500D01*
X48300103Y69009500D01*
X48559902Y69009500D01*
X48673298Y69027461D01*
X48816493Y69050140D01*
X49063572Y69130421D01*
X49295051Y69248366D01*
X49505229Y69401069D01*
X49612319Y69508159D01*
X49673642Y69541644D01*
X49743334Y69536660D01*
X49787681Y69508159D01*
X49894771Y69401069D01*
X50104949Y69248366D01*
X50252445Y69173213D01*
X50336423Y69130423D01*
X50336425Y69130423D01*
X50336428Y69130421D01*
X50583507Y69050140D01*
X50694960Y69032488D01*
X50840098Y69009500D01*
X50840103Y69009500D01*
X51099902Y69009500D01*
X51213298Y69027461D01*
X51356493Y69050140D01*
X51603572Y69130421D01*
X51835051Y69248366D01*
X52045229Y69401069D01*
X52152319Y69508159D01*
X52213642Y69541644D01*
X52283334Y69536660D01*
X52327681Y69508159D01*
X52434771Y69401069D01*
X52644949Y69248366D01*
X52792445Y69173213D01*
X52876423Y69130423D01*
X52876425Y69130423D01*
X52876428Y69130421D01*
X53123507Y69050140D01*
X53234960Y69032488D01*
X53380098Y69009500D01*
X53380103Y69009500D01*
X53639902Y69009500D01*
X53753298Y69027461D01*
X53896493Y69050140D01*
X54143572Y69130421D01*
X54375051Y69248366D01*
X54585229Y69401069D01*
X54692319Y69508159D01*
X54753642Y69541644D01*
X54823334Y69536660D01*
X54867681Y69508159D01*
X54974771Y69401069D01*
X55184949Y69248366D01*
X55332445Y69173213D01*
X55416423Y69130423D01*
X55416425Y69130423D01*
X55416428Y69130421D01*
X55663507Y69050140D01*
X55774960Y69032488D01*
X55920098Y69009500D01*
X55920103Y69009500D01*
X56179902Y69009500D01*
X56293298Y69027461D01*
X56436493Y69050140D01*
X56683572Y69130421D01*
X56915051Y69248366D01*
X57125229Y69401069D01*
X57232319Y69508159D01*
X57293642Y69541644D01*
X57363334Y69536660D01*
X57407681Y69508159D01*
X57514771Y69401069D01*
X57724949Y69248366D01*
X57872445Y69173213D01*
X57956423Y69130423D01*
X57956425Y69130423D01*
X57956428Y69130421D01*
X58203507Y69050140D01*
X58314960Y69032488D01*
X58460098Y69009500D01*
X58460103Y69009500D01*
X58719902Y69009500D01*
X58833298Y69027461D01*
X58976493Y69050140D01*
X59223572Y69130421D01*
X59455051Y69248366D01*
X59665229Y69401069D01*
X59772319Y69508159D01*
X59833642Y69541644D01*
X59903334Y69536660D01*
X59947681Y69508159D01*
X60054771Y69401069D01*
X60264949Y69248366D01*
X60412445Y69173213D01*
X60496423Y69130423D01*
X60496425Y69130423D01*
X60496428Y69130421D01*
X60743507Y69050140D01*
X60854960Y69032488D01*
X61000098Y69009500D01*
X61000103Y69009500D01*
X61259902Y69009500D01*
X61373298Y69027461D01*
X61516493Y69050140D01*
X61763572Y69130421D01*
X61995051Y69248366D01*
X62205229Y69401069D01*
X62312319Y69508159D01*
X62373642Y69541644D01*
X62443334Y69536660D01*
X62487681Y69508159D01*
X62594771Y69401069D01*
X62804949Y69248366D01*
X62952445Y69173213D01*
X63036423Y69130423D01*
X63036425Y69130423D01*
X63036428Y69130421D01*
X63283507Y69050140D01*
X63394960Y69032488D01*
X63540098Y69009500D01*
X63540103Y69009500D01*
X63799902Y69009500D01*
X63913298Y69027461D01*
X64056493Y69050140D01*
X64303572Y69130421D01*
X64535051Y69248366D01*
X64745229Y69401069D01*
X64852319Y69508159D01*
X64913642Y69541644D01*
X64983334Y69536660D01*
X65027681Y69508159D01*
X65134771Y69401069D01*
X65344949Y69248366D01*
X65492445Y69173213D01*
X65576423Y69130423D01*
X65576425Y69130423D01*
X65576428Y69130421D01*
X65823507Y69050140D01*
X65934960Y69032488D01*
X66080098Y69009500D01*
X66080103Y69009500D01*
X66339902Y69009500D01*
X66453298Y69027461D01*
X66596493Y69050140D01*
X66843572Y69130421D01*
X67075051Y69248366D01*
X67285229Y69401069D01*
X67392319Y69508159D01*
X67453642Y69541644D01*
X67523334Y69536660D01*
X67567681Y69508159D01*
X67674771Y69401069D01*
X67884949Y69248366D01*
X68032445Y69173213D01*
X68116423Y69130423D01*
X68116425Y69130423D01*
X68116428Y69130421D01*
X68363507Y69050140D01*
X68474960Y69032488D01*
X68620098Y69009500D01*
X68620103Y69009500D01*
X68879902Y69009500D01*
X68993298Y69027461D01*
X69136493Y69050140D01*
X69383572Y69130421D01*
X69615051Y69248366D01*
X69825229Y69401069D01*
X69932319Y69508159D01*
X69993642Y69541644D01*
X70063334Y69536660D01*
X70107681Y69508159D01*
X70214771Y69401069D01*
X70424949Y69248366D01*
X70572445Y69173213D01*
X70656423Y69130423D01*
X70656425Y69130423D01*
X70656428Y69130421D01*
X70903507Y69050140D01*
X71014960Y69032488D01*
X71160098Y69009500D01*
X71160103Y69009500D01*
X71419902Y69009500D01*
X71533298Y69027461D01*
X71676493Y69050140D01*
X71923572Y69130421D01*
X72155051Y69248366D01*
X72365229Y69401069D01*
X72472319Y69508159D01*
X72533642Y69541644D01*
X72603334Y69536660D01*
X72647681Y69508159D01*
X72754771Y69401069D01*
X72964949Y69248366D01*
X73112445Y69173213D01*
X73196423Y69130423D01*
X73196425Y69130423D01*
X73196428Y69130421D01*
X73443507Y69050140D01*
X73554960Y69032488D01*
X73700098Y69009500D01*
X73700103Y69009500D01*
X73959902Y69009500D01*
X74073298Y69027461D01*
X74216493Y69050140D01*
X74463572Y69130421D01*
X74695051Y69248366D01*
X74905229Y69401069D01*
X75088931Y69584771D01*
X75241634Y69794949D01*
X75359579Y70026428D01*
X75439860Y70273507D01*
X75462539Y70416702D01*
X75480500Y70530098D01*
X75480500Y70789903D01*
X75458947Y70925979D01*
X75439860Y71046493D01*
X75359579Y71293572D01*
X75359577Y71293575D01*
X75359577Y71293577D01*
X75316787Y71377555D01*
X75241634Y71525051D01*
X75088931Y71735229D01*
X74981841Y71842319D01*
X74948356Y71903642D01*
X74953340Y71973334D01*
X74981841Y72017681D01*
X75035001Y72070841D01*
X75088931Y72124771D01*
X75241634Y72334949D01*
X75359579Y72566428D01*
X75439860Y72813507D01*
X75462539Y72956702D01*
X75480500Y73070098D01*
X75480500Y73329903D01*
X75455836Y73485621D01*
X75439860Y73586493D01*
X75359579Y73833572D01*
X75359577Y73833575D01*
X75359577Y73833577D01*
X75241633Y74065052D01*
X75174140Y74157948D01*
X75174139Y74157950D01*
X75124725Y74225962D01*
X76619500Y74225962D01*
X76619500Y73974039D01*
X76658910Y73725215D01*
X76736760Y73485617D01*
X76851132Y73261152D01*
X76999201Y73057351D01*
X76999205Y73057346D01*
X77177345Y72879206D01*
X77177350Y72879202D01*
X77355117Y72750048D01*
X77381155Y72731130D01*
X77524184Y72658253D01*
X77605616Y72616761D01*
X77605618Y72616761D01*
X77605621Y72616759D01*
X77845215Y72538910D01*
X78094038Y72499500D01*
X78094039Y72499500D01*
X78345961Y72499500D01*
X78345962Y72499500D01*
X78594785Y72538910D01*
X78834379Y72616759D01*
X79058845Y72731130D01*
X79262656Y72879207D01*
X79440793Y73057344D01*
X79588870Y73261155D01*
X79703241Y73485621D01*
X79781090Y73725215D01*
X79820500Y73974038D01*
X79820500Y74225962D01*
X79781090Y74474785D01*
X79703241Y74714379D01*
X79703239Y74714382D01*
X79703239Y74714384D01*
X79641594Y74835368D01*
X79588870Y74938845D01*
X79569952Y74964883D01*
X79440798Y75142650D01*
X79440794Y75142655D01*
X79262654Y75320795D01*
X79262649Y75320799D01*
X79058848Y75468868D01*
X79058847Y75468869D01*
X79058845Y75468870D01*
X78988747Y75504587D01*
X78834383Y75583240D01*
X78594785Y75661090D01*
X78345962Y75700500D01*
X78094038Y75700500D01*
X77969626Y75680795D01*
X77845214Y75661090D01*
X77605616Y75583240D01*
X77381151Y75468868D01*
X77177350Y75320799D01*
X77177345Y75320795D01*
X76999205Y75142655D01*
X76999201Y75142650D01*
X76851132Y74938849D01*
X76736760Y74714384D01*
X76658910Y74474786D01*
X76619500Y74225962D01*
X75124725Y74225962D01*
X75088931Y74275229D01*
X74905229Y74458931D01*
X74883408Y74474785D01*
X74695054Y74611632D01*
X74695053Y74611633D01*
X74695051Y74611634D01*
X74622764Y74648466D01*
X74463576Y74729578D01*
X74216493Y74809860D01*
X73959902Y74850500D01*
X73959897Y74850500D01*
X73700103Y74850500D01*
X73700098Y74850500D01*
X73443506Y74809860D01*
X73196423Y74729578D01*
X72964945Y74611632D01*
X72754774Y74458934D01*
X72754768Y74458929D01*
X72647681Y74351841D01*
X72586358Y74318356D01*
X72516666Y74323340D01*
X72472319Y74351841D01*
X72365231Y74458929D01*
X72365225Y74458934D01*
X72155054Y74611632D01*
X72155053Y74611633D01*
X72155051Y74611634D01*
X72082764Y74648466D01*
X71923576Y74729578D01*
X71676493Y74809860D01*
X71419902Y74850500D01*
X71419897Y74850500D01*
X71160103Y74850500D01*
X71160098Y74850500D01*
X70903506Y74809860D01*
X70656423Y74729578D01*
X70424945Y74611632D01*
X70214774Y74458934D01*
X70214768Y74458929D01*
X70107681Y74351841D01*
X70046358Y74318356D01*
X69976666Y74323340D01*
X69932319Y74351841D01*
X69825231Y74458929D01*
X69825225Y74458934D01*
X69615054Y74611632D01*
X69615053Y74611633D01*
X69615051Y74611634D01*
X69542764Y74648466D01*
X69383576Y74729578D01*
X69136493Y74809860D01*
X68879902Y74850500D01*
X68879897Y74850500D01*
X68620103Y74850500D01*
X68620098Y74850500D01*
X68363506Y74809860D01*
X68116423Y74729578D01*
X67884945Y74611632D01*
X67674774Y74458934D01*
X67674768Y74458929D01*
X67567681Y74351841D01*
X67506358Y74318356D01*
X67436666Y74323340D01*
X67392319Y74351841D01*
X67285231Y74458929D01*
X67285225Y74458934D01*
X67075054Y74611632D01*
X67075053Y74611633D01*
X67075051Y74611634D01*
X67002764Y74648466D01*
X66843576Y74729578D01*
X66596493Y74809860D01*
X66339902Y74850500D01*
X66339897Y74850500D01*
X66080103Y74850500D01*
X66080098Y74850500D01*
X65823506Y74809860D01*
X65576423Y74729578D01*
X65344945Y74611632D01*
X65134774Y74458934D01*
X65134768Y74458929D01*
X65027681Y74351841D01*
X64966358Y74318356D01*
X64896666Y74323340D01*
X64852319Y74351841D01*
X64745231Y74458929D01*
X64745225Y74458934D01*
X64535054Y74611632D01*
X64535053Y74611633D01*
X64535051Y74611634D01*
X64462764Y74648466D01*
X64303576Y74729578D01*
X64056493Y74809860D01*
X63799902Y74850500D01*
X63799897Y74850500D01*
X63540103Y74850500D01*
X63540098Y74850500D01*
X63283506Y74809860D01*
X63036423Y74729578D01*
X62804945Y74611632D01*
X62594774Y74458934D01*
X62594768Y74458929D01*
X62487681Y74351841D01*
X62426358Y74318356D01*
X62356666Y74323340D01*
X62312319Y74351841D01*
X62205231Y74458929D01*
X62205225Y74458934D01*
X61995054Y74611632D01*
X61995053Y74611633D01*
X61995051Y74611634D01*
X61922764Y74648466D01*
X61763576Y74729578D01*
X61516493Y74809860D01*
X61259902Y74850500D01*
X61259897Y74850500D01*
X61000103Y74850500D01*
X61000098Y74850500D01*
X60743506Y74809860D01*
X60496423Y74729578D01*
X60264945Y74611632D01*
X60054774Y74458934D01*
X60054768Y74458929D01*
X59947681Y74351841D01*
X59886358Y74318356D01*
X59816666Y74323340D01*
X59772319Y74351841D01*
X59665231Y74458929D01*
X59665225Y74458934D01*
X59455054Y74611632D01*
X59455053Y74611633D01*
X59455051Y74611634D01*
X59382764Y74648466D01*
X59223576Y74729578D01*
X58976493Y74809860D01*
X58719902Y74850500D01*
X58719897Y74850500D01*
X58460103Y74850500D01*
X58460098Y74850500D01*
X58203506Y74809860D01*
X57956423Y74729578D01*
X57724945Y74611632D01*
X57514774Y74458934D01*
X57514768Y74458929D01*
X57407681Y74351841D01*
X57346358Y74318356D01*
X57276666Y74323340D01*
X57232319Y74351841D01*
X57125231Y74458929D01*
X57125225Y74458934D01*
X56915054Y74611632D01*
X56915053Y74611633D01*
X56915051Y74611634D01*
X56842764Y74648466D01*
X56683576Y74729578D01*
X56436493Y74809860D01*
X56179902Y74850500D01*
X56179897Y74850500D01*
X55920103Y74850500D01*
X55920098Y74850500D01*
X55663506Y74809860D01*
X55416423Y74729578D01*
X55184945Y74611632D01*
X54974774Y74458934D01*
X54974768Y74458929D01*
X54867681Y74351841D01*
X54806358Y74318356D01*
X54736666Y74323340D01*
X54692319Y74351841D01*
X54585231Y74458929D01*
X54585225Y74458934D01*
X54375054Y74611632D01*
X54375053Y74611633D01*
X54375051Y74611634D01*
X54302764Y74648466D01*
X54143576Y74729578D01*
X53896493Y74809860D01*
X53639902Y74850500D01*
X53639897Y74850500D01*
X53380103Y74850500D01*
X53380098Y74850500D01*
X53123506Y74809860D01*
X52876423Y74729578D01*
X52644945Y74611632D01*
X52434774Y74458934D01*
X52434768Y74458929D01*
X52327681Y74351841D01*
X52266358Y74318356D01*
X52196666Y74323340D01*
X52152319Y74351841D01*
X52045231Y74458929D01*
X52045225Y74458934D01*
X51835054Y74611632D01*
X51835053Y74611633D01*
X51835051Y74611634D01*
X51762764Y74648466D01*
X51603576Y74729578D01*
X51356493Y74809860D01*
X51099902Y74850500D01*
X51099897Y74850500D01*
X50840103Y74850500D01*
X50840098Y74850500D01*
X50583506Y74809860D01*
X50336423Y74729578D01*
X50104945Y74611632D01*
X49894774Y74458934D01*
X49894768Y74458929D01*
X49787681Y74351841D01*
X49726358Y74318356D01*
X49656666Y74323340D01*
X49612319Y74351841D01*
X49505231Y74458929D01*
X49505225Y74458934D01*
X49295054Y74611632D01*
X49295053Y74611633D01*
X49295051Y74611634D01*
X49222764Y74648466D01*
X49063576Y74729578D01*
X48816493Y74809860D01*
X48559902Y74850500D01*
X48559897Y74850500D01*
X48300103Y74850500D01*
X48300098Y74850500D01*
X48043506Y74809860D01*
X47796423Y74729578D01*
X47564945Y74611632D01*
X47354774Y74458934D01*
X47354768Y74458929D01*
X47247681Y74351841D01*
X47186358Y74318356D01*
X47116666Y74323340D01*
X47072319Y74351841D01*
X46965231Y74458929D01*
X46965225Y74458934D01*
X46755054Y74611632D01*
X46755053Y74611633D01*
X46755051Y74611634D01*
X46682764Y74648466D01*
X46523576Y74729578D01*
X46276493Y74809860D01*
X46019902Y74850500D01*
X46019897Y74850500D01*
X45760103Y74850500D01*
X45760098Y74850500D01*
X45503506Y74809860D01*
X45256423Y74729578D01*
X45024945Y74611632D01*
X44814774Y74458934D01*
X44814768Y74458929D01*
X44707681Y74351841D01*
X44646358Y74318356D01*
X44576666Y74323340D01*
X44532319Y74351841D01*
X44425231Y74458929D01*
X44425225Y74458934D01*
X44215054Y74611632D01*
X44215053Y74611633D01*
X44215051Y74611634D01*
X44142764Y74648466D01*
X43983576Y74729578D01*
X43736493Y74809860D01*
X43479902Y74850500D01*
X43479897Y74850500D01*
X43220103Y74850500D01*
X43220098Y74850500D01*
X42963506Y74809860D01*
X42716423Y74729578D01*
X42484945Y74611632D01*
X42274774Y74458934D01*
X42274768Y74458929D01*
X42167681Y74351841D01*
X42106358Y74318356D01*
X42036666Y74323340D01*
X41992319Y74351841D01*
X41885231Y74458929D01*
X41885225Y74458934D01*
X41675054Y74611632D01*
X41675053Y74611633D01*
X41675051Y74611634D01*
X41602764Y74648466D01*
X41443576Y74729578D01*
X41196493Y74809860D01*
X40939902Y74850500D01*
X40939897Y74850500D01*
X40680103Y74850500D01*
X40680098Y74850500D01*
X40423506Y74809860D01*
X40176423Y74729578D01*
X39944945Y74611632D01*
X39734774Y74458934D01*
X39734768Y74458929D01*
X39627681Y74351841D01*
X39566358Y74318356D01*
X39496666Y74323340D01*
X39452319Y74351841D01*
X39345231Y74458929D01*
X39345225Y74458934D01*
X39135054Y74611632D01*
X39135053Y74611633D01*
X39135051Y74611634D01*
X39062764Y74648466D01*
X38903576Y74729578D01*
X38656493Y74809860D01*
X38399902Y74850500D01*
X38399897Y74850500D01*
X38140103Y74850500D01*
X38140098Y74850500D01*
X37883506Y74809860D01*
X37636423Y74729578D01*
X37404945Y74611632D01*
X37194774Y74458934D01*
X37194768Y74458929D01*
X37011071Y74275232D01*
X37011066Y74275226D01*
X36858368Y74065055D01*
X36740422Y73833577D01*
X36660140Y73586494D01*
X36619500Y73329903D01*
X36619500Y73070098D01*
X36660140Y72813507D01*
X36740422Y72566424D01*
X36858368Y72334946D01*
X37011066Y72124775D01*
X37011071Y72124769D01*
X37118159Y72017681D01*
X37122497Y72009736D01*
X37129745Y72004310D01*
X37138979Y71979551D01*
X37151644Y71956358D01*
X37150998Y71947329D01*
X37154162Y71938846D01*
X37148545Y71913026D01*
X37146660Y71886666D01*
X37140841Y71877613D01*
X37139310Y71870573D01*
X37118159Y71842319D01*
X37087681Y71811841D01*
X37026358Y71778356D01*
X36956666Y71783340D01*
X36912319Y71811841D01*
X36805231Y71918929D01*
X36805225Y71918934D01*
X36595054Y72071632D01*
X36595053Y72071633D01*
X36595051Y72071634D01*
X36522764Y72108466D01*
X36363576Y72189578D01*
X36116493Y72269860D01*
X35859902Y72310500D01*
X35859897Y72310500D01*
X35600103Y72310500D01*
X35600098Y72310500D01*
X35343506Y72269860D01*
X35096423Y72189578D01*
X34864945Y72071632D01*
X34654774Y71918934D01*
X34547681Y71811841D01*
X34539735Y71807503D01*
X34534312Y71800257D01*
X34509552Y71791022D01*
X34486358Y71778357D01*
X34477329Y71779003D01*
X34468848Y71775839D01*
X34443026Y71781456D01*
X34416666Y71783341D01*
X34407612Y71789160D01*
X34400575Y71790690D01*
X34372320Y71811840D01*
X34372319Y71811841D01*
X34341840Y71842320D01*
X34308356Y71903640D01*
X34313340Y71973332D01*
X34341841Y72017681D01*
X34395001Y72070841D01*
X34448931Y72124771D01*
X34601634Y72334949D01*
X34719579Y72566428D01*
X34799860Y72813507D01*
X34822539Y72956702D01*
X34840500Y73070098D01*
X34840500Y73329903D01*
X34815836Y73485621D01*
X34799860Y73586493D01*
X34719579Y73833572D01*
X34719577Y73833575D01*
X34719577Y73833577D01*
X34676787Y73917555D01*
X34601634Y74065051D01*
X34448931Y74275229D01*
X34265229Y74458931D01*
X34243408Y74474785D01*
X34055054Y74611632D01*
X34055053Y74611633D01*
X34055051Y74611634D01*
X33982764Y74648466D01*
X33823576Y74729578D01*
X33576493Y74809860D01*
X33319902Y74850500D01*
X33319897Y74850500D01*
X33060103Y74850500D01*
X33060098Y74850500D01*
X32803506Y74809860D01*
X32556423Y74729578D01*
X32324945Y74611632D01*
X32114774Y74458934D01*
X32114768Y74458929D01*
X32007681Y74351841D01*
X31946358Y74318356D01*
X31876666Y74323340D01*
X31832319Y74351841D01*
X31725231Y74458929D01*
X31725225Y74458934D01*
X31515054Y74611632D01*
X31515053Y74611633D01*
X31515051Y74611634D01*
X31442764Y74648466D01*
X31283576Y74729578D01*
X31036493Y74809860D01*
X30779902Y74850500D01*
X30779897Y74850500D01*
X30520103Y74850500D01*
X30520098Y74850500D01*
X30263506Y74809860D01*
X30016423Y74729578D01*
X29784945Y74611632D01*
X29574774Y74458934D01*
X29574768Y74458929D01*
X29467681Y74351841D01*
X29406358Y74318356D01*
X29336666Y74323340D01*
X29292319Y74351841D01*
X29185231Y74458929D01*
X29185225Y74458934D01*
X28975054Y74611632D01*
X28975053Y74611633D01*
X28975051Y74611634D01*
X28902764Y74648466D01*
X28743576Y74729578D01*
X28496493Y74809860D01*
X28239902Y74850500D01*
X28239897Y74850500D01*
X27980103Y74850500D01*
X27980098Y74850500D01*
X27723506Y74809860D01*
X27476423Y74729578D01*
X27244946Y74611633D01*
X27183219Y74566786D01*
X27117413Y74543307D01*
X27049359Y74559133D01*
X27022654Y74579424D01*
X26922262Y74679816D01*
X26769523Y74775789D01*
X26599254Y74835369D01*
X26599249Y74835370D01*
X26464960Y74850500D01*
X26464954Y74850500D01*
X24675046Y74850500D01*
X24675039Y74850500D01*
X24540750Y74835370D01*
X24540745Y74835369D01*
X24370476Y74775789D01*
X24217737Y74679816D01*
X24090184Y74552263D01*
X23994211Y74399524D01*
X23934631Y74229255D01*
X23934630Y74229250D01*
X23919500Y74094961D01*
X23919500Y72305040D01*
X23934630Y72170751D01*
X23934631Y72170746D01*
X23994211Y72000477D01*
X24090184Y71847738D01*
X24190576Y71747346D01*
X24224061Y71686023D01*
X24219077Y71616331D01*
X24203214Y71586781D01*
X24158367Y71525054D01*
X24040422Y71293577D01*
X23960140Y71046494D01*
X23919500Y70789903D01*
X23919500Y70530098D01*
X23960140Y70273507D01*
X24040422Y70026424D01*
X24158368Y69794946D01*
X24299999Y69600007D01*
X24311069Y69584771D01*
X24494771Y69401069D01*
X24704949Y69248366D01*
X24936428Y69130421D01*
X25013819Y69105275D01*
X25071493Y69065840D01*
X25098692Y69001482D01*
X25099500Y68987345D01*
X25099500Y67424500D01*
X25079815Y67357461D01*
X25027011Y67311706D01*
X24975500Y67300500D01*
X3805039Y67300500D01*
X3670750Y67285370D01*
X3670745Y67285369D01*
X3500476Y67225789D01*
X3347737Y67129816D01*
X3220184Y67002263D01*
X3124211Y66849524D01*
X3064631Y66679255D01*
X3064630Y66679250D01*
X3049500Y66544961D01*
X3049500Y66324500D01*
X3029815Y66257461D01*
X2977011Y66211706D01*
X2925500Y66200500D01*
X2655514Y66200500D01*
X2468881Y66170941D01*
X2289163Y66112546D01*
X2120800Y66026760D01*
X2111031Y66019662D01*
X1967927Y65915690D01*
X1967925Y65915688D01*
X1967924Y65915688D01*
X834308Y64782073D01*
X834304Y64782068D01*
X752889Y64670008D01*
X752889Y64670007D01*
X723240Y64629200D01*
X637454Y64460837D01*
X579059Y64281119D01*
X549500Y64094487D01*
X549500Y49290837D01*
X529815Y49223798D01*
X504165Y49194984D01*
X353589Y49071411D01*
X245906Y48940197D01*
X188161Y48900863D01*
X118316Y48898992D01*
X58548Y48935179D01*
X27832Y48997935D01*
X26053Y49018800D01*
X26039Y49047781D01*
X9317Y82475962D01*
X92199500Y82475962D01*
X92199500Y82224039D01*
X92238910Y81975215D01*
X92316760Y81735617D01*
X92431132Y81511152D01*
X92579201Y81307351D01*
X92579205Y81307346D01*
X92757345Y81129206D01*
X92757350Y81129202D01*
X92935117Y81000048D01*
X92961155Y80981130D01*
X93104184Y80908253D01*
X93185616Y80866761D01*
X93185618Y80866761D01*
X93185621Y80866759D01*
X93425215Y80788910D01*
X93674038Y80749500D01*
X93674039Y80749500D01*
X93925961Y80749500D01*
X93925962Y80749500D01*
X94174785Y80788910D01*
X94414379Y80866759D01*
X94638845Y80981130D01*
X94842656Y81129207D01*
X95020793Y81307344D01*
X95168870Y81511155D01*
X95283241Y81735621D01*
X95361090Y81975215D01*
X95400500Y82224038D01*
X95400500Y82475962D01*
X95361090Y82724785D01*
X95283241Y82964379D01*
X95283239Y82964382D01*
X95283239Y82964384D01*
X95241747Y83045816D01*
X95168870Y83188845D01*
X95149952Y83214883D01*
X95020798Y83392650D01*
X95020794Y83392655D01*
X94842654Y83570795D01*
X94842649Y83570799D01*
X94638848Y83718868D01*
X94638847Y83718869D01*
X94638845Y83718870D01*
X94568747Y83754587D01*
X94414383Y83833240D01*
X94174785Y83911090D01*
X93925962Y83950500D01*
X93674038Y83950500D01*
X93549626Y83930795D01*
X93425214Y83911090D01*
X93185616Y83833240D01*
X92961151Y83718868D01*
X92757350Y83570799D01*
X92757345Y83570795D01*
X92579205Y83392655D01*
X92579201Y83392650D01*
X92431132Y83188849D01*
X92316760Y82964384D01*
X92238910Y82724786D01*
X92199500Y82475962D01*
X9317Y82475962D01*
X7191Y86725962D01*
X88279500Y86725962D01*
X88279500Y86474039D01*
X88318910Y86225215D01*
X88396760Y85985617D01*
X88511132Y85761152D01*
X88659201Y85557351D01*
X88659205Y85557346D01*
X88837345Y85379206D01*
X88837350Y85379202D01*
X89015117Y85250048D01*
X89041155Y85231130D01*
X89184184Y85158253D01*
X89265616Y85116761D01*
X89265618Y85116761D01*
X89265621Y85116759D01*
X89505215Y85038910D01*
X89754038Y84999500D01*
X89754039Y84999500D01*
X90005961Y84999500D01*
X90005962Y84999500D01*
X90254785Y85038910D01*
X90494379Y85116759D01*
X90718845Y85231130D01*
X90922656Y85379207D01*
X91100793Y85557344D01*
X91248870Y85761155D01*
X91363241Y85985621D01*
X91441090Y86225215D01*
X91480500Y86474038D01*
X91480500Y86725962D01*
X91441090Y86974785D01*
X91363241Y87214379D01*
X91363239Y87214382D01*
X91363239Y87214384D01*
X91321747Y87295816D01*
X91248870Y87438845D01*
X91229952Y87464883D01*
X91100798Y87642650D01*
X91100794Y87642655D01*
X90922654Y87820795D01*
X90922649Y87820799D01*
X90718848Y87968868D01*
X90718847Y87968869D01*
X90718845Y87968870D01*
X90648747Y88004587D01*
X90494383Y88083240D01*
X90254785Y88161090D01*
X90005962Y88200500D01*
X89754038Y88200500D01*
X89629626Y88180795D01*
X89505214Y88161090D01*
X89265616Y88083240D01*
X89041151Y87968868D01*
X88837350Y87820799D01*
X88837345Y87820795D01*
X88659205Y87642655D01*
X88659201Y87642650D01*
X88511132Y87438849D01*
X88396760Y87214384D01*
X88318910Y86974786D01*
X88279500Y86725962D01*
X7191Y86725962D01*
X5565Y89975962D01*
X92199500Y89975962D01*
X92199500Y89724039D01*
X92238910Y89475215D01*
X92316760Y89235617D01*
X92431132Y89011152D01*
X92579201Y88807351D01*
X92579205Y88807346D01*
X92757345Y88629206D01*
X92757350Y88629202D01*
X92935117Y88500048D01*
X92961155Y88481130D01*
X93104184Y88408253D01*
X93185616Y88366761D01*
X93185618Y88366761D01*
X93185621Y88366759D01*
X93425215Y88288910D01*
X93674038Y88249500D01*
X93674039Y88249500D01*
X93925961Y88249500D01*
X93925962Y88249500D01*
X94174785Y88288910D01*
X94414379Y88366759D01*
X94638845Y88481130D01*
X94842656Y88629207D01*
X95020793Y88807344D01*
X95168870Y89011155D01*
X95283241Y89235621D01*
X95361090Y89475215D01*
X95400500Y89724038D01*
X95400500Y89975962D01*
X95361090Y90224785D01*
X95283241Y90464379D01*
X95283239Y90464382D01*
X95283239Y90464384D01*
X95235869Y90557351D01*
X95168870Y90688845D01*
X95116334Y90761155D01*
X95020798Y90892650D01*
X95020794Y90892655D01*
X94842654Y91070795D01*
X94842649Y91070799D01*
X94638848Y91218868D01*
X94638847Y91218869D01*
X94638845Y91218870D01*
X94568747Y91254587D01*
X94414383Y91333240D01*
X94174785Y91411090D01*
X93925962Y91450500D01*
X93674038Y91450500D01*
X93549626Y91430795D01*
X93425214Y91411090D01*
X93185616Y91333240D01*
X92961151Y91218868D01*
X92757350Y91070799D01*
X92757345Y91070795D01*
X92579205Y90892655D01*
X92579201Y90892650D01*
X92431132Y90688849D01*
X92316760Y90464384D01*
X92238910Y90224786D01*
X92199500Y89975962D01*
X5565Y89975962D01*
X4690Y91725962D01*
X85199500Y91725962D01*
X85199500Y91474039D01*
X85238910Y91225215D01*
X85316760Y90985617D01*
X85431132Y90761152D01*
X85579201Y90557351D01*
X85579205Y90557346D01*
X85757345Y90379206D01*
X85757350Y90379202D01*
X85935117Y90250048D01*
X85961155Y90231130D01*
X86104184Y90158253D01*
X86185616Y90116761D01*
X86185618Y90116761D01*
X86185621Y90116759D01*
X86425215Y90038910D01*
X86674038Y89999500D01*
X86674039Y89999500D01*
X86925961Y89999500D01*
X86925962Y89999500D01*
X87174785Y90038910D01*
X87414379Y90116759D01*
X87638845Y90231130D01*
X87842656Y90379207D01*
X88020793Y90557344D01*
X88168870Y90761155D01*
X88283241Y90985621D01*
X88361090Y91225215D01*
X88400500Y91474038D01*
X88400500Y91725962D01*
X88361090Y91974785D01*
X88283241Y92214379D01*
X88283239Y92214382D01*
X88283239Y92214384D01*
X88241747Y92295816D01*
X88168870Y92438845D01*
X88149952Y92464883D01*
X88020798Y92642650D01*
X88020794Y92642655D01*
X87842654Y92820795D01*
X87842649Y92820799D01*
X87638848Y92968868D01*
X87638847Y92968869D01*
X87638845Y92968870D01*
X87568747Y93004587D01*
X87414383Y93083240D01*
X87174785Y93161090D01*
X86925962Y93200500D01*
X86674038Y93200500D01*
X86549626Y93180795D01*
X86425214Y93161090D01*
X86185616Y93083240D01*
X85961151Y92968868D01*
X85757350Y92820799D01*
X85757345Y92820795D01*
X85579205Y92642655D01*
X85579201Y92642650D01*
X85431132Y92438849D01*
X85316760Y92214384D01*
X85238910Y91974786D01*
X85199500Y91725962D01*
X4690Y91725962D01*
X2639Y95825962D01*
X2449500Y95825962D01*
X2449500Y95574039D01*
X2488910Y95325215D01*
X2566760Y95085617D01*
X2681132Y94861152D01*
X2829201Y94657351D01*
X2829205Y94657346D01*
X3007345Y94479206D01*
X3007350Y94479202D01*
X3185117Y94350048D01*
X3211155Y94331130D01*
X3354184Y94258253D01*
X3435616Y94216761D01*
X3435618Y94216761D01*
X3435621Y94216759D01*
X3675215Y94138910D01*
X3924038Y94099500D01*
X3924039Y94099500D01*
X4175961Y94099500D01*
X4175962Y94099500D01*
X4424785Y94138910D01*
X4664379Y94216759D01*
X4888845Y94331130D01*
X5092656Y94479207D01*
X5270793Y94657344D01*
X5418870Y94861155D01*
X5533241Y95085621D01*
X5611090Y95325215D01*
X5650500Y95574038D01*
X5650500Y95825962D01*
X5611090Y96074785D01*
X5533241Y96314379D01*
X5533239Y96314382D01*
X5533239Y96314384D01*
X5491747Y96395816D01*
X5418870Y96538845D01*
X5399952Y96564883D01*
X5270798Y96742650D01*
X5270794Y96742655D01*
X5092654Y96920795D01*
X5092649Y96920799D01*
X4888848Y97068868D01*
X4888847Y97068869D01*
X4888845Y97068870D01*
X4818747Y97104587D01*
X4664383Y97183240D01*
X4424785Y97261090D01*
X4175962Y97300500D01*
X3924038Y97300500D01*
X3799626Y97280795D01*
X3675214Y97261090D01*
X3435616Y97183240D01*
X3211151Y97068868D01*
X3007350Y96920799D01*
X3007345Y96920795D01*
X2829205Y96742655D01*
X2829201Y96742650D01*
X2681132Y96538849D01*
X2566760Y96314384D01*
X2488910Y96074786D01*
X2449500Y95825962D01*
X2639Y95825962D01*
X1654Y97794961D01*
X11324500Y97794961D01*
X11324500Y96005040D01*
X11339630Y95870751D01*
X11339631Y95870746D01*
X11399211Y95700477D01*
X11495184Y95547738D01*
X11622738Y95420184D01*
X11775478Y95324211D01*
X11945745Y95264632D01*
X11945750Y95264631D01*
X12036246Y95254435D01*
X12080040Y95249501D01*
X12080043Y95249500D01*
X12080046Y95249500D01*
X13869957Y95249500D01*
X13869958Y95249501D01*
X13937104Y95257066D01*
X14004249Y95264631D01*
X14004252Y95264632D01*
X14004255Y95264632D01*
X14174522Y95324211D01*
X14327262Y95420184D01*
X14454816Y95547738D01*
X14550789Y95700478D01*
X14594698Y95825962D01*
X94449500Y95825962D01*
X94449500Y95574039D01*
X94488910Y95325215D01*
X94566760Y95085617D01*
X94681132Y94861152D01*
X94829201Y94657351D01*
X94829205Y94657346D01*
X95007345Y94479206D01*
X95007350Y94479202D01*
X95185117Y94350048D01*
X95211155Y94331130D01*
X95354184Y94258253D01*
X95435616Y94216761D01*
X95435618Y94216761D01*
X95435621Y94216759D01*
X95675215Y94138910D01*
X95924038Y94099500D01*
X95924039Y94099500D01*
X96175961Y94099500D01*
X96175962Y94099500D01*
X96424785Y94138910D01*
X96664379Y94216759D01*
X96888845Y94331130D01*
X97092656Y94479207D01*
X97270793Y94657344D01*
X97418870Y94861155D01*
X97533241Y95085621D01*
X97611090Y95325215D01*
X97650500Y95574038D01*
X97650500Y95825962D01*
X97611090Y96074785D01*
X97533241Y96314379D01*
X97533239Y96314382D01*
X97533239Y96314384D01*
X97491747Y96395816D01*
X97418870Y96538845D01*
X97399952Y96564883D01*
X97270798Y96742650D01*
X97270794Y96742655D01*
X97092654Y96920795D01*
X97092649Y96920799D01*
X96888848Y97068868D01*
X96888847Y97068869D01*
X96888845Y97068870D01*
X96818747Y97104587D01*
X96664383Y97183240D01*
X96424785Y97261090D01*
X96175962Y97300500D01*
X95924038Y97300500D01*
X95799626Y97280795D01*
X95675214Y97261090D01*
X95435616Y97183240D01*
X95211151Y97068868D01*
X95007350Y96920799D01*
X95007345Y96920795D01*
X94829205Y96742655D01*
X94829201Y96742650D01*
X94681132Y96538849D01*
X94566760Y96314384D01*
X94488910Y96074786D01*
X94449500Y95825962D01*
X14594698Y95825962D01*
X14610368Y95870745D01*
X14625500Y96005046D01*
X14625500Y97794954D01*
X14610368Y97929255D01*
X14550789Y98099522D01*
X14454816Y98252262D01*
X14327262Y98379816D01*
X14174523Y98475789D01*
X14004254Y98535369D01*
X14004249Y98535370D01*
X13869960Y98550500D01*
X13869954Y98550500D01*
X12080046Y98550500D01*
X12080039Y98550500D01*
X11945750Y98535370D01*
X11945745Y98535369D01*
X11775476Y98475789D01*
X11622737Y98379816D01*
X11495184Y98252263D01*
X11399211Y98099524D01*
X11339631Y97929255D01*
X11339630Y97929250D01*
X11324500Y97794961D01*
X1654Y97794961D01*
X838Y99425938D01*
X20489Y99492987D01*
X73270Y99538769D01*
X124838Y99550000D01*
X99475500Y99550000D01*
X99542539Y99530315D01*
G37*
%TD.AperFunction*%
%TD*%
M02*
